<svg xmlns="http://www.w3.org/2000/svg" id="Layer_3" width="1000" height="1000"><defs><style>.cls-1{fill:#a7bd9f}</style></defs><path d="M90.17 863.95c21.15-30.28 97.64-155.66-1.12-263.07-1.78-1.94-1.2-5.04 1.33-5.77 21.87-6.28 106.37-24.69 138.3 54.63.57 1.42 1.83 2.37 3.35 2.26 19.98-1.5 157.13-6.97 90.69 133.63-.87 1.83-.13 4.14 1.76 4.89 19.61 7.71 113.13 50.46 51.87 144.1-1.38 2.11-4.5 2.4-5.96.34-13.77-19.43-81.62-96.32-276.57-65.6-3.09.49-5.45-2.84-3.66-5.41ZM90.01 568.54s37.42-23.51 84.55 0c0 0 62.46-385.53-12.53-444.61 0 0-145.44 169.86-72.02 444.61ZM200.29 576.13s42.75 1.86 57.35 44.11c0 0 228.21-302.34 221.46-579.66 0 0-257.42 116.3-278.81 535.55Z" class="cls-1"/><path d="M273.18 626.71s79.67 4.07 90.78 62.54c0 0 298.43-167.28 430.3-475.66 0 0-266.94 52.37-521.08 413.12ZM369.94 715.97s2.6 23.46-10.91 57.14c0 0 35.5 12.28 49.79 36.28 0 0 373.09-37.92 524.5-231.14 0 0-204.65-78.05-563.39 137.72ZM422.51 828.12s37.03 66.38-20.65 115.82c0 0 393.01.33 442.52-73.03 0 0-36.4-73.84-421.87-42.79Z" class="cls-1"/></svg>