<svg xmlns="http://www.w3.org/2000/svg" width="375" height="167"><defs><style>.cls-2{fill:#a7bd9f}</style></defs><path id="Layer_3" d="M375 0h-13.23v12.48l-2.6 2.74-1.6 12.25-15.45 1.26-4.69 10.95 1.26 5.51-14.81 9.68-8.91-3.25-4.85 16.27h-8.54v12.73l-4.81 6.85-8.16-2.27-8.78 18.65-18.28 1.04-1.37 9.25h-6.3l-3.78-3.18-15.7-2.81-6.13 2.81v-7.21l-15.32-2.36-7.87 8.76-17.49.2-17.49-.2-7.87-8.76-15.32 2.36v7.21l-6.13-2.81-15.7 2.81-3.78 3.18H115l-1.37-9.25-18.28-1.04-8.78-18.65-8.16 2.27-4.82-6.85V67.89h-8.53l-4.85-16.27-8.92 3.25-14.8-9.68 1.26-5.51-4.69-10.95-15.45-1.26-1.6-12.25-2.61-2.74V0H.18v167.03l187.41-.18 187.41.18V0z" style="fill:#fdfdfa; filter: blur(3px); opacity: 0.85; transform: translateY(3px);"/><g id="Layer_2"><path d="M190.5 132.67c1.59-1.39 5.33-2.56 5.33-2.56 2.87-11.18 1.66-13.43 1.66-13.43-2.67.67-8.88 9.91-8.88 9.91 1.68 2.74 1.89 6.07 1.89 6.07ZM194.45 141.71c1.91 2.89 2.68 6.81 2.68 6.81 10.62 2.73 13.29 1.62 13.29 1.62-2.14-4.14-11.49-9.78-11.49-9.78-1.61.93-4.47 1.34-4.47 1.34ZM185.02 144.83c-3.1 1.98-6.04 2.57-6.04 2.57-1.37 3.61-2.25 9.79-2.25 9.79-.59 4.03-.02 5.56-.02 5.56 1.58-.48 4.08-3.62 4.08-3.62 3.21-3.32 6.05-8.49 6.05-8.49-1.24-2.15-1.83-5.81-1.83-5.81ZM181.07 135.64c-1.14-1.87-1.97-4.21-1.97-4.21-10.92-3.39-15.09-2.21-15.09-2.21 2.02 3.93 10.26 8.99 10.26 8.99 3.98-2.34 6.8-2.57 6.8-2.57ZM190.65 133.87l-.05.07c-.07.72-.25 1.63-.46 2.33 1.3-.34 3.59-.56 3.73-.2.13.35-1.89 1.83-3.07 2.39.96.54 2.37 1.67 2.75 2.24l.27-.04c3.97-.19 7.92-2.93 7.92-2.93 8.3-5 9.6-7.77 9.6-7.77-1.67-1.27-12.34.54-12.34.54-5.98 1.01-8.35 3.38-8.35 3.38ZM182.16 135.33l.41.45c.65-.12 2.54.21 3.59.58-.37-1.26-.62-3.74-.25-3.88.33-.12 1.6 1.58 2.24 2.78l1.29-1.76.03-.7c-.38-4.21-3.29-8.47-3.29-8.47-5.58-8.72-7.44-9.1-7.44-9.1-1.21 3.14.57 12.39.57 12.39.63 4.61 2.86 7.71 2.86 7.71ZM182.96 144.86c.93-.47 1.83-1.07 2.34-1.42.01-.86.3-2.39.62-3.27-1.32.32-3.42.5-3.55.16-.11-.3 1.34-1.42 2.51-2.09-.7-.44-1.54-1.09-2.06-1.61h-.59c-4.7.07-11.09 4.77-11.09 4.77-7.19 4.89-6.87 6.03-6.87 6.03 2.72 1.17 11.09-.4 11.09-.4 3.81-.58 6.18-1.45 7.6-2.17ZM192.69 141.1c-.72-.05-1.7-.23-2.46-.45.28 1.32.41 3.15.1 3.27-.33.13-1.66-1.67-2.28-2.87-.42.8-1.35 2.03-2 2.64-.12 3.12 2.11 7.21 2.11 7.21 5.85 9.97 8.69 11.22 8.69 11.22 1.38-3.1-.84-13.64-.84-13.64-.98-4.7-2.9-6.95-3.3-7.37ZM220.37 173.11s-4.13-.59-5.62-8.26c0 0-1.36-6.94 1.14-11.58.02-.04.08-.02.08.02-.03.55.2 2.1 2.9 5.08 0 0 10.49 8.59 1.5 14.74Z" class="cls-2"/><path d="M219.4 173.65c-.87-.33-5.17-2.35-6.06-10.56 0-.01 0-.03-.02-.04-.31-.26-4.73-3.88-8.18-3.67-.06 0-.09.09-.03.13.6.35 2.33 1.7 2.93 5.91 0 0 2.43 12.27 11.36 8.37.05-.02.06-.1 0-.12ZM213.5 162.08c-.64-.51-2.48-1.92-4.05-2.47-.04-.01-.06-.04-.07-.08-.05-.43-.33-3.06.43-4.08.07-.1.17-.13.32-.11.58.07 2.3.53 3.59 1.37.04.02.06.06.05.11-.07.4-.43 2.6-.08 5.16.01.11-.1.18-.18.11ZM226.78 181.33c.66-.35 11.73-6.55-.41-23.2-.02-.03-.07 0-.06.03.35 1 1.67 5.2.54 8.78-.04.12-2.75 7.39-.11 14.38 0 .02.03.03.04.02ZM223.31 128.95c.16-1.31 1.19-7.61 5.97-10.55.08-.05.08-.16 0-.2-1.7-.93-15.16-7.78-17.33 7.88-.01.09.06.16.14.14 1.07-.26 6.92-1.43 11.02 2.79.07.07.19.04.2-.06Z" class="cls-2"/><circle cx="211.54" cy="114.66" r="1.41" class="cls-2"/><circle cx="214.66" cy="109.66" r="1.41" class="cls-2"/><circle cx="220.21" cy="110.36" r="1.41" class="cls-2"/><path d="M215.95 109.77h.74v7.24h-.74z" class="cls-2" transform="rotate(-24.01 216.365 113.398)"/><path d="M220.05 110.52h.74v7.24h-.74z" class="cls-2" transform="rotate(-3.3 220.634 114.235)"/><path d="M214.04 114.04h.74v7.24h-.74z" class="cls-2" transform="rotate(-45.15 214.413 117.663)"/><path d="M231.93 148.95s-.03.06-.05.03c-.96-1.71-8.06-14.91.74-17.68.89-.28 3.53-1.24 7.89 1.04.03.02.02.07 0 .06-1.57-.2-13.21-1.14-8.57 16.55ZM224.55 146.74s0 .03-.01.03c-.39.06-8.03 1.12-7.74-11.81 0-.2.27-3.1-4.62-6.2-.03-.02-.02-.06 0-.05 1.28.28 11.57 2.96 12.37 18.04Z" class="cls-2"/><path d="M223.5 131.52s-.43 15 6.92 22.23c.95.94 5.5 4.29 7.54 9.94l3.07 7.04s.49-11.5-5.84-16.21c-4.27-3.17-7.86-7.85-11.69-23.01ZM296.77 163.95s-10.84-.1-14.59-6.27c-1.1-1.81-1.25-10.36-4.61-15.31 0 0-3.21-4.23-5.82-5.71-.05-.03-.03-.09.03-.08 2.06.43 15.49 3.83 16.36 18.91.07 1.16 1.67 3.98 8.63 8.46M268.45 148.01s-.02.05-.03.03c-.75-1.17-8.89-14.3-2.25-26.11.98-1.75 2.85-8.22-.82-13.18-.01-.02 0-.05.02-.03.89.55 9.05 6.05 2.47 18.94-.93 1.82-2.04 7.99.61 20.36ZM275.18 164.08c.07.03.09.11.04.17-.95.97-17.53 16.24-27.36-3.75 0 0 6.89 6.06 18.3 3.59 3.97-.86 7-.78 9.03 0ZM253.9 141.35c.09-1.15 1.78-25.82-19.51-27.5-.04 0-.06.06-.02.07 1.97.43 8.62 2.34 9.79 8.78.47 2.61.94 14.8 9.7 18.68.02 0 .04 0 .04-.02Z" class="cls-2"/><path d="M303.85 167.54c.06 0 .06.1 0 .09-4.62-.27-50.05-.15-48.02-43.85 0-.06.1-.07.11-.01 1.19 30.17 28.94 41.04 47.91 43.76Z" class="cls-2"/><path d="M268.28 159.09s.02.03 0 .04c-.63.35-13.11 6.97-19.91-9.7-.59-1.45-1.76-6.02-8.89-12.08-.02-.02-.02-.05 0-.05 1.11.27 12.46 3.19 18.04 12.61 2.82 4.76 7.57 6.08 10.76 9.17ZM300.98 160.97s-13.99-23.58 13.68-28.23c1.15-.19 3.47-.19 7.09-3.26 0 0-.75 3.28-5.5 5.3-1.79.76-12.24 7.38-15.28 26.2M294.03 133.5s3.26-11.87 9.05-12.6c2.17-.28 10.19 1.41 16.13-.82 0 0 5.01-2.19 6.96-4.4.02-.02.04-.01.04.01-.28 1.23-4.27 17.5-21.12 11.5-1.14-.41-3.23-1.15-11.06 6.32M300.8 111.7c-.06.03-.12-.03-.08-.08.81-1.39 6.79-10.74 18.17-5.57 0 0 5.87 2.63 9.71-2.16.03-.04.11-.05.13 0 .27.98-3.68 8.42-12.94 4.83-.68-.26-5.04-1.78-14.98 2.98ZM287.64 134.45c.05.08 0 .18-.09.16-1.62-.33-10.84-2.73-11.72-14.22 0 0-.76-5.96-.05-10.1 0-.05.09-.06.1 0 .23 1.11-.14 6.61 4.47 12.14 2.87 3.44 4.09 7.62 7.28 12.01ZM293.99 104.82c0 .05.06.09.11.06.94-.49 23.54-14.86 11.93-31.26-.05-.06-.16-.01-.14.06.42 1.77 2.2 10.18-1.36 12.75 0 0-12.26 7.92-10.54 18.39ZM314.94 94.07c1.03-1.48 4.77-7.61-.05-12.86-.09-.09-.06-.25.07-.28 1.07-.31 5.2-1.21 6.76 2.67.03.07.09.12.16.11.98-.07 7.68-.34 4.43 6.53-.04.09 0 .2.09.24.96.38 5.53 2.47 2.54 7.04-.07.1-.22.12-.29.02-.67-.95-3.99-4.71-13.52-3.21-.15.02-.27-.14-.18-.26Z" class="cls-2"/><path d="M300.98 160.97s-10.96-15.11-10.52-35.85c.07-3.32 1.56-19.27 19.83-28.44.07-.04.16.06.09.11-2.72 2.3-16.04 14.17-16.36 27.15 0 .19-1.65 19.65 6.96 37.03ZM288.16 125.8c-.01.09-.13.11-.16.03-.81-2.19-9.15-10.6-3.01-21.17 1.07-1.84 4.1-5.37 5.26-13.37.01-.07.12-.08.12 0 0 2.24 2.24 9.16-.52 16.62-1.59 4.29-.84 11.82-1.68 17.9ZM314.93 79.63s1.83-1.15 4.13 0c0 0 3.05-18.84-.61-21.73 0 0-7.11 8.3-3.52 21.73ZM320.32 80s2.09.09 2.8 2.16c0 0 11.15-14.78 10.82-28.33 0 0-12.58 5.68-13.63 26.18ZM323.88 82.47s3.89.2 4.44 3.06c0 0 14.59-8.18 21.03-23.25 0 0-13.05 2.56-25.47 20.19ZM328.61 86.84s.13 1.15-.53 2.79c0 0 1.74.6 2.43 1.77 0 0 18.24-1.85 25.64-11.3 0 0-10-3.81-27.54 6.73ZM331.18 92.32s1.81 3.24-1.01 5.66c0 0 19.21.02 21.63-3.57 0 0-1.78-3.61-20.62-2.09ZM358.55 51.47c-1.23-.49-7.31-2.65-12.22.13-.08.05-.18 0-.18-.1 0-1.95.51-17.18 15.39-11.47.08.03.11.13.06.2-.75.82-4.63 5.41-2.91 11.09.03.1-.05.19-.15.15Z" class="cls-2"/><circle cx="351.66" cy="34.12" r="1.42" class="cls-2"/><circle cx="345.73" cy="34.45" r="1.42" class="cls-2"/><circle cx="343.65" cy="39.68" r="1.42" class="cls-2"/><path d="M347.84 34.08h.75v7.3h-.75z" class="cls-2" transform="rotate(142.88 348.224 37.749)"/><path d="M346.51 38.07h.75v7.3h-.75z" class="cls-2" transform="rotate(122.17 346.89 41.732)"/><path d="M352.55 34.47h.75v7.3h-.75z" class="cls-2" transform="rotate(164.02 352.921 38.121)"/><path d="M372.02 68.82s.07 0 .05-.03c-1.04-1.68-9.24-14.37-15.97-7.95-.68.65-2.81 2.51-2.92 7.47 0 .03.05.05.06.02.58-1.49 5.42-12.22 18.79.49ZM373.66 61.23s.02.01.03 0c.24-.31 4.9-6.55-6.66-12.59-.18-.09-2.87-1.27-3.23-7.1 0-.03-.04-.05-.05-.02-.38 1.26-3.02 11.66 9.91 19.71Z" class="cls-2"/><path d="M360.73 52.89s13.45 6.92 16.26 16.94c.36 1.3 1.11 6.94 5.11 11.5l4.73 6.14s-10.39-5.17-11.47-13.05c-.72-5.31-3.11-10.76-14.63-21.53ZM349.06 124.82s-4.17-.6-5.67-8.33c0 0-1.37-6.99 1.15-11.68.02-.04.08-.02.08.02-.03.56.2 2.12 2.92 5.12 0 0 10.58 8.66 1.52 14.86Z" class="cls-2"/><path d="M348.08 125.36c-.88-.33-5.21-2.37-6.11-10.65 0-.02 0-.03-.02-.04-.32-.26-4.77-3.92-8.25-3.7-.06 0-.09.09-.03.13.6.35 2.35 1.72 2.95 5.95 0 0 2.45 12.37 11.45 8.44.05-.02.06-.1 0-.13ZM342.13 113.7c-.64-.51-2.51-1.94-4.08-2.49-.04-.01-.06-.04-.07-.08-.05-.43-.33-3.08.43-4.12.07-.1.18-.13.32-.11.58.07 2.32.53 3.62 1.38.04.02.06.06.05.11-.07.41-.44 2.62-.08 5.2.01.11-.1.18-.19.11ZM349.52 126.9c.29 1.57.88 7.25 10.03 15.38.05.05 12.79 9.84 12.32 18.47 0 .06.08.08.11.03.38-.79 1.71-4.1-.61-8.43 0 0-2.09-4.82-12.29-13.16-1.15-.94-6.92-6.29-9.45-12.32-.03-.06-.12-.04-.11.03ZM354.43 138.32c-.77.48-9.64 5.54-16.99-9.41-.03-.06.05-.13.1-.08.91 1 3.74 3.83 6.61 3.72.09 0 5.75.03 10.29 5.68.02.03.02.07 0 .09ZM355.53 133.11c.67-.35 11.83-6.6-.41-23.39-.02-.03-.07 0-.06.03.35 1.01 1.68 5.24.54 8.85-.04.12-2.77 7.45-.11 14.5 0 .02.03.03.04.02ZM330.08 148.79c1.02-1.52 3.9-3.33 3.9-3.33-.08-10.01-1.6-11.63-1.6-11.63-2.09 1.16-5.24 10.29-5.24 10.29 2.02 1.92 2.94 4.67 2.94 4.67ZM335.4 155.48c2.25 1.99 3.76 5.11 3.76 5.11 9.51-.07 11.5-1.59 11.5-1.59-2.72-3-11.81-5.64-11.81-5.64-1.15 1.14-3.45 2.12-3.45 2.12ZM328.18 160.2c-2.16 2.35-4.49 3.5-4.49 3.5-.35 3.33.29 8.71.29 8.71.4 3.51 1.22 4.66 1.22 4.66 1.22-.75 2.61-3.94 2.61-3.94 1.96-3.5 3.19-8.47 3.19-8.47-1.51-1.53-2.82-4.47-2.82-4.47ZM322.83 153.37c-1.38-1.31-2.59-3.09-2.59-3.09-9.91-.41-13.14 1.5-13.14 1.5 2.57 2.85 10.6 5.26 10.6 5.26 2.82-2.85 5.13-3.67 5.13-3.67ZM330.47 149.76l-.03.07c.1.62.15 1.42.14 2.06 1.01-.58 2.89-1.27 3.08-1 .19.27-1.18 1.95-2.05 2.68.92.24 2.36.87 2.8 1.27l.22-.09c3.28-1.04 5.99-4.22 5.99-4.22 5.85-6.04 6.32-8.65 6.32-8.65-1.68-.7-10.22 3.19-10.22 3.19-4.79 2.17-6.25 4.69-6.25 4.69ZM323.67 152.87l.44.29c.52-.24 2.17-.39 3.14-.31-.59-.97-1.35-3-1.07-3.2.25-.18 1.69.97 2.49 1.83l.69-1.76-.13-.59c-1.26-3.44-4.65-6.37-4.65-6.37-6.61-6.07-8.26-5.98-8.26-5.98-.32 2.9 3.24 10.26 3.24 10.26 1.55 3.73 4.11 5.83 4.11 5.83ZM326.46 160.69c.67-.6 1.3-1.3 1.64-1.71-.18-.72-.28-2.07-.2-2.88-1.03.56-2.76 1.18-2.94.92-.16-.23.81-1.49 1.64-2.31-.68-.21-1.53-.57-2.09-.89l-.2.05h-.03l-.27.07c-3.93 1.11-8.23 6.47-8.23 6.47-4.94 5.7-4.42 6.58-4.42 6.58 2.54.38 9.21-2.8 9.21-2.8 3.07-1.33 4.86-2.59 5.89-3.51ZM333.79 155.37c-.61.11-1.48.18-2.17.17.53 1.04 1.05 2.55.81 2.72-.25.18-1.77-1.03-2.55-1.89-.17.76-.68 2-1.09 2.66.59 2.64 3.37 5.57 3.37 5.57 7.12 7.06 9.78 7.47 9.78 7.47.47-2.91-3.74-11.25-3.74-11.25-1.87-3.73-3.98-5.18-4.41-5.45ZM373.37 99.8c-2.67 1.89-5.26 2.53-5.26 2.53-1.07 3.26-1.59 8.79-1.59 8.79-.36 3.61.21 4.94.21 4.94 1.39-.49 3.47-3.38 3.47-3.38 2.72-3.08 5.03-7.79 5.03-7.79-1.19-1.86-1.86-5.09-1.86-5.09ZM369.48 91.8c-1.09-1.61-1.92-3.66-1.92-3.66-9.84-2.56-13.49-1.34-13.49-1.34 1.96 3.41 9.48 7.57 9.48 7.57 3.44-2.24 5.93-2.57 5.93-2.57ZM370.43 91.48l.38.39c.58-.13 2.26.08 3.21.37-.38-1.1-.7-3.3-.38-3.44.28-.12 1.49 1.34 2.1 2.38l1.08-1.61v-.62c-.52-3.72-3.28-7.39-3.28-7.39-5.31-7.52-6.98-7.78-6.98-7.78-.95 2.84 1.02 10.98 1.02 10.98.75 4.07 2.85 6.73 2.85 6.73ZM371.54 99.92c.8-.46 1.58-1.03 2.02-1.36-.02-.76.17-2.14.42-2.93-1.16.34-3.02.59-3.15.29-.11-.26 1.13-1.31 2.14-1.96-.64-.36-1.41-.9-1.9-1.34h-.53v.02c-4.17.25-9.65 4.69-9.65 4.69-6.19 4.64-5.86 5.64-5.86 5.64 2.47.93 9.84-.81 9.84-.81 3.36-.67 5.43-1.54 6.66-2.24ZM380.03 96.17c-.64-.02-1.52-.14-2.21-.3.3 1.16.5 2.78.22 2.9-.29.13-1.55-1.41-2.15-2.45-.34.73-1.11 1.86-1.67 2.43.02 2.78 2.17 6.32 2.17 6.32 5.61 8.62 8.18 9.61 8.18 9.61 1.1-2.81-1.31-12.08-1.31-12.08-1.06-4.14-2.86-6.05-3.24-6.41ZM377.27 157.45s.02.02.04.01c.52-.51 10.44-10.73-3.79-22.01-1.23-.98-5.33-3.4-9.19-12.01-.01-.02-.05-.03-.05 0-.05 1.15-.42 12.97 7.14 21.02 3.82 4.07 3.75 9.04 5.85 13ZM369.34 173.2v.03c-.53.12-10.97 2.35-12.46-11.17-.13-1.17-.03-4.74-3.96-10.62-.01-.02 0-.04.02-.03.75.42 8.39 4.9 10.49 12.9 1.06 4.04 4.24 5.98 5.91 8.89Z" class="cls-2"/><path d="M368.08 169.13c.17-.61 3.8-13.87-7.61-17.12-.02 0-.04.02-.02.03 1.03.45 4.44 2.22 4.37 5.86-.03 1.47-1.11 8.17 3.23 11.24h.03ZM379.25 35.89c.07.04.06.14-.01.16-1.38.3-9.38 1.63-14.03-6.99 0 0-2.66-4.37-3.54-7.84-.01-.04.05-.08.07-.04.56.78 2.18 5.19 7.68 7.89 3.43 1.68 5.82 4.5 9.82 6.82ZM376.66 28.99c.02.07-.07.13-.12.08-1.39-1.42-10.78-5.07-9.67-15.42.19-1.8 1.33-5.59-.54-12.22-.02-.06.06-.11.09-.05.77 1.75 4.92 6.35 5.35 13.1.25 3.89 3.44 9.48 4.89 14.5ZM154.45 173s4.13-.59 5.62-8.26c0 0 1.36-6.94-1.14-11.58-.02-.04-.08-.02-.08.02.03.55-.2 2.1-2.9 5.08 0 0-10.49 8.59-1.5 14.74Z" class="cls-2"/><path d="M155.42 173.54c.87-.33 5.17-2.35 6.06-10.56 0-.01 0-.03.02-.04.31-.26 4.73-3.88 8.18-3.67.06 0 .09.09.03.13-.6.35-2.33 1.7-2.93 5.91 0 0-2.43 12.27-11.36 8.37-.05-.02-.06-.1 0-.12ZM161.32 161.98c.64-.51 2.48-1.92 4.05-2.47.04-.01.06-.04.07-.08.05-.43.33-3.06-.43-4.08-.07-.1-.17-.13-.32-.11-.58.07-2.3.53-3.59 1.37-.04.02-.06.06-.05.11.07.4.43 2.6.08 5.16-.01.11.1.18.18.11ZM148.04 181.23c-.66-.35-11.73-6.55.41-23.2.02-.03.07 0 .06.03-.35 1-1.67 5.2-.54 8.78.04.12 2.75 7.39.11 14.38 0 .02-.03.03-.04.02ZM151.51 128.85c-.16-1.31-1.19-7.61-5.97-10.55-.08-.05-.08-.16 0-.2 1.7-.93 15.16-7.78 17.33 7.88.01.09-.06.16-.14.14-1.07-.26-6.92-1.43-11.02 2.79-.07.07-.19.04-.2-.06Z" class="cls-2"/><circle cx="163.28" cy="114.55" r="1.41" class="cls-2"/><circle cx="160.16" cy="109.56" r="1.41" class="cls-2"/><circle cx="154.62" cy="110.25" r="1.41" class="cls-2"/><path d="M158.13 109.67h.74v7.24h-.74z" class="cls-2" transform="rotate(-155.99 158.493 113.302)"/><path d="M154.02 110.42h.74v7.24h-.74z" class="cls-2" transform="rotate(-176.7 154.395 114.046)"/><path d="M160.04 113.94h.74v7.24h-.74z" class="cls-2" transform="rotate(-134.85 160.414 117.562)"/><path d="M142.9 148.85s.03.06.05.03c.96-1.71 8.06-14.91-.74-17.68-.89-.28-3.53-1.24-7.89 1.04-.03.02-.02.07 0 .06 1.57-.2 13.21-1.14 8.57 16.55ZM150.28 146.63s0 .03.01.03c.39.06 8.03 1.12 7.74-11.81 0-.2-.27-3.1 4.62-6.2.03-.02.02-.06 0-.05-1.28.28-11.57 2.96-12.37 18.04Z" class="cls-2"/><path d="M151.32 131.42s.43 15-6.92 22.23c-.95.94-5.5 4.29-7.54 9.94l-3.07 7.04s-.49-11.5 5.84-16.21c4.27-3.17 7.86-7.85 11.69-23.01ZM78.06 163.84s10.84-.1 14.59-6.27c1.1-1.81 1.25-10.36 4.61-15.31 0 0 3.21-4.23 5.82-5.71.05-.03.03-.09-.03-.08-2.06.43-15.49 3.83-16.36 18.91-.07 1.16-1.67 3.98-8.63 8.46M106.37 147.91s.02.05.03.03c.75-1.17 8.89-14.3 2.25-26.11-.98-1.75-2.85-8.22.82-13.18.01-.02 0-.05-.02-.03-.89.55-9.05 6.05-2.47 18.94.93 1.82 2.04 7.99-.61 20.36ZM99.64 163.98c-.07.03-.09.11-.04.17.95.97 17.53 16.24 27.36-3.75 0 0-6.89 6.06-18.3 3.59-3.97-.86-7-.78-9.03 0ZM120.93 141.24c-.09-1.15-1.78-25.82 19.51-27.5.04 0 .06.06.02.07-1.97.43-8.62 2.34-9.79 8.78-.47 2.61-.94 14.8-9.7 18.68-.02 0-.04 0-.04-.02Z" class="cls-2"/><path d="M70.98 167.44c-.06 0-.06.1 0 .09 4.62-.27 50.05-.15 48.02-43.85 0-.06-.1-.07-.11-.01-1.19 30.17-28.94 41.04-47.91 43.76Z" class="cls-2"/><path d="M106.54 158.99s-.02.03 0 .04c.63.35 13.11 6.97 19.91-9.7.59-1.45 1.76-6.02 8.89-12.08.02-.02.02-.05 0-.05-1.11.27-12.46 3.19-18.04 12.61-2.82 4.76-7.57 6.08-10.76 9.17ZM73.84 160.87s13.99-23.58-13.68-28.23c-1.15-.19-3.47-.19-7.09-3.26 0 0 .75 3.28 5.5 5.3 1.79.76 12.24 7.38 15.28 26.2M80.8 133.4s-3.26-11.87-9.05-12.6c-2.17-.28-10.19 1.41-16.13-.82 0 0-5.01-2.19-6.96-4.4-.02-.02-.04-.01-.04.01.28 1.23 4.27 17.5 21.12 11.5 1.14-.41 3.23-1.15 11.06 6.32M74.03 111.59c.06.03.12-.03.08-.08-.81-1.39-6.79-10.74-18.17-5.57 0 0-5.87 2.63-9.71-2.16-.03-.04-.11-.05-.13 0-.27.98 3.68 8.42 12.94 4.83.68-.26 5.04-1.78 14.98 2.98ZM87.18 134.34c-.05.08 0 .18.09.16 1.62-.33 10.84-2.73 11.72-14.22 0 0 .76-5.96.05-10.1 0-.05-.09-.06-.1 0-.23 1.11.14 6.61-4.47 12.14-2.87 3.44-4.09 7.62-7.28 12.01ZM80.83 104.72c0 .05-.06.09-.11.06-.94-.49-23.54-14.86-11.93-31.26.05-.06.16-.01.14.06-.42 1.77-2.2 10.18 1.36 12.75 0 0 12.26 7.92 10.54 18.39ZM59.88 93.97c-1.03-1.48-4.77-7.61.05-12.86.09-.09.06-.25-.07-.28-1.07-.31-5.2-1.21-6.76 2.67-.03.07-.09.12-.16.11-.98-.07-7.68-.34-4.43 6.53.04.09 0 .2-.09.24-.96.38-5.53 2.47-2.54 7.04.07.1.22.12.29.02.67-.95 3.99-4.71 13.52-3.21.15.02.27-.14.18-.26Z" class="cls-2"/><path d="M73.84 160.87s10.96-15.11 10.52-35.85c-.07-3.32-1.56-19.27-19.83-28.44-.07-.04-.16.06-.09.11 2.72 2.3 16.04 14.17 16.36 27.15 0 .19 1.65 19.65-6.96 37.03ZM86.66 125.69c.01.09.13.11.16.03.81-2.19 9.15-10.6 3.01-21.17-1.07-1.84-4.1-5.37-5.26-13.37-.01-.07-.12-.08-.12 0 0 2.24-2.24 9.16.52 16.62 1.59 4.29.84 11.82 1.68 17.9ZM59.89 79.53s-1.83-1.15-4.13 0c0 0-3.05-18.84.61-21.73 0 0 7.11 8.3 3.52 21.73ZM54.5 79.9s-2.09.09-2.8 2.16c0 0-11.15-14.78-10.82-28.33 0 0 12.58 5.68 13.63 26.18ZM50.94 82.37s-3.89.2-4.44 3.06c0 0-14.59-8.18-21.03-23.25 0 0 13.05 2.56 25.47 20.19ZM46.21 86.73s-.13 1.15.53 2.79c0 0-1.74.6-2.43 1.77 0 0-18.24-1.85-25.64-11.3 0 0 10-3.81 27.54 6.73ZM43.64 92.22s-1.81 3.24 1.01 5.66c0 0-19.21.02-21.63-3.57 0 0 1.78-3.61 20.62-2.09ZM16.27 51.37c1.23-.49 7.31-2.65 12.22.13.08.05.18 0 .18-.1 0-1.95-.51-17.18-15.39-11.47-.08.03-.11.13-.06.2.75.82 4.63 5.41 2.91 11.09-.03.1.05.19.15.15Z" class="cls-2"/><circle cx="23.16" cy="34.02" r="1.42" class="cls-2"/><circle cx="29.09" cy="34.34" r="1.42" class="cls-2"/><circle cx="31.18" cy="39.58" r="1.42" class="cls-2"/><path d="M26.23 33.98h.75v7.3h-.75z" class="cls-2" transform="rotate(37.12 26.604 37.63)"/><path d="M27.57 37.96h.75v7.3h-.75z" class="cls-2" transform="rotate(57.83 27.938 41.617)"/><path d="M21.53 34.37h.75v7.3h-.75z" class="cls-2" transform="rotate(15.98 21.899 38.008)"/><path d="M2.8 68.72s-.07 0-.05-.03c1.04-1.68 9.24-14.37 15.97-7.95.68.65 2.81 2.51 2.92 7.47 0 .03-.05.05-.06.02-.58-1.49-5.42-12.22-18.79.49ZM1.17 61.12s-.02.01-.03 0c-.24-.31-4.9-6.55 6.66-12.59.18-.09 2.87-1.27 3.23-7.1 0-.03.04-.05.05-.02.38 1.26 3.02 11.66-9.91 19.71Z" class="cls-2"/><path d="M14.09 52.79S.64 59.72-2.17 69.73c-.36 1.3-1.11 6.94-5.11 11.5l-4.73 6.14S-1.61 82.2-.54 74.32c.72-5.31 3.11-10.76 14.63-21.53ZM25.76 124.71s4.17-.6 5.67-8.33c0 0 1.37-6.99-1.15-11.68-.02-.04-.08-.02-.08.02.03.56-.2 2.12-2.92 5.12 0 0-10.58 8.66-1.52 14.86Z" class="cls-2"/><path d="M26.74 125.26c.88-.33 5.21-2.37 6.11-10.65 0-.02 0-.03.02-.04.32-.26 4.77-3.92 8.25-3.7.06 0 .09.09.03.13-.6.35-2.35 1.72-2.95 5.95 0 0-2.45 12.37-11.45 8.44-.05-.02-.06-.1 0-.13ZM32.69 113.59c.64-.51 2.51-1.94 4.08-2.49.04-.01.06-.04.07-.08.05-.43.33-3.08-.43-4.12-.07-.1-.18-.13-.32-.11-.58.07-2.32.53-3.62 1.38-.04.02-.06.06-.05.11.07.41.44 2.62.08 5.2-.01.11.1.18.19.11ZM25.3 126.79c-.29 1.57-.88 7.25-10.03 15.38-.05.05-12.79 9.84-12.32 18.47 0 .06-.08.08-.11.03-.38-.79-1.71-4.1.61-8.43 0 0 2.09-4.82 12.29-13.16 1.15-.94 6.92-6.29 9.45-12.32.03-.06.12-.04.11.03ZM20.4 138.22c.77.48 9.64 5.54 16.99-9.41.03-.06-.05-.13-.1-.08-.91 1-3.74 3.83-6.61 3.72-.09 0-5.75.03-10.29 5.68-.02.03-.02.07 0 .09ZM19.3 133.01c-.67-.35-11.83-6.6.41-23.39.02-.03.07 0 .06.03-.35 1.01-1.68 5.24-.54 8.85.04.12 2.77 7.45.11 14.5 0 .02-.03.03-.04.02Z" class="cls-2"/><g><path d="M44.75 148.68c-1.02-1.52-3.9-3.33-3.9-3.33.08-10.01 1.6-11.63 1.6-11.63 2.09 1.16 5.24 10.29 5.24 10.29-2.02 1.92-2.94 4.67-2.94 4.67ZM39.43 155.38c-2.25 1.99-3.76 5.11-3.76 5.11-9.51-.07-11.5-1.59-11.5-1.59 2.72-3 11.81-5.64 11.81-5.64 1.15 1.14 3.45 2.12 3.45 2.12ZM46.64 160.1c2.16 2.35 4.49 3.5 4.49 3.5.35 3.33-.29 8.71-.29 8.71-.4 3.51-1.22 4.66-1.22 4.66-1.22-.75-2.61-3.94-2.61-3.94-1.96-3.5-3.19-8.47-3.19-8.47 1.51-1.53 2.82-4.47 2.82-4.47ZM52 153.27c1.38-1.31 2.59-3.09 2.59-3.09 9.91-.41 13.14 1.5 13.14 1.5-2.57 2.85-10.6 5.26-10.6 5.26-2.82-2.85-5.13-3.67-5.13-3.67ZM44.36 149.66l.03.07c-.1.62-.15 1.42-.14 2.06-1.01-.58-2.89-1.27-3.08-1-.19.27 1.18 1.95 2.05 2.68-.92.24-2.36.87-2.8 1.27l-.22-.09c-3.28-1.04-5.99-4.22-5.99-4.22-5.85-6.04-6.32-8.65-6.32-8.65 1.68-.7 10.22 3.19 10.22 3.19 4.79 2.17 6.25 4.69 6.25 4.69ZM51.15 152.77l-.44.29c-.52-.24-2.17-.39-3.14-.31.59-.97 1.35-3 1.07-3.2-.25-.18-1.69.97-2.49 1.83l-.69-1.76.13-.59c1.26-3.44 4.65-6.37 4.65-6.37 6.61-6.07 8.26-5.98 8.26-5.98.32 2.9-3.24 10.26-3.24 10.26-1.55 3.73-4.11 5.83-4.11 5.83ZM48.36 160.58c-.67-.6-1.3-1.3-1.64-1.71.18-.72.28-2.07.2-2.88 1.03.56 2.76 1.18 2.94.92.16-.23-.81-1.49-1.64-2.31.68-.21 1.53-.57 2.09-.89l.2.05h.03l.27.07c3.93 1.11 8.23 6.47 8.23 6.47 4.94 5.7 4.42 6.58 4.42 6.58-2.54.38-9.21-2.8-9.21-2.8-3.07-1.33-4.86-2.59-5.89-3.51ZM41.04 155.26c.61.11 1.48.18 2.17.17-.53 1.04-1.05 2.55-.81 2.72.25.18 1.77-1.03 2.55-1.89.17.76.68 2 1.09 2.66-.59 2.64-3.37 5.57-3.37 5.57-7.12 7.06-9.78 7.47-9.78 7.47-.47-2.91 3.74-11.25 3.74-11.25 1.87-3.73 3.98-5.18 4.41-5.45Z" class="cls-2"/></g><g><path d="M1.45 99.7c2.67 1.89 5.26 2.53 5.26 2.53 1.07 3.26 1.59 8.79 1.59 8.79.36 3.61-.21 4.94-.21 4.94-1.39-.49-3.47-3.38-3.47-3.38-2.72-3.08-5.03-7.79-5.03-7.79 1.19-1.86 1.86-5.09 1.86-5.09ZM5.34 91.7c1.09-1.61 1.92-3.66 1.92-3.66 9.84-2.56 13.49-1.34 13.49-1.34-1.96 3.41-9.48 7.57-9.48 7.57-3.44-2.24-5.93-2.57-5.93-2.57ZM4.39 91.38l-.38.39c-.58-.13-2.26.08-3.21.37.38-1.1.7-3.3.38-3.44-.28-.12-1.49 1.34-2.1 2.38L-2 89.47v-.62c.52-3.72 3.28-7.39 3.28-7.39 5.31-7.52 6.98-7.78 6.98-7.78.95 2.84-1.02 10.98-1.02 10.98-.75 4.07-2.85 6.73-2.85 6.73ZM3.29 99.81c-.8-.46-1.58-1.03-2.02-1.36.02-.76-.17-2.14-.42-2.93 1.16.34 3.02.59 3.15.29.11-.26-1.13-1.31-2.14-1.96.64-.36 1.41-.9 1.9-1.34h.53v.02c4.17.25 9.65 4.69 9.65 4.69 6.19 4.64 5.86 5.64 5.86 5.64-2.47.93-9.84-.81-9.84-.81-3.36-.67-5.43-1.54-6.66-2.24ZM-5.2 96.07c.64-.02 1.52-.14 2.21-.3-.3 1.16-.5 2.78-.22 2.9.29.13 1.55-1.41 2.15-2.45.34.73 1.11 1.86 1.67 2.43-.02 2.78-2.17 6.32-2.17 6.32-5.61 8.62-8.18 9.61-8.18 9.61-1.1-2.81 1.31-12.08 1.31-12.08 1.06-4.14 2.86-6.05 3.24-6.41Z" class="cls-2"/></g><path d="M-2.45 157.35s-.02.02-.04.01c-.52-.51-10.44-10.73 3.79-22.01 1.23-.98 5.33-3.4 9.19-12.01.01-.02.05-.03.05 0 .05 1.15.42 12.97-7.14 21.02-3.82 4.07-3.75 9.04-5.85 13ZM5.48 173.1v.03c.53.12 10.97 2.35 12.46-11.17.13-1.17.03-4.74 3.96-10.62.01-.02 0-.04-.02-.03-.75.42-8.39 4.9-10.49 12.9-1.06 4.04-4.24 5.98-5.91 8.89Z" class="cls-2"/><path d="M6.74 169.03c-.17-.61-3.8-13.87 7.61-17.12.02 0 .04.02.02.03-1.03.45-4.44 2.22-4.37 5.86.03 1.47 1.11 8.17-3.23 11.24h-.03ZM-4.43 35.79c-.07.04-.06.14.01.16 1.38.3 9.38 1.63 14.03-6.99 0 0 2.66-4.37 3.54-7.84.01-.04-.05-.08-.07-.04-.56.78-2.18 5.19-7.68 7.89-3.43 1.68-5.82 4.5-9.82 6.82ZM-1.83 28.89c-.02.07.07.13.12.08 1.39-1.42 10.78-5.07 9.67-15.42-.19-1.8-1.33-5.59.54-12.22.02-.06-.06-.11-.09-.05-.77 1.75-4.92 6.35-5.35 13.1-.25 3.89-3.44 9.48-4.89 14.5Z" class="cls-2"/></g></svg>