<svg xmlns="http://www.w3.org/2000/svg" width="768" height="167"><defs><style>.cls-2{fill:#a7bd9f}</style></defs><path id="Layer_3" d="m759.14 0 .13 15.22-5.62 3.69 4.3 7.31-6 2.51-13.46-1.1-3.56 13.47 3.45 4.09 1.09 4.38-3.28 2.05-2.07-4.41-12.74 6.61-7.57-4.02-6.97 18.96-8.64 2.27 1.84 9.59-8.51 7.16-4.87-4.28-10.37 20.35h-5.41l-2.07-3.45-13.82-3.36-10.61 3.36v13.16l-4.01-1.79-2.13 7.23-4.24-1.27v-5.96l-13.02-4.79-7.08 10.58-3.48-2.33 1.64-14.83-10.97-3.36-3.36-9.02h-7.14l-3.73 11.55-7.2-7.78-10.29 2.46 3.84 13.9-5.96-3.42-8.73 4.21 4.5 10.2-6.86 8.39 19.72 10.68-2.67 9.84-10.19-5.47-8.51-11.06-21.7-6.78-8.71-4.35-2.85-21.52-5.18-1.83-3.62 5.74-7.47-10.05-5.9 1.52-2.98 10.98-12.59-6.84-4.48 4.39 4.48 13.03-9.67-1.15-9.05-14.26-8.4 5.66 1.66 8.49-1.66 5.53-24.3-14.02-7.32 2.88v-4.27l-15.32-4.27-8.97 8.21-11.91.16-20.15-.26-8.97-8.22-15.31 4.27v4.28l-7.33-2.89-24.29 14.02-1.67-5.52 1.67-8.5-8.41-5.66-9.05 14.26-9.67 1.15 4.48-13.02-4.48-4.39-12.59 6.84-2.98-10.99-5.89-1.51-7.47 10.05-3.62-5.75-5.19 1.83-2.84 21.52-8.72 4.35-21.7 6.78-8.51 11.06-10.19 5.47-2.66-9.84 19.71-10.68-6.86-8.38 4.5-10.2-8.72-4.21-5.97 3.41 3.84-13.9-10.29-2.46-7.2 7.79-3.73-11.56h-7.14l-3.36 9.02-10.97 3.36 1.64 14.83-3.48 2.34-7.08-10.58-13.02 4.78v5.97l-4.24 1.26-2.12-7.23-4.01 1.8v-13.17l-10.62-3.36-13.82 3.36-2.07 3.45h-5.41L82.24 83.39l-4.87 4.28-8.51-7.16 1.84-9.58-8.64-2.27L55.1 49.7l-7.58 4.02-12.74-6.62-2.07 4.42-3.28-2.06 1.09-4.37L33.97 41l-3.56-13.47-13.46 1.1-5.99-2.52 4.29-7.31-5.62-3.69.14-15.22H1.29v-1.72h-3.75v175.29h3.75v-6.54l373.52-.17v.1l393.17.18V0h-8.84z" style="fill:#fdfdfa; filter: blur(3px); opacity: 0.85; transform: translateY(3px);"/><g id="Layer_2"><path d="M387 132.67c1.59-1.39 5.33-2.56 5.33-2.56 2.87-11.18 1.66-13.43 1.66-13.43-2.67.67-8.88 9.91-8.88 9.91 1.68 2.74 1.89 6.07 1.89 6.07ZM390.95 141.71c1.91 2.89 2.68 6.81 2.68 6.81 10.62 2.73 13.29 1.62 13.29 1.62-2.14-4.14-11.49-9.78-11.49-9.78-1.61.93-4.47 1.34-4.47 1.34ZM381.52 144.83c-3.1 1.98-6.04 2.57-6.04 2.57-1.37 3.61-2.25 9.79-2.25 9.79-.59 4.03-.02 5.56-.02 5.56 1.58-.48 4.08-3.62 4.08-3.62 3.21-3.32 6.05-8.49 6.05-8.49-1.24-2.15-1.83-5.81-1.83-5.81ZM377.57 135.64c-1.14-1.87-1.97-4.21-1.97-4.21-10.92-3.39-15.09-2.21-15.09-2.21 2.02 3.93 10.26 8.99 10.26 8.99 3.98-2.34 6.8-2.57 6.8-2.57ZM387.15 133.87l-.05.07c-.07.72-.25 1.63-.46 2.33 1.3-.34 3.59-.56 3.73-.2.13.35-1.89 1.83-3.07 2.39.96.54 2.37 1.67 2.75 2.24l.27-.04c3.97-.19 7.92-2.93 7.92-2.93 8.3-5 9.6-7.77 9.6-7.77-1.67-1.27-12.34.54-12.34.54-5.98 1.01-8.35 3.38-8.35 3.38ZM378.66 135.33l.41.45c.65-.12 2.54.21 3.59.58-.37-1.26-.62-3.74-.25-3.88.33-.12 1.6 1.58 2.24 2.78l1.29-1.76.03-.7c-.38-4.21-3.29-8.47-3.29-8.47-5.58-8.72-7.44-9.1-7.44-9.1-1.21 3.14.57 12.39.57 12.39.63 4.61 2.86 7.71 2.86 7.71ZM379.46 144.86c.93-.47 1.83-1.07 2.34-1.42.01-.86.3-2.39.62-3.27-1.32.32-3.42.5-3.55.16-.11-.3 1.34-1.42 2.51-2.09-.7-.44-1.54-1.09-2.06-1.61h-.59c-4.7.07-11.09 4.77-11.09 4.77-7.19 4.89-6.87 6.03-6.87 6.03 2.72 1.17 11.09-.4 11.09-.4 3.81-.58 6.18-1.45 7.6-2.17ZM389.19 141.1c-.72-.05-1.7-.23-2.46-.45.28 1.32.41 3.15.1 3.27-.33.13-1.66-1.67-2.28-2.87-.42.8-1.35 2.03-2 2.64-.12 3.12 2.11 7.21 2.11 7.21 5.85 9.97 8.69 11.22 8.69 11.22 1.38-3.1-.84-13.64-.84-13.64-.98-4.7-2.9-6.95-3.3-7.37ZM416.87 173.11s-4.13-.59-5.62-8.26c0 0-1.36-6.94 1.14-11.58.02-.04.08-.02.08.02-.03.55.2 2.1 2.9 5.08 0 0 10.49 8.59 1.5 14.74Z" class="cls-2"/><path d="M415.9 173.65c-.87-.33-5.17-2.35-6.06-10.56 0-.01 0-.03-.02-.04-.31-.26-4.73-3.88-8.18-3.67-.06 0-.09.09-.03.13.6.35 2.33 1.7 2.93 5.91 0 0 2.43 12.27 11.36 8.37.05-.02.06-.1 0-.12ZM410 162.08c-.64-.51-2.48-1.92-4.05-2.47-.04-.01-.06-.04-.07-.08-.05-.43-.33-3.06.43-4.08.07-.1.17-.13.32-.11.58.07 2.3.53 3.59 1.37.04.02.06.06.05.11-.07.4-.43 2.6-.08 5.16.01.11-.1.18-.18.11ZM423.28 181.33c.66-.35 11.73-6.55-.41-23.2-.02-.03-.07 0-.06.03.35 1 1.67 5.2.54 8.78-.04.12-2.75 7.39-.11 14.38 0 .02.03.03.04.02ZM419.81 128.95c.16-1.31 1.19-7.61 5.97-10.55.08-.05.08-.16 0-.2-1.7-.93-15.16-7.78-17.33 7.88-.01.09.06.16.14.14 1.07-.26 6.92-1.43 11.02 2.79.07.07.19.04.2-.06Z" class="cls-2"/><circle cx="408.04" cy="114.66" r="1.41" class="cls-2"/><circle cx="411.16" cy="109.66" r="1.41" class="cls-2"/><circle cx="416.71" cy="110.36" r="1.41" class="cls-2"/><path d="M412.45 109.77h.74v7.24h-.74z" class="cls-2" transform="rotate(-24.01 412.904 113.387)"/><path d="M416.55 110.52h.74v7.24h-.74z" class="cls-2" transform="rotate(-3.3 417.455 114.346)"/><path d="M410.54 114.04h.74v7.24h-.74z" class="cls-2" transform="rotate(-45.15 410.914 117.66)"/><path d="M428.43 148.95s-.03.06-.05.03c-.96-1.71-8.06-14.91.74-17.68.89-.28 3.53-1.24 7.89 1.04.03.02.02.07 0 .06-1.57-.2-13.21-1.14-8.57 16.55ZM421.05 146.74s0 .03-.01.03c-.39.06-8.03 1.12-7.74-11.81 0-.2.27-3.1-4.62-6.2-.03-.02-.02-.06 0-.05 1.28.28 11.57 2.96 12.37 18.04Z" class="cls-2"/><path d="M420 131.52s-.43 15 6.92 22.23c.95.94 5.5 4.29 7.54 9.94l3.07 7.04s.49-11.5-5.84-16.21c-4.27-3.17-7.86-7.85-11.69-23.01ZM493.27 163.95s-10.84-.1-14.59-6.27c-1.1-1.81-1.25-10.36-4.61-15.31 0 0-3.21-4.23-5.82-5.71-.05-.03-.03-.09.03-.08 2.06.43 15.49 3.83 16.36 18.91.07 1.16 1.67 3.98 8.63 8.46M464.95 148.01s-.02.05-.03.03c-.75-1.17-8.89-14.3-2.25-26.11.98-1.75 2.85-8.22-.82-13.18-.01-.02 0-.05.02-.03.89.55 9.05 6.05 2.47 18.94-.93 1.82-2.04 7.99.61 20.36ZM471.68 164.08c.07.03.09.11.04.17-.95.97-17.53 16.24-27.36-3.75 0 0 6.89 6.06 18.3 3.59 3.97-.86 7-.78 9.03 0ZM450.4 141.35c.09-1.15 1.78-25.82-19.51-27.5-.04 0-.06.06-.02.07 1.97.43 8.62 2.34 9.79 8.78.47 2.61.94 14.8 9.7 18.68.02 0 .04 0 .04-.02Z" class="cls-2"/><path d="M500.35 167.54c.06 0 .06.1 0 .09-4.62-.27-50.05-.15-48.02-43.85 0-.06.1-.07.11-.01 1.19 30.17 28.94 41.04 47.91 43.76Z" class="cls-2"/><path d="M464.78 159.09s.02.03 0 .04c-.63.35-13.11 6.97-19.91-9.7-.59-1.45-1.76-6.02-8.89-12.08-.02-.02-.02-.05 0-.05 1.11.27 12.46 3.19 18.04 12.61 2.82 4.76 7.57 6.08 10.76 9.17ZM698.48 160.97s-13.99-23.58 13.68-28.23c1.15-.19 3.47-.19 7.09-3.26 0 0-.75 3.28-5.5 5.3-1.79.76-12.24 7.38-15.28 26.2M691.53 133.5s3.26-11.87 9.05-12.6c2.17-.28 10.19 1.41 16.13-.82 0 0 5.01-2.19 6.96-4.4.02-.02.04-.01.04.01-.28 1.23-4.27 17.5-21.12 11.5-1.14-.41-3.23-1.15-11.06 6.32M698.3 111.7c-.06.03-.12-.03-.08-.08.81-1.39 6.79-10.74 18.17-5.57 0 0 5.87 2.63 9.71-2.16.03-.04.11-.05.13 0 .27.98-3.68 8.42-12.94 4.83-.68-.26-5.04-1.78-14.98 2.98ZM685.14 134.45c.05.08 0 .18-.09.16-1.62-.33-10.84-2.73-11.72-14.22 0 0-.76-5.96-.05-10.1 0-.05.09-.06.1 0 .23 1.11-.14 6.61 4.47 12.14 2.87 3.44 4.09 7.62 7.28 12.01ZM691.49 104.82c0 .05.06.09.11.06.94-.49 23.54-14.86 11.93-31.26-.05-.06-.16-.01-.14.06.42 1.77 2.2 10.18-1.36 12.75 0 0-12.26 7.92-10.54 18.39ZM712.44 94.07c1.03-1.48 4.77-7.61-.05-12.86-.09-.09-.06-.25.07-.28 1.07-.31 5.2-1.21 6.76 2.67.03.07.09.12.16.11.98-.07 7.68-.34 4.43 6.53-.04.09 0 .2.09.24.96.38 5.53 2.47 2.54 7.04-.07.1-.22.12-.29.02-.67-.95-3.99-4.71-13.52-3.21-.15.02-.27-.14-.18-.26Z" class="cls-2"/><path d="M698.48 160.97s-10.96-15.11-10.52-35.85c.07-3.32 1.56-19.27 19.83-28.44.07-.04.16.06.09.11-2.72 2.3-16.04 14.17-16.36 27.15 0 .19-1.65 19.65 6.96 37.03ZM685.66 125.8c-.01.09-.13.11-.16.03-.81-2.19-9.15-10.6-3.01-21.17 1.07-1.84 4.1-5.37 5.26-13.37.01-.07.12-.08.12 0 0 2.24 2.24 9.16-.52 16.62-1.59 4.29-.84 11.82-1.68 17.9ZM712.43 79.63s1.83-1.15 4.13 0c0 0 3.05-18.84-.61-21.73 0 0-7.11 8.3-3.52 21.73ZM717.82 80s2.09.09 2.8 2.16c0 0 11.15-14.78 10.82-28.33 0 0-12.58 5.68-13.63 26.18ZM721.38 82.47s3.89.2 4.44 3.06c0 0 14.59-8.18 21.03-23.25 0 0-13.05 2.56-25.47 20.19ZM726.11 86.84s.13 1.15-.53 2.79c0 0 1.74.6 2.43 1.77 0 0 18.24-1.85 25.64-11.3 0 0-10-3.81-27.54 6.73ZM728.68 92.32s1.81 3.24-1.01 5.66c0 0 19.21.02 21.63-3.57 0 0-1.78-3.61-20.62-2.09ZM756.05 51.47c-1.23-.49-7.31-2.65-12.22.13-.08.05-.18 0-.18-.1 0-1.95.51-17.18 15.39-11.47.08.03.11.13.06.2-.75.82-4.63 5.41-2.91 11.09.03.1-.05.19-.15.15Z" class="cls-2"/><circle cx="749.16" cy="34.12" r="1.42" class="cls-2"/><circle cx="743.23" cy="34.45" r="1.42" class="cls-2"/><circle cx="741.15" cy="39.68" r="1.42" class="cls-2"/><path d="M745.34 34.08h.75v7.3h-.75z" class="cls-2" transform="rotate(142.88 745.727 37.764)"/><path d="M744.01 38.07h.75v7.3h-.75z" class="cls-2" transform="rotate(122.17 744.395 41.744)"/><path d="M750.05 34.47h.75v7.3h-.75z" class="cls-2" transform="rotate(164.02 750.422 38.118)"/><path d="M769.52 68.82s.07 0 .05-.03c-1.04-1.68-9.24-14.37-15.97-7.95-.68.65-2.81 2.51-2.92 7.47 0 .03.05.05.06.02.58-1.49 5.42-12.22 18.79.49ZM771.16 61.23s.02.01.03 0c.24-.31 4.9-6.55-6.66-12.59-.18-.09-2.87-1.27-3.23-7.1 0-.03-.04-.05-.05-.02-.38 1.26-3.02 11.66 9.91 19.71Z" class="cls-2"/><path d="M758.23 52.89s13.45 6.92 16.26 16.94c.36 1.3 1.11 6.94 5.11 11.5l4.73 6.14s-10.39-5.17-11.47-13.05c-.72-5.31-3.11-10.76-14.63-21.53ZM746.56 124.82s-4.17-.6-5.67-8.33c0 0-1.37-6.99 1.15-11.68.02-.04.08-.02.08.02-.03.56.2 2.12 2.92 5.12 0 0 10.58 8.66 1.52 14.86Z" class="cls-2"/><path d="M745.58 125.36c-.88-.33-5.21-2.37-6.11-10.65 0-.02 0-.03-.02-.04-.32-.26-4.77-3.92-8.25-3.7-.06 0-.09.09-.03.13.6.35 2.35 1.72 2.95 5.95 0 0 2.45 12.37 11.45 8.44.05-.02.06-.1 0-.13ZM739.63 113.7c-.64-.51-2.51-1.94-4.08-2.49-.04-.01-.06-.04-.07-.08-.05-.43-.33-3.08.43-4.12.07-.1.18-.13.32-.11.58.07 2.32.53 3.62 1.38.04.02.06.06.05.11-.07.41-.44 2.62-.08 5.2.01.11-.1.18-.19.11ZM747.02 126.9c.29 1.57.88 7.25 10.03 15.38.05.05 12.79 9.84 12.32 18.47 0 .06.08.08.11.03.38-.79 1.71-4.1-.61-8.43 0 0-2.09-4.82-12.29-13.16-1.15-.94-6.92-6.29-9.45-12.32-.03-.06-.12-.04-.11.03ZM751.93 138.32c-.77.48-9.64 5.54-16.99-9.41-.03-.06.05-.13.1-.08.91 1 3.74 3.83 6.61 3.72.09 0 5.75.03 10.29 5.68.02.03.02.07 0 .09ZM753.03 133.11c.67-.35 11.83-6.6-.41-23.39-.02-.03-.07 0-.06.03.35 1.01 1.68 5.24.54 8.85-.04.12-2.77 7.45-.11 14.5 0 .02.03.03.04.02ZM727.58 148.79c1.02-1.52 3.9-3.33 3.9-3.33-.08-10.01-1.6-11.63-1.6-11.63-2.09 1.16-5.24 10.29-5.24 10.29 2.02 1.92 2.94 4.67 2.94 4.67ZM732.9 155.48c2.25 1.99 3.76 5.11 3.76 5.11 9.51-.07 11.5-1.59 11.5-1.59-2.72-3-11.81-5.64-11.81-5.64-1.15 1.14-3.45 2.12-3.45 2.12ZM725.68 160.2c-2.16 2.35-4.49 3.5-4.49 3.5-.35 3.33.29 8.71.29 8.71.4 3.51 1.22 4.66 1.22 4.66 1.22-.75 2.61-3.94 2.61-3.94 1.96-3.5 3.19-8.47 3.19-8.47-1.51-1.53-2.82-4.47-2.82-4.47ZM720.33 153.37c-1.38-1.31-2.59-3.09-2.59-3.09-9.91-.41-13.14 1.5-13.14 1.5 2.57 2.85 10.6 5.26 10.6 5.26 2.82-2.85 5.13-3.67 5.13-3.67ZM727.97 149.76l-.03.07c.1.62.15 1.42.14 2.06 1.01-.58 2.89-1.27 3.08-1 .19.27-1.18 1.95-2.05 2.68.92.24 2.36.87 2.8 1.27l.22-.09c3.28-1.04 5.99-4.22 5.99-4.22 5.85-6.04 6.32-8.65 6.32-8.65-1.68-.7-10.22 3.19-10.22 3.19-4.79 2.17-6.25 4.69-6.25 4.69ZM721.17 152.87l.44.29c.52-.24 2.17-.39 3.14-.31-.59-.97-1.35-3-1.07-3.2.25-.18 1.69.97 2.49 1.83l.69-1.76-.13-.59c-1.26-3.44-4.65-6.37-4.65-6.37-6.61-6.07-8.26-5.98-8.26-5.98-.32 2.9 3.24 10.26 3.24 10.26 1.55 3.73 4.11 5.83 4.11 5.83ZM723.96 160.69c.67-.6 1.3-1.3 1.64-1.71-.18-.72-.28-2.07-.2-2.88-1.03.56-2.76 1.18-2.94.92-.16-.23.81-1.49 1.64-2.31-.68-.21-1.53-.57-2.09-.89l-.2.05h-.03l-.27.07c-3.93 1.11-8.23 6.47-8.23 6.47-4.94 5.7-4.42 6.58-4.42 6.58 2.54.38 9.21-2.8 9.21-2.8 3.07-1.33 4.86-2.59 5.89-3.51ZM731.29 155.37c-.61.11-1.48.18-2.17.17.53 1.04 1.05 2.55.81 2.72-.25.18-1.77-1.03-2.55-1.89-.17.76-.68 2-1.09 2.66.59 2.64 3.37 5.57 3.37 5.57 7.12 7.06 9.78 7.47 9.78 7.47.47-2.91-3.74-11.25-3.74-11.25-1.87-3.73-3.98-5.18-4.41-5.45ZM770.87 99.8c-2.67 1.89-5.26 2.53-5.26 2.53-1.07 3.26-1.59 8.79-1.59 8.79-.36 3.61.21 4.94.21 4.94 1.39-.49 3.47-3.38 3.47-3.38 2.72-3.08 5.03-7.79 5.03-7.79-1.19-1.86-1.86-5.09-1.86-5.09ZM766.98 91.8c-1.09-1.61-1.92-3.66-1.92-3.66-9.84-2.56-13.49-1.34-13.49-1.34 1.96 3.41 9.48 7.57 9.48 7.57 3.44-2.24 5.93-2.57 5.93-2.57ZM767.93 91.48l.38.39c.58-.13 2.26.08 3.21.37-.38-1.1-.7-3.3-.38-3.44.28-.12 1.49 1.34 2.1 2.38l1.08-1.61v-.62c-.52-3.72-3.28-7.39-3.28-7.39-5.31-7.52-6.98-7.78-6.98-7.78-.95 2.84 1.02 10.98 1.02 10.98.75 4.07 2.85 6.73 2.85 6.73ZM769.04 99.92c.8-.46 1.58-1.03 2.02-1.36-.02-.76.17-2.14.42-2.93-1.16.34-3.02.59-3.15.29-.11-.26 1.13-1.31 2.14-1.96-.64-.36-1.41-.9-1.9-1.34h-.53v.02c-4.17.25-9.65 4.69-9.65 4.69-6.19 4.64-5.86 5.64-5.86 5.64 2.47.93 9.84-.81 9.84-.81 3.36-.67 5.43-1.54 6.66-2.24ZM774.77 157.45s.02.02.04.01c.52-.51 10.44-10.73-3.79-22.01-1.23-.98-5.33-3.4-9.19-12.01-.01-.02-.05-.03-.05 0-.05 1.15-.42 12.97 7.14 21.02 3.82 4.07 3.75 9.04 5.85 13ZM766.84 173.2v.03c-.53.12-10.97 2.35-12.46-11.17-.13-1.17-.03-4.74-3.96-10.62-.01-.02 0-.04.02-.03.75.42 8.39 4.9 10.49 12.9 1.06 4.04 4.24 5.98 5.91 8.89Z" class="cls-2"/><path d="M765.58 169.13c.17-.61 3.8-13.87-7.61-17.12-.02 0-.04.02-.02.03 1.03.45 4.44 2.22 4.37 5.86-.03 1.47-1.11 8.17 3.23 11.24h.03ZM776.75 35.89c.07.04.06.14-.01.16-1.38.3-9.38 1.63-14.03-6.99 0 0-2.66-4.37-3.54-7.84-.01-.04.05-.08.07-.04.56.78 2.18 5.19 7.68 7.89 3.43 1.68 5.82 4.5 9.82 6.82ZM774.16 28.99c.02.07-.07.13-.12.08-1.39-1.42-10.78-5.07-9.67-15.42.19-1.8 1.33-5.59-.54-12.22-.02-.06.06-.11.09-.05.77 1.75 4.92 6.35 5.35 13.1.25 3.89 3.44 9.48 4.89 14.5ZM350.95 173s4.13-.59 5.62-8.26c0 0 1.36-6.94-1.14-11.58-.02-.04-.08-.02-.08.02.03.55-.2 2.1-2.9 5.08 0 0-10.49 8.59-1.5 14.74Z" class="cls-2"/><path d="M351.92 173.54c.87-.33 5.17-2.35 6.06-10.56 0-.01 0-.03.02-.04.31-.26 4.73-3.88 8.18-3.67.06 0 .09.09.03.13-.6.35-2.33 1.7-2.93 5.91 0 0-2.43 12.27-11.36 8.37-.05-.02-.06-.1 0-.12ZM357.82 161.98c.64-.51 2.48-1.92 4.05-2.47.04-.01.06-.04.07-.08.05-.43.33-3.06-.43-4.08-.07-.1-.17-.13-.32-.11-.58.07-2.3.53-3.59 1.37-.04.02-.06.06-.05.11.07.4.43 2.6.08 5.16-.01.11.1.18.18.11ZM344.54 181.23c-.66-.35-11.73-6.55.41-23.2.02-.03.07 0 .06.03-.35 1-1.67 5.2-.54 8.78.04.12 2.75 7.39.11 14.38 0 .02-.03.03-.04.02ZM348.01 128.85c-.16-1.31-1.19-7.61-5.97-10.55-.08-.05-.08-.16 0-.2 1.7-.93 15.16-7.78 17.33 7.88.01.09-.06.16-.14.14-1.07-.26-6.92-1.43-11.02 2.79-.07.07-.19.04-.2-.06Z" class="cls-2"/><circle cx="359.78" cy="114.55" r="1.41" class="cls-2"/><circle cx="356.66" cy="109.56" r="1.41" class="cls-2"/><circle cx="351.12" cy="110.25" r="1.41" class="cls-2"/><path d="M354.63 109.67h.74v7.24h-.74z" class="cls-2" transform="rotate(-155.99 354.99 113.31)"/><path d="M350.52 110.42h.74v7.24h-.74z" class="cls-2" transform="rotate(-176.7 350.894 114.055)"/><path d="M356.54 113.94h.74v7.24h-.74z" class="cls-2" transform="rotate(-134.85 356.913 117.563)"/><path d="M339.4 148.85s.03.06.05.03c.96-1.71 8.06-14.91-.74-17.68-.89-.28-3.53-1.24-7.89 1.04-.03.02-.02.07 0 .06 1.57-.2 13.21-1.14 8.57 16.55ZM346.78 146.63s0 .03.01.03c.39.06 8.03 1.12 7.74-11.81 0-.2-.27-3.1 4.62-6.2.03-.02.02-.06 0-.05-1.28.28-11.57 2.96-12.37 18.04Z" class="cls-2"/><path d="M347.82 131.42s.43 15-6.92 22.23c-.95.94-5.5 4.29-7.54 9.94l-3.07 7.04s-.49-11.5 5.84-16.21c4.27-3.17 7.86-7.85 11.69-23.01ZM274.56 163.84s10.84-.1 14.59-6.27c1.1-1.81 1.25-10.36 4.61-15.31 0 0 3.21-4.23 5.82-5.71.05-.03.03-.09-.03-.08-2.06.43-15.49 3.83-16.36 18.91-.07 1.16-1.67 3.98-8.63 8.46M302.87 147.91s.02.05.03.03c.75-1.17 8.89-14.3 2.25-26.11-.98-1.75-2.85-8.22.82-13.18.01-.02 0-.05-.02-.03-.89.55-9.05 6.05-2.47 18.94.93 1.82 2.04 7.99-.61 20.36ZM296.14 163.98c-.07.03-.09.11-.04.17.95.97 17.53 16.24 27.36-3.75 0 0-6.89 6.06-18.3 3.59-3.97-.86-7-.78-9.03 0ZM317.43 141.24c-.09-1.15-1.78-25.82 19.51-27.5.04 0 .06.06.02.07-1.97.43-8.62 2.34-9.79 8.78-.47 2.61-.94 14.8-9.7 18.68-.02 0-.04 0-.04-.02Z" class="cls-2"/><path d="M267.48 167.44c-.06 0-.06.1 0 .09 4.62-.27 50.05-.15 48.02-43.85 0-.06-.1-.07-.11-.01-1.19 30.17-28.94 41.04-47.91 43.76Z" class="cls-2"/><path d="M303.04 158.99s-.02.03 0 .04c.63.35 13.11 6.97 19.91-9.7.59-1.45 1.76-6.02 8.89-12.08.02-.02.02-.05 0-.05-1.11.27-12.46 3.19-18.04 12.61-2.82 4.76-7.57 6.08-10.76 9.17ZM588.51 201.15s20.01-16.86-3.47-29.73c-.98-.54-3.06-1.26-5.37-5.16 0 0-.35 3.19 3.29 6.5 1.37 1.25 8.72 10.5 5.55 28.4M603.4 178.57s.79-11.72-4.2-14.2c-1.87-.93-9.62-1.93-14.28-5.8 0 0-3.83-3.55-4.89-6.15 0-.02-.03-.02-.04 0-.14 1.19-1.65 17.11 15.42 16.98 1.16 0 3.27-.02 7.99 9.16M604.13 156.8s.11 0 .1-.05c-.3-1.51-2.75-11.81-14.63-10.72 0 0-6.12.53-8.07-4.99-.02-.05-.09-.08-.12-.04-.55.8.67 8.74 10.15 8.41.69-.02 5.1-.02 12.57 7.38ZM608.85 181.43c-.07.05-.06.16.03.18 1.57.21 10.63.94 15.02-9.14 0 0 2.56-5.13 3.21-9.09 0-.05-.06-.08-.09-.04-.55.92-1.95 6-7.84 9.54-3.67 2.2-6.08 5.58-10.33 8.54ZM612.42 152.74s-.08.06-.11.02c-.69-.74-16.55-20.77-.95-31.91.06-.04.15.04.11.1-.93 1.46-5.18 8.49-2.78 11.91 0 0 8.56 10.99 3.73 19.88ZM596.92 136.48c-.47-1.66-1.91-8.35 4.08-11.57.11-.06.13-.2.03-.27-.87-.61-4.31-2.72-6.93.29-.05.05-.12.08-.18.05-.86-.37-6.81-2.72-6.04 4.5.01.09-.06.18-.15.19-.98.04-5.76.49-4.49 5.55.03.11.16.17.26.11.9-.64 5.07-2.99 13.19 1.35.13.07.28-.04.24-.18Z" class="cls-2"/><path d="M588.51 201.15s14.62-10.18 20.72-29.01c.98-3.01 4.63-17.86-8.95-31.85-.06-.06-.16 0-.12.07 1.73 2.92 10.01 17.8 6.22 29.6-.06.17-4.67 18.22-17.88 31.18ZM611.1 173.47c-.02.08.09.14.14.08 1.42-1.72 11.57-6.68 9.35-18.14-.39-1.99-2.01-6.12-.55-13.7.01-.07-.08-.11-.1-.04-.7 2.02-4.89 7.56-4.74 15.14.09 4.36-2.95 10.91-4.1 16.66ZM601.45 123.47s-1.29-1.61-3.72-1.3c0 0 3.16-17.94 7.37-19.39 0 0 3.8 9.71-3.64 20.69ZM596.48 122.11s-1.91-.57-3.2 1.06c0 0-5.42-16.82-.87-28.93 0 0 9.56 9.07 4.07 27.86ZM592.49 123.22s-3.57-1.04-4.96 1.36c0 0-10.58-11.94-11.66-27.55 0 0 10.95 6.4 16.62 26.18ZM586.86 125.67s-.47.99-.4 2.68c0 0-1.75 0-2.75.83 0 0-15.85-7.39-19.56-18.22 0 0 10.21-.3 22.7 14.7ZM582.83 129.81s-2.65 2.36-.87 5.42c0 0-17.32-6.01-18.37-10 0 0 2.74-2.69 19.24 4.58ZM630.66 134.11c.16-1.26 1.15-7.33 5.74-10.15.08-.05.08-.15 0-.2-1.63-.9-14.59-7.49-16.68 7.58-.01.08.06.16.14.14 1.03-.25 6.65-1.38 10.61 2.68.07.07.18.04.19-.05Z" class="cls-2"/><circle cx="619.33" cy="120.36" r="1.36" class="cls-2"/><circle cx="622.34" cy="115.55" r="1.36" class="cls-2"/><circle cx="627.68" cy="116.22" r="1.36" class="cls-2"/><path d="M623.58 115.66h.72v6.97h-.72z" class="cls-2" transform="rotate(-24.01 624.07 119.14)"/><path d="M627.53 116.38h.72v6.97h-.72z" class="cls-2" transform="rotate(-3.3 628.538 119.905)"/><path d="M621.74 119.77h.72v6.97h-.72z" class="cls-2" transform="rotate(-45.15 622.1 123.254)"/><path d="M638.95 153.35s-.03.06-.05.03c-.92-1.64-7.75-14.35.71-17.01.86-.27 3.39-1.19 7.59 1 .03.01.02.06 0 .06-1.51-.2-12.71-1.1-8.25 15.92ZM631.85 151.22s0 .02-.01.03c-.37.06-7.73 1.08-7.45-11.36 0-.19.26-2.98-4.45-5.97-.02-.02-.02-.06 0-.05 1.23.27 11.13 2.85 11.9 17.36Z" class="cls-2"/><path d="M630.84 136.58s-.41 14.43 6.66 21.39c.92.9 5.29 4.12 7.26 9.56l2.95 6.78s.47-11.06-5.62-15.59c-4.1-3.05-7.56-7.56-11.25-22.14ZM658.26 128.46s3.41-3.44-.58-11.56c0 0-3.6-7.36-9.16-9.91-.04-.02-.09.04-.06.07.42.49 1.28 2.08.88 6.72 0 0-3.69 15.28 8.92 14.68Z" class="cls-2"/><path d="M659.54 128.28c.58-.91 3.13-5.79-1.79-14 0-.01-.01-.03 0-.05.11-.46 1.66-6.9 4.99-9.11.06-.04.14.03.12.09-.31.74-.96 3.2 1.42 7.51 0 0 6.33 13.04-4.64 15.68-.07.02-.13-.05-.09-.11ZM656.9 113.46c.23-.91.95-3.51 2.01-5.12.03-.04.03-.08 0-.12-.25-.43-1.84-3.05-3.25-3.48-.13-.04-.25 0-.37.12-.49.47-1.76 2.1-2.36 3.78-.02.05 0 .1.03.13.35.32 2.22 2.1 3.69 4.71.06.11.22.1.25-.02ZM659.28 130.69c.83 1.64 4.23 7.26 1.47 21.05-.02.08-4.9 17.89 1.52 25.48.04.05-.02.13-.08.1-.9-.45-4.41-2.57-5.29-8.15 0 0-1.43-5.86 2.14-20.59.4-1.66 1.98-10.56.12-17.85-.02-.08.08-.12.12-.05ZM662.71 144.56c1.04-.1 12.68-1.61 9.04-20.41-.02-.08-.14-.08-.14 0-.14 1.55-.77 6.1-3.47 7.99-.08.06-5.24 4.02-5.5 12.35 0 .04.03.08.07.08ZM658.09 140.55c-.86.14-15.42 2.15-15.85-21.73 0-.04.06-.06.08-.02.38 1.17 2.1 5.97 5.64 8.49.12.09 7.71 4.91 10.16 13.21 0 .02 0 .05-.03.05ZM675.18 164.63c1.53-1.34 5.13-2.46 5.13-2.46 2.76-10.76 1.59-12.92 1.59-12.92-2.57.65-8.54 9.54-8.54 9.54 1.62 2.64 1.82 5.84 1.82 5.84Z" class="cls-2"/><path d="M666.1 167.48c-1.1-1.8-1.89-4.05-1.89-4.05-10.51-3.26-14.51-2.12-14.51-2.12 1.94 3.78 9.87 8.65 9.87 8.65 3.83-2.25 6.54-2.48 6.54-2.48ZM675.32 165.79l-.05.07c-.07.69-.24 1.57-.44 2.25 1.25-.33 3.46-.54 3.59-.2.13.34-1.82 1.76-2.96 2.3.92.52 2.28 1.6 2.64 2.16l.26-.03c3.82-.18 7.62-2.82 7.62-2.82 7.99-4.81 9.24-7.48 9.24-7.48-1.6-1.22-11.87.52-11.87.52-5.75.97-8.03 3.25-8.03 3.25ZM667.15 167.19l.39.44c.63-.11 2.44.2 3.46.56-.35-1.21-.6-3.6-.24-3.73.31-.12 1.54 1.52 2.15 2.67l1.24-1.69.03-.67c-.37-4.05-3.17-8.15-3.17-8.15-5.36-8.39-7.16-8.76-7.16-8.76-1.17 3.02.55 11.92.55 11.92.61 4.44 2.75 7.42 2.75 7.42ZM577.59 156.99s-23.22 12.27-26.35-14.42c-.13-1.11-.02-3.32-2.78-6.94 0 0 3.1.88 4.81 5.51.64 1.75 6.48 12.06 24.33 15.85M550.98 162.34s-11.2-3.68-11.63-9.25c-.16-2.09 1.83-9.68-.02-15.46 0 0-1.86-4.9-3.88-6.87-.02-.02 0-.04.01-.03 1.16.32 16.54 4.91 10 20.74-.44 1.07-1.25 3.04 5.52 10.88M530.45 154.84c.02.05-.03.11-.08.08-1.29-.84-9.96-7.01-4.47-17.65 0 0 2.79-5.49-1.61-9.39-.04-.03-.04-.11 0-.12.95-.22 7.88 3.92 4.01 12.61-.28.63-1.94 4.73 2.14 14.47ZM523.55 161.02s.08-.05.06-.1c-.43-.92-13.09-23.22-29.34-12.89-.06.04-.02.15.05.14 1.71-.32 9.85-1.63 12.13 1.9 0 0 7 12.1 17.09 10.95ZM514.26 140.48c-1.37-1.06-7.05-4.92-12.3-.56-.09.08-.24.04-.27-.08-.24-1.04-.91-5.03 2.87-6.34.07-.02.12-.08.11-.15-.02-.94.04-7.36 6.46-3.93.08.04.19.02.23-.07.41-.9 2.62-5.17 6.86-2.09.1.07.1.22 0 .28-.94.6-4.69 3.59-3.71 12.78.02.15-.15.25-.26.16Z" class="cls-2"/><path d="M577.59 156.99s-14.98 9.77-34.79 8.36c-3.17-.23-18.36-2.41-26.26-20.31-.03-.07.07-.15.11-.08 2.07 2.71 12.79 16.01 25.2 16.93.18.01 18.71 2.51 35.74-4.9ZM543.34 167.59c.08.02.1.13.02.16-2.13.67-10.57 8.25-20.39 1.87-1.71-1.11-4.94-4.17-12.54-5.66-.07-.01-.08-.11 0-.11 2.15.11 8.87-1.71 15.87 1.28 4.03 1.72 11.26 1.37 17.05 2.46ZM500.45 139.8s-1.01-1.8.2-3.95c0 0-17.88-3.81-20.81-.44 0 0 7.6 7.19 20.62 4.4ZM501.06 134.66s.19-1.99 2.19-2.58c0 0-13.61-11.37-26.59-11.69 0 0 4.84 12.3 24.39 14.27ZM503.59 131.37s.37-3.71 3.13-4.1c0 0-7.13-14.34-21.24-21.22 0 0 1.83 12.6 18.11 25.32ZM507.99 127.05s1.1-.07 2.65.64c0 0 .66-1.63 1.81-2.24 0 0-.91-17.53-9.59-25.05 0 0-4.12 9.39 5.14 26.66ZM513.35 124.86s3.19-1.58 5.37 1.23c0 0 .92-18.37-2.39-20.86 0 0-3.54 1.53-2.98 19.62ZM70.79 160.12s13.99-23.58-13.68-28.23c-1.15-.19-3.47-.19-7.09-3.26 0 0 .75 3.28 5.5 5.3 1.79.76 12.24 7.38 15.28 26.2M77.74 132.64s-3.26-11.87-9.05-12.6c-2.17-.28-10.19 1.41-16.13-.82 0 0-5.01-2.19-6.96-4.4-.02-.02-.04-.01-.04.01.28 1.23 4.27 17.5 21.12 11.5 1.14-.41 3.23-1.15 11.06 6.32M70.97 110.84c.06.03.12-.03.08-.08-.81-1.39-6.79-10.74-18.17-5.57 0 0-5.87 2.63-9.71-2.16-.03-.04-.11-.05-.13 0-.27.98 3.68 8.42 12.94 4.83.68-.26 5.04-1.78 14.98 2.98ZM84.13 133.59c-.05.08 0 .18.09.16 1.62-.33 10.84-2.73 11.72-14.22 0 0 .76-5.96.05-10.1 0-.05-.09-.06-.1 0-.23 1.11.14 6.61-4.47 12.14-2.87 3.44-4.09 7.62-7.28 12.01ZM77.78 103.97c0 .05-.06.09-.11.06-.94-.49-23.54-14.86-11.93-31.26.05-.06.16-.01.14.06-.42 1.77-2.2 10.18 1.36 12.75 0 0 12.26 7.92 10.54 18.39ZM56.83 93.22c-1.03-1.48-4.77-7.61.05-12.86.09-.09.06-.25-.07-.28-1.07-.31-5.2-1.21-6.76 2.67-.03.07-.09.12-.16.11-.98-.07-7.68-.34-4.43 6.53.04.09 0 .2-.09.24-.96.38-5.53 2.47-2.54 7.04.07.1.22.12.29.02.67-.95 3.99-4.71 13.52-3.21.15.02.27-.14.18-.26Z" class="cls-2"/><path d="M70.79 160.12s10.96-15.11 10.52-35.85c-.07-3.32-1.56-19.27-19.83-28.44-.07-.04-.16.06-.09.11 2.72 2.3 16.04 14.17 16.36 27.15 0 .19 1.65 19.65-6.96 37.03ZM83.61 124.94c.01.09.13.11.16.03.81-2.19 9.15-10.6 3.01-21.17-1.07-1.84-4.1-5.37-5.26-13.37-.01-.07-.12-.08-.12 0 0 2.24-2.24 9.16.52 16.62 1.59 4.29.84 11.82 1.68 17.9ZM56.84 78.78s-1.83-1.15-4.13 0c0 0-3.05-18.84.61-21.73 0 0 7.11 8.3 3.52 21.73ZM51.45 79.15s-2.09.09-2.8 2.16c0 0-11.15-14.78-10.82-28.33 0 0 12.58 5.68 13.63 26.18ZM47.89 81.62s-3.89.2-4.44 3.06c0 0-14.59-8.18-21.03-23.25 0 0 13.05 2.56 25.47 20.19ZM43.16 85.98s-.13 1.15.53 2.79c0 0-1.74.6-2.43 1.77 0 0-18.24-1.85-25.64-11.3 0 0 10-3.81 27.54 6.73ZM40.59 91.46s-1.81 3.24 1.01 5.66c0 0-19.21.02-21.63-3.57 0 0 1.78-3.61 20.62-2.09ZM13.22 50.62c1.23-.49 7.31-2.65 12.22.13.08.05.18 0 .18-.1 0-1.95-.51-17.18-15.39-11.47-.08.03-.11.13-.06.2.75.82 4.63 5.41 2.91 11.09-.03.1.05.19.15.15Z" class="cls-2"/><circle cx="20.11" cy="33.27" r="1.42" class="cls-2"/><circle cx="26.04" cy="33.59" r="1.42" class="cls-2"/><circle cx="28.13" cy="38.83" r="1.42" class="cls-2"/><path d="M23.18 33.23h.75v7.3h-.75z" class="cls-2" transform="rotate(37.12 23.552 36.882)"/><path d="M24.51 37.21h.75v7.3h-.75z" class="cls-2" transform="rotate(57.83 24.89 40.867)"/><path d="M18.47 33.62h.75v7.3h-.75z" class="cls-2" transform="rotate(15.98 18.853 37.274)"/><path d="M-.25 67.97s-.07 0-.05-.03c1.04-1.68 9.24-14.37 15.97-7.95.68.65 2.81 2.51 2.92 7.47 0 .03-.05.05-.06.02-.58-1.49-5.42-12.22-18.79.49ZM-1.89 60.37s-.02.01-.03 0c-.24-.31-4.9-6.55 6.66-12.59.18-.09 2.87-1.27 3.23-7.1 0-.03.04-.05.05-.02.38 1.26 3.02 11.66-9.91 19.71Z" class="cls-2"/><path d="M11.04 52.04S-2.41 58.96-5.22 68.98c-.36 1.3-1.11 6.94-5.11 11.5l-4.73 6.14s10.39-5.17 11.47-13.05c.72-5.31 3.11-10.76 14.63-21.53ZM22.71 123.96s4.17-.6 5.67-8.33c0 0 1.37-6.99-1.15-11.68-.02-.04-.08-.02-.08.02.03.56-.2 2.12-2.92 5.12 0 0-10.58 8.66-1.52 14.86Z" class="cls-2"/><path d="M23.69 124.51c.88-.33 5.21-2.37 6.11-10.65 0-.02 0-.03.02-.04.32-.26 4.77-3.92 8.25-3.7.06 0 .09.09.03.13-.6.35-2.35 1.72-2.95 5.95 0 0-2.45 12.37-11.45 8.44-.05-.02-.06-.1 0-.13ZM29.64 112.84c.64-.51 2.51-1.94 4.08-2.49.04-.01.06-.04.07-.08.05-.43.33-3.08-.43-4.12-.07-.1-.18-.13-.32-.11-.58.07-2.32.53-3.62 1.38-.04.02-.06.06-.05.11.07.41.44 2.62.08 5.2-.01.11.1.18.19.11ZM22.25 126.04c-.29 1.57-.88 7.25-10.03 15.38-.05.05-12.79 9.84-12.32 18.47 0 .06-.08.08-.11.03-.38-.79-1.71-4.1.61-8.43 0 0 2.09-4.82 12.29-13.16 1.15-.94 6.92-6.29 9.45-12.32.03-.06.12-.04.11.03ZM17.35 137.47c.77.48 9.64 5.54 16.99-9.41.03-.06-.05-.13-.1-.08-.91 1-3.74 3.83-6.61 3.72-.09 0-5.75.03-10.29 5.68-.02.03-.02.07 0 .09ZM16.24 132.26c-.67-.35-11.83-6.6.41-23.39.02-.03.07 0 .06.03-.35 1.01-1.68 5.24-.54 8.85.04.12 2.77 7.45.11 14.5 0 .02-.03.03-.04.02ZM41.69 147.93c-1.02-1.52-3.9-3.33-3.9-3.33.08-10.01 1.6-11.63 1.6-11.63 2.09 1.16 5.24 10.29 5.24 10.29-2.02 1.92-2.94 4.67-2.94 4.67ZM36.37 154.63c-2.25 1.99-3.76 5.11-3.76 5.11-9.51-.07-11.5-1.59-11.5-1.59 2.72-3 11.81-5.64 11.81-5.64 1.15 1.14 3.45 2.12 3.45 2.12ZM43.59 159.34c2.16 2.35 4.49 3.5 4.49 3.5.35 3.33-.29 8.71-.29 8.71-.4 3.51-1.22 4.66-1.22 4.66-1.22-.75-2.61-3.94-2.61-3.94-1.96-3.5-3.19-8.47-3.19-8.47 1.51-1.53 2.82-4.47 2.82-4.47ZM48.94 152.52c1.38-1.31 2.59-3.09 2.59-3.09 9.91-.41 13.14 1.5 13.14 1.5-2.57 2.85-10.6 5.26-10.6 5.26-2.82-2.85-5.13-3.67-5.13-3.67ZM41.3 148.91l.03.07c-.1.62-.15 1.42-.14 2.06-1.01-.58-2.89-1.27-3.08-1-.19.27 1.18 1.95 2.05 2.68-.92.24-2.36.87-2.8 1.27l-.22-.09c-3.28-1.04-5.99-4.22-5.99-4.22-5.85-6.04-6.32-8.65-6.32-8.65 1.68-.7 10.22 3.19 10.22 3.19 4.79 2.17 6.25 4.69 6.25 4.69ZM48.1 152.02l-.44.29c-.52-.24-2.17-.39-3.14-.31.59-.97 1.35-3 1.07-3.2-.25-.18-1.69.97-2.49 1.83l-.69-1.76.13-.59c1.26-3.44 4.65-6.37 4.65-6.37 6.61-6.07 8.26-5.98 8.26-5.98.32 2.9-3.24 10.26-3.24 10.26-1.55 3.73-4.11 5.83-4.11 5.83ZM45.31 159.83c-.67-.6-1.3-1.3-1.64-1.71.18-.72.28-2.07.2-2.88 1.03.56 2.76 1.18 2.94.92.16-.23-.81-1.49-1.64-2.31.68-.21 1.53-.57 2.09-.89l.2.05h.03l.27.07c3.93 1.11 8.23 6.47 8.23 6.47 4.94 5.7 4.42 6.58 4.42 6.58-2.54.38-9.21-2.8-9.21-2.8-3.07-1.33-4.86-2.59-5.89-3.51ZM37.98 154.51c.61.11 1.48.18 2.17.17-.53 1.04-1.05 2.55-.81 2.72.25.18 1.77-1.03 2.55-1.89.17.76.68 2 1.09 2.66-.59 2.64-3.37 5.57-3.37 5.57-7.12 7.06-9.78 7.47-9.78 7.47-.47-2.91 3.74-11.25 3.74-11.25 1.87-3.73 3.98-5.18 4.41-5.45ZM-1.6 98.95c2.67 1.89 5.26 2.53 5.26 2.53 1.07 3.26 1.59 8.79 1.59 8.79.36 3.61-.21 4.94-.21 4.94-1.39-.49-3.47-3.38-3.47-3.38-2.72-3.08-5.03-7.79-5.03-7.79 1.19-1.86 1.86-5.09 1.86-5.09ZM2.29 90.95c1.09-1.61 1.92-3.66 1.92-3.66 9.84-2.56 13.49-1.34 13.49-1.34-1.96 3.41-9.48 7.57-9.48 7.57-3.44-2.24-5.93-2.57-5.93-2.57ZM1.34 90.63l-.38.39c-.58-.13-2.26.08-3.21.37.38-1.1.7-3.3.38-3.44-.28-.12-1.49 1.34-2.1 2.38l-1.08-1.61v-.62c.52-3.72 3.28-7.39 3.28-7.39 5.31-7.52 6.98-7.78 6.98-7.78.95 2.84-1.02 10.98-1.02 10.98-.75 4.07-2.85 6.73-2.85 6.73ZM.23 99.06c-.8-.46-1.58-1.03-2.02-1.36.02-.76-.17-2.14-.42-2.93 1.16.34 3.02.59 3.15.29.11-.26-1.13-1.31-2.14-1.96.64-.36 1.41-.9 1.9-1.34h.53v.02c4.17.25 9.65 4.69 9.65 4.69 6.19 4.64 5.86 5.64 5.86 5.64-2.47.93-9.84-.81-9.84-.81-3.36-.67-5.43-1.54-6.66-2.24ZM-5.5 156.6s-.02.02-.04.01c-.52-.51-10.44-10.73 3.79-22.01 1.23-.98 5.33-3.4 9.19-12.01.01-.02.05-.03.05 0 .05 1.15.42 12.97-7.14 21.02-3.82 4.07-3.75 9.04-5.85 13ZM2.43 172.34v.03c.53.12 10.97 2.35 12.46-11.17.13-1.17.03-4.74 3.96-10.62.01-.02 0-.04-.02-.03-.75.42-8.39 4.9-10.49 12.9-1.06 4.04-4.24 5.98-5.91 8.89Z" class="cls-2"/><path d="M3.69 168.28c-.17-.61-3.8-13.87 7.61-17.12.02 0 .04.02.02.03-1.03.45-4.44 2.22-4.37 5.86.03 1.47 1.11 8.17-3.23 11.24h-.03ZM-7.48 35.04c-.07.04-.06.14.01.16 1.38.3 9.38 1.63 14.03-6.99 0 0 2.66-4.37 3.54-7.84.01-.04-.05-.08-.07-.04-.56.78-2.18 5.19-7.68 7.89-3.43 1.68-5.82 4.5-9.82 6.82ZM-4.89 28.13c-.02.07.07.13.12.08 1.39-1.42 10.78-5.07 9.67-15.42-.19-1.8-1.33-5.59.54-12.22.02-.06-.06-.11-.09-.05C4.58 2.27.44 6.88 0 13.63c-.25 3.89-3.44 9.48-4.89 14.5ZM180.76 200.3s-20.01-16.86 3.47-29.73c.98-.54 3.06-1.26 5.37-5.16 0 0 .35 3.19-3.29 6.5-1.37 1.25-8.72 10.5-5.55 28.4M165.87 177.72s-.79-11.72 4.2-14.2c1.87-.93 9.62-1.93 14.28-5.8 0 0 3.83-3.55 4.89-6.15 0-.02.03-.02.04 0 .14 1.19 1.65 17.11-15.42 16.98-1.16 0-3.27-.02-7.99 9.16M165.14 155.95s-.11 0-.1-.05c.3-1.51 2.75-11.81 14.63-10.72 0 0 6.12.53 8.07-4.99.02-.05.09-.08.12-.04.55.8-.67 8.74-10.15 8.41-.69-.02-5.1-.02-12.57 7.38ZM160.42 180.57c.07.05.06.16-.03.18-1.57.21-10.63.94-15.02-9.14 0 0-2.56-5.13-3.21-9.09 0-.05.06-.08.09-.04.55.92 1.95 6 7.84 9.54 3.67 2.2 6.08 5.58 10.33 8.54ZM156.85 151.88s.08.06.11.02c.69-.74 16.55-20.77.95-31.91-.06-.04-.15.04-.11.1.93 1.46 5.18 8.49 2.78 11.91 0 0-8.56 10.99-3.73 19.88ZM172.35 135.63c.47-1.66 1.91-8.35-4.08-11.57-.11-.06-.13-.2-.03-.27.87-.61 4.31-2.72 6.93.29.05.05.12.08.18.05.86-.37 6.81-2.72 6.04 4.5-.01.09.06.18.15.19.98.04 5.76.49 4.49 5.55-.03.11-.16.17-.26.11-.9-.64-5.07-2.99-13.19 1.35-.13.07-.28-.04-.24-.18Z" class="cls-2"/><path d="M180.76 200.3s-14.62-10.18-20.72-29.01c-.98-3.01-4.63-17.86 8.95-31.85.06-.06.16 0 .12.07-1.73 2.92-10.01 17.8-6.22 29.6.06.17 4.67 18.22 17.88 31.18ZM158.17 172.62c.02.08-.09.14-.14.08-1.42-1.72-11.57-6.68-9.35-18.14.39-1.99 2.01-6.12.55-13.7-.01-.07.08-.11.1-.04.7 2.02 4.89 7.56 4.74 15.14-.09 4.36 2.95 10.91 4.1 16.66ZM167.82 122.62s1.29-1.61 3.72-1.3c0 0-3.16-17.94-7.37-19.39 0 0-3.8 9.71 3.64 20.69ZM172.79 121.26s1.91-.57 3.2 1.06c0 0 5.42-16.82.87-28.93 0 0-9.56 9.07-4.07 27.86ZM176.78 122.37s3.57-1.04 4.96 1.36c0 0 10.58-11.94 11.66-27.55 0 0-10.95 6.4-16.62 26.18ZM182.41 124.82s.47.99.4 2.68c0 0 1.75 0 2.75.83 0 0 15.85-7.39 19.56-18.22 0 0-10.21-.3-22.7 14.7ZM186.44 128.95s2.65 2.36.87 5.42c0 0 17.32-6.01 18.37-10 0 0-2.74-2.69-19.24 4.58ZM138.61 133.25c-.16-1.26-1.15-7.33-5.74-10.15-.08-.05-.08-.15 0-.2 1.63-.9 14.59-7.49 16.68 7.58.01.08-.06.16-.14.14-1.03-.25-6.65-1.38-10.61 2.68-.07.07-.18.04-.19-.05Z" class="cls-2"/><circle cx="149.94" cy="119.5" r="1.36" class="cls-2"/><circle cx="146.93" cy="114.7" r="1.36" class="cls-2"/><circle cx="141.6" cy="115.37" r="1.36" class="cls-2"/><path d="M144.97 114.81h.72v6.97h-.72z" class="cls-2" transform="rotate(-155.99 145.324 118.297)"/><path d="M141.03 115.52h.72v6.97h-.72z" class="cls-2" transform="rotate(-176.7 141.383 119.014)"/><path d="M146.81 118.91h.72v6.97h-.72z" class="cls-2" transform="rotate(-134.85 147.172 122.4)"/><path d="M130.32 152.5s.03.06.05.03c.92-1.64 7.75-14.35-.71-17.01-.86-.27-3.39-1.19-7.59 1-.03.01-.02.06 0 .06 1.51-.2 12.71-1.1 8.25 15.92ZM137.42 150.37s0 .02.01.03c.37.06 7.73 1.08 7.45-11.36 0-.19-.26-2.98 4.45-5.97.02-.02.02-.06 0-.05-1.23.27-11.13 2.85-11.9 17.36Z" class="cls-2"/><path d="M138.43 135.73s.41 14.43-6.66 21.39c-.92.9-5.29 4.12-7.26 9.56l-2.95 6.78s-.47-11.06 5.62-15.59c4.1-3.05 7.56-7.56 11.25-22.14ZM111.01 127.61s-3.41-3.44.58-11.56c0 0 3.6-7.36 9.16-9.91.04-.02.09.04.06.07-.42.49-1.28 2.08-.88 6.72 0 0 3.69 15.28-8.92 14.68Z" class="cls-2"/><path d="M109.73 127.43c-.58-.91-3.13-5.79 1.79-14 0-.01.01-.03 0-.05-.11-.46-1.66-6.9-4.99-9.11-.06-.04-.14.03-.12.09.31.74.96 3.2-1.42 7.51 0 0-6.33 13.04 4.64 15.68.07.02.13-.05.09-.11ZM112.37 112.61c-.23-.91-.95-3.51-2.01-5.12-.03-.04-.03-.08 0-.12.25-.43 1.84-3.05 3.25-3.48.13-.04.25 0 .37.12.49.47 1.76 2.1 2.36 3.78.02.05 0 .1-.03.13-.35.32-2.22 2.1-3.69 4.71-.06.11-.22.1-.25-.02ZM109.99 129.83c-.83 1.64-4.23 7.26-1.47 21.05.02.08 4.9 17.89-1.52 25.48-.04.05.02.13.08.1.9-.45 4.41-2.57 5.29-8.15 0 0 1.43-5.86-2.14-20.59-.4-1.66-1.98-10.56-.12-17.85.02-.08-.08-.12-.12-.05ZM106.56 143.71c-1.04-.1-12.68-1.61-9.04-20.41.02-.08.14-.08.14 0 .14 1.55.77 6.1 3.47 7.99.08.06 5.24 4.02 5.5 12.35 0 .04-.03.08-.07.08ZM111.18 139.7c.86.14 15.42 2.15 15.85-21.73 0-.04-.06-.06-.08-.02-.38 1.17-2.1 5.97-5.64 8.49-.12.09-7.71 4.91-10.16 13.21 0 .02 0 .05.03.05Z" class="cls-2"/><g><path d="M94.09 163.78c-1.53-1.34-5.13-2.46-5.13-2.46-2.76-10.76-1.59-12.92-1.59-12.92 2.57.65 8.54 9.54 8.54 9.54-1.62 2.64-1.82 5.84-1.82 5.84ZM103.17 166.63c1.1-1.8 1.89-4.05 1.89-4.05 10.51-3.26 14.51-2.12 14.51-2.12-1.94 3.78-9.87 8.65-9.87 8.65-3.83-2.25-6.54-2.48-6.54-2.48ZM93.95 164.93l.05.07c.07.69.24 1.57.44 2.25-1.25-.33-3.46-.54-3.59-.2-.13.34 1.82 1.76 2.96 2.3-.92.52-2.28 1.6-2.64 2.16l-.26-.03c-3.82-.18-7.62-2.82-7.62-2.82-7.99-4.81-9.24-7.48-9.24-7.48 1.6-1.22 11.87.52 11.87.52 5.75.97 8.03 3.25 8.03 3.25ZM102.12 166.34l-.39.44c-.63-.11-2.44.2-3.46.56.35-1.21.6-3.6.24-3.73-.31-.12-1.54 1.52-2.15 2.67l-1.24-1.69-.03-.67c.37-4.05 3.17-8.15 3.17-8.15 5.36-8.39 7.16-8.76 7.16-8.76 1.17 3.02-.55 11.92-.55 11.92-.61 4.44-2.75 7.42-2.75 7.42Z" class="cls-2"/></g><path d="M191.68 156.14s23.22 12.27 26.35-14.42c.13-1.11.02-3.32 2.78-6.94 0 0-3.1.88-4.81 5.51-.64 1.75-6.48 12.06-24.33 15.85M218.29 161.49s11.2-3.68 11.63-9.25c.16-2.09-1.83-9.68.02-15.46 0 0 1.86-4.9 3.88-6.87.02-.02 0-.04-.01-.03-1.16.32-16.54 4.91-10 20.74.44 1.07 1.25 3.04-5.52 10.88M238.82 153.98c-.02.05.03.11.08.08 1.29-.84 9.96-7.01 4.47-17.65 0 0-2.79-5.49 1.61-9.39.04-.03.04-.11 0-.12-.95-.22-7.88 3.92-4.01 12.61.28.63 1.94 4.73-2.14 14.47ZM245.72 160.17s-.08-.05-.06-.1c.43-.92 13.09-23.22 29.34-12.89.06.04.02.15-.05.14-1.71-.32-9.85-1.63-12.13 1.9 0 0-7 12.1-17.09 10.95ZM255.01 139.62c1.37-1.06 7.05-4.92 12.3-.56.09.08.24.04.27-.08.24-1.04.91-5.03-2.87-6.34-.07-.02-.12-.08-.11-.15.02-.94-.04-7.36-6.46-3.93-.08.04-.19.02-.23-.07-.41-.9-2.62-5.17-6.86-2.09-.1.07-.1.22 0 .28.94.6 4.69 3.59 3.71 12.78-.02.15.15.25.26.16Z" class="cls-2"/><path d="M191.68 156.14s14.98 9.77 34.79 8.36c3.17-.23 18.36-2.41 26.26-20.31.03-.07-.07-.15-.11-.08-2.07 2.71-12.79 16.01-25.2 16.93-.18.01-18.71 2.51-35.74-4.9ZM225.93 166.74c-.08.02-.1.13-.02.16 2.13.67 10.57 8.25 20.39 1.87 1.71-1.11 4.94-4.17 12.54-5.66.07-.01.08-.11 0-.11-2.15.11-8.87-1.71-15.87 1.28-4.03 1.72-11.26 1.37-17.05 2.46ZM268.82 138.95s1.01-1.8-.2-3.95c0 0 17.88-3.81 20.81-.44 0 0-7.6 7.19-20.62 4.4ZM268.21 133.81s-.19-1.99-2.19-2.58c0 0 13.61-11.37 26.59-11.69 0 0-4.84 12.3-24.39 14.27ZM265.68 130.52s-.37-3.71-3.13-4.1c0 0 7.13-14.34 21.24-21.22 0 0-1.83 12.6-18.11 25.32ZM261.28 126.2s-1.1-.07-2.65.64c0 0-.66-1.63-1.81-2.24 0 0 .91-17.53 9.59-25.05 0 0 4.12 9.39-5.14 26.66ZM255.92 124s-3.19-1.58-5.37 1.23c0 0-.92-18.37 2.39-20.86 0 0 3.54 1.53 2.98 19.62Z" class="cls-2"/></g></svg>