<svg xmlns="http://www.w3.org/2000/svg" id="Layer_2" width="1791" height="350"><defs><style>.cls-1{fill:#a7bd9f}</style></defs><path d="M901.33 281.63c3.27-2.86 10.99-5.27 10.99-5.27 5.92-23.05 3.41-27.69 3.41-27.69-5.51 1.39-18.3 20.44-18.3 20.44 3.47 5.65 3.9 12.52 3.9 12.52ZM909.47 300.26c3.95 5.95 5.52 14.03 5.52 14.03 21.9 5.63 27.4 3.35 27.4 3.35-4.42-8.54-23.69-20.15-23.69-20.15-3.33 1.93-9.22 2.77-9.22 2.77ZM890.03 306.69c-6.39 4.08-12.44 5.3-12.44 5.3-2.83 7.44-4.63 20.19-4.63 20.19-1.22 8.32-.04 11.46-.04 11.46 3.26-.99 8.4-7.46 8.4-7.46 6.62-6.85 12.48-17.51 12.48-17.51-2.55-4.43-3.77-11.98-3.77-11.98ZM881.88 287.74c-2.36-3.86-4.06-8.68-4.06-8.68-22.51-6.99-31.1-4.55-31.1-4.55 4.17 8.11 21.14 18.54 21.14 18.54 8.21-4.83 14.01-5.3 14.01-5.3ZM901.63 284.11l-.11.14a28.59 28.59 0 0 1-.94 4.81c2.67-.71 7.4-1.16 7.68-.42.28.73-3.89 3.77-6.34 4.92 1.97 1.12 4.89 3.43 5.66 4.62l.56-.07c8.18-.38 16.34-6.05 16.34-6.05 17.12-10.31 19.8-16.02 19.8-16.02-3.44-2.62-25.43 1.11-25.43 1.11-12.32 2.07-17.21 6.96-17.21 6.96ZM884.12 287.11l.84.94c1.35-.24 5.23.43 7.4 1.19-.76-2.59-1.28-7.71-.51-8 .67-.25 3.3 3.26 4.61 5.73l2.66-3.62.05-1.44c-.79-8.67-6.79-17.47-6.79-17.47-11.49-17.97-15.34-18.76-15.34-18.76-2.5 6.47 1.18 25.54 1.18 25.54 1.3 9.5 5.89 15.9 5.89 15.9ZM885.77 306.76c1.91-.97 3.77-2.21 4.82-2.94.03-1.77.62-4.93 1.29-6.74-2.72.66-7.05 1.03-7.32.33-.24-.62 2.76-2.92 5.17-4.3-1.44-.9-3.17-2.25-4.25-3.32h-1.22v.02c-9.69.14-22.84 9.83-22.84 9.83-14.82 10.08-14.17 12.42-14.17 12.42 5.61 2.42 22.87-.83 22.87-.83 7.85-1.19 12.74-2.98 15.66-4.47ZM905.84 299.01c-1.48-.11-3.5-.48-5.08-.93.57 2.71.85 6.49.2 6.74-.69.26-3.43-3.43-4.71-5.91-.86 1.64-2.78 4.18-4.12 5.44-.25 6.43 4.34 14.86 4.34 14.86 12.05 20.56 17.91 23.12 17.91 23.12 2.85-6.39-1.74-28.13-1.74-28.13-2.02-9.7-5.98-14.32-6.8-15.2ZM962.9 364.99s-8.52-1.22-11.59-17.02c0 0-2.79-14.3 2.35-23.88.04-.08.17-.04.16.04-.07 1.14.42 4.33 5.97 10.48 0 0 21.63 17.71 3.1 30.39Z" class="cls-1"/><path d="M960.9 366.1c-1.8-.68-10.65-4.85-12.49-21.78 0-.03-.02-.06-.04-.08-.65-.54-9.75-8.01-16.86-7.57-.13 0-.18.19-.06.26 1.23.72 4.8 3.51 6.04 12.17 0 0 5.02 25.29 23.41 17.25.11-.05.12-.21.01-.26ZM948.74 342.26c-1.31-1.05-5.12-3.96-8.34-5.1-.08-.03-.13-.08-.14-.16-.1-.88-.67-6.31.88-8.42.15-.2.36-.26.65-.23 1.19.14 4.75 1.08 7.4 2.82.08.05.12.13.1.22-.15.83-.89 5.36-.17 10.63.03.22-.21.37-.38.23ZM976.12 381.94c1.37-.72 24.18-13.5-.84-47.83-.05-.06-.15-.02-.13.06.72 2.06 3.44 10.72 1.1 18.09-.08.25-5.67 15.24-.22 29.64.01.04.05.06.09.04ZM968.96 273.96c.34-2.69 2.46-15.7 12.3-21.74.16-.1.16-.33 0-.42-3.5-1.92-31.25-16.04-35.73 16.24-.02.18.13.33.3.29 2.2-.53 14.26-2.95 22.72 5.75.15.15.39.09.42-.11Z" class="cls-1"/><circle cx="944.69" cy="244.49" r="2.91" class="cls-1"/><circle cx="951.13" cy="234.2" r="2.91" class="cls-1"/><circle cx="962.56" cy="235.63" r="2.91" class="cls-1"/><path d="M953.79 234.43h1.54v14.93h-1.54z" class="cls-1" transform="rotate(-24.01 954.762 241.908)"/><path d="M962.24 235.97h1.54v14.93h-1.54z" class="cls-1" transform="rotate(-3.3 964.072 243.704)"/><path d="M949.85 243.23h1.54v14.93h-1.54z" class="cls-1" transform="rotate(-45.15 950.609 250.691)"/><path d="M986.72 315.19c.02.07-.07.12-.1.06-1.98-3.52-16.61-30.74 1.52-36.44 1.83-.58 7.27-2.56 16.27 2.15.06.03.05.13-.02.13-3.24-.42-27.22-2.36-17.67 34.12ZM971.51 310.62s0 .05-.03.06c-.8.13-16.56 2.31-15.96-24.35 0-.41.56-6.39-9.53-12.79-.05-.03-.05-.12.01-.11 2.63.57 23.85 6.11 25.5 37.18Z" class="cls-1"/><path d="M969.35 279.26s-.88 30.91 14.27 45.83c1.96 1.93 11.34 8.84 15.55 20.49l6.33 14.52s1-23.71-12.05-33.41c-8.79-6.54-16.2-16.19-24.09-47.44ZM1120.38 346.11s-22.34-.2-30.08-12.93c-2.27-3.74-2.58-21.36-9.49-31.56 0 0-6.62-8.71-12.01-11.78-.09-.05-.05-.18.05-.16 4.24.89 31.92 7.89 33.74 38.98.14 2.39 3.44 8.21 17.79 17.44M1062.01 313.26s-.04.1-.06.06c-1.55-2.41-18.33-29.47-4.63-53.83 2.03-3.61 5.88-16.94-1.69-27.16-.03-.04 0-.09.03-.07 1.82 1.13 18.65 12.47 5.1 39.05-1.91 3.75-4.21 16.46 1.25 41.96ZM1075.89 346.39c.14.05.18.24.07.34-1.96 2-36.13 33.47-56.41-7.74 0 0 14.19 12.5 37.72 7.41 8.19-1.77 14.43-1.61 18.62-.02ZM1032.02 299.51c.19-2.36 3.67-53.24-40.21-56.7-.08 0-.13.12-.05.14 4.06.88 17.77 4.82 20.18 18.1.98 5.38 1.93 30.52 19.99 38.5.04.02.09 0 .09-.05Z" class="cls-1"/><path d="M1134.99 353.52c.13.02.13.2 0 .19-9.53-.56-103.18-.31-98.99-90.39 0-.12.22-.14.22-.02 2.45 62.2 59.66 84.61 98.78 90.22Z" class="cls-1"/><path d="M1061.66 336.09s.03.06 0 .08c-1.3.72-27.03 14.38-41.05-20-1.22-2.98-3.64-12.41-18.33-24.9-.04-.03-.03-.11.02-.1 2.29.55 25.69 6.57 37.18 26 5.81 9.82 15.6 12.53 22.18 18.91ZM1297.01 329.71s-49.57 26.19-56.26-30.78c-.28-2.37-.04-7.1-5.94-14.81 0 0 6.62 1.87 10.26 11.76 1.37 3.73 13.84 25.75 51.94 33.84M1240.2 341.13s-23.91-7.86-24.82-19.75c-.34-4.46 3.91-20.66-.04-33.01 0 0-3.97-10.45-8.29-14.66-.03-.03-.02-.09.03-.07 2.48.69 35.31 10.48 21.34 44.28-.95 2.29-2.67 6.49 11.78 23.23M1196.37 325.11c.05.12-.07.23-.18.16-2.76-1.8-21.25-14.95-9.54-37.67 0 0 5.96-11.72-3.43-20.04-.08-.07-.09-.24.02-.26 2.02-.46 16.81 8.36 8.56 26.91-.6 1.35-4.14 10.1 4.57 30.9ZM1181.65 338.31c.11-.01.18-.11.14-.21-.91-1.97-27.95-49.57-62.62-27.52-.14.09-.05.32.11.29 3.65-.68 21.02-3.47 25.89 4.06 0 0 14.94 25.83 36.48 23.39ZM1161.81 294.45c-2.92-2.26-15.05-10.51-26.26-1.19-.2.17-.51.09-.57-.16-.52-2.21-1.94-10.74 6.14-13.53.14-.05.25-.17.24-.32-.05-2 .08-15.72 13.78-8.39.18.1.41.03.5-.15.87-1.92 5.59-11.04 14.64-4.46.2.15.22.46 0 .6-2.01 1.28-10.02 7.67-7.91 27.28.03.31-.31.53-.56.34Z" class="cls-1"/><path d="M1297.01 329.71s-31.97 20.86-74.27 17.86c-6.77-.48-39.19-5.14-56.06-43.36-.07-.16.14-.31.24-.18 4.41 5.79 27.31 34.17 53.79 36.14.39.03 39.95 5.36 76.3-10.46ZM1223.89 352.34c.18.03.21.28.04.34-4.55 1.43-22.56 17.61-43.54 4-3.65-2.37-10.55-8.91-26.77-12.09-.15-.03-.16-.24 0-.24 4.58.23 18.94-3.65 33.89 2.74 8.6 3.68 24.04 2.92 36.39 5.25ZM1132.33 293.01s-2.16-3.85.42-8.44c0 0-38.17-8.14-44.43-.95 0 0 16.23 15.35 44.02 9.38ZM1133.63 282.04s.4-4.26 4.69-5.51c0 0-29.05-24.27-56.76-24.96 0 0 10.34 26.26 52.07 30.47ZM1139.04 275.02s.8-7.93 6.69-8.75c0 0-15.22-30.61-45.35-45.29 0 0 3.91 26.9 38.66 54.04ZM1148.42 265.8s2.35-.14 5.65 1.37c0 0 1.4-3.48 3.87-4.79 0 0-1.94-37.42-20.48-53.49 0 0-8.8 20.04 10.96 56.91ZM1159.88 261.11s6.81-3.37 11.46 2.63c0 0 1.97-39.22-5.1-44.52 0 0-7.55 3.27-6.35 41.89ZM1649.23 339.45s-28.6-48.21 27.97-57.71c2.36-.4 7.09-.39 14.5-6.67 0 0-1.54 6.71-11.24 10.83-3.66 1.55-25.03 15.1-31.23 53.55M1635.01 283.28s6.66-24.27 18.5-25.77c4.44-.56 20.83 2.88 32.97-1.67 0 0 10.24-4.48 14.24-9 .03-.04.09-.02.08.03-.56 2.51-8.72 35.78-43.17 23.5-2.33-.83-6.61-2.35-22.62 12.92M1648.85 238.71c-.11.05-.24-.06-.17-.17 1.66-2.84 13.89-21.97 37.16-11.39 0 0 12 5.37 19.84-4.41.07-.09.23-.1.26 0 .56 2-7.52 17.21-26.45 9.88-1.38-.54-10.3-3.63-30.63 6.09ZM1621.95 285.22c.11.15 0 .37-.19.34-3.32-.68-22.17-5.59-23.95-29.06 0 0-1.56-12.18-.1-20.65.02-.11.18-.12.2-.01.47 2.26-.29 13.52 9.14 24.83 5.87 7.04 8.36 15.57 14.89 24.56ZM1634.94 224.66c.02.1.12.17.22.13 1.92-1.01 48.13-30.37 24.4-63.91-.09-.13-.32-.03-.28.13.86 3.61 4.51 20.82-2.77 26.06 0 0-25.06 16.2-21.55 37.6ZM1677.76 202.68c2.11-3.03 9.76-15.55-.11-26.29-.18-.19-.12-.5.13-.58 2.18-.63 10.63-2.47 13.82 5.46.06.14.18.24.33.23 2-.15 15.7-.7 9.06 13.35-.09.18-.01.41.18.49 1.96.77 11.3 5.04 5.18 14.4-.14.21-.45.24-.6.03-1.38-1.94-8.16-9.62-27.63-6.55-.31.05-.54-.28-.37-.54Z" class="cls-1"/><path d="M1649.23 339.45s-22.41-30.9-21.5-73.3c.15-6.79 3.2-39.39 40.53-58.14.15-.08.32.12.19.23-5.57 4.69-32.78 28.96-33.44 55.51 0 .39-3.38 40.16 14.22 75.69ZM1623.01 267.54c-.02.18-.27.22-.33.05-1.66-4.47-18.71-21.66-6.15-43.29 2.19-3.76 8.38-10.98 10.75-27.33.02-.15.24-.17.24-.02 0 4.59 4.58 18.73-1.06 33.98-3.25 8.77-1.72 24.16-3.44 36.6ZM1677.75 173.16s3.74-2.35 8.45 0c0 0 6.24-38.52-1.25-44.43 0 0-14.53 16.97-7.2 44.43ZM1688.76 173.92s4.27.19 5.73 4.41c0 0 22.8-30.21 22.13-57.92 0 0-25.72 11.62-27.86 53.51ZM1696.05 178.97s7.96.41 9.07 6.25c0 0 29.82-16.71 43-47.53 0 0-26.67 5.23-52.07 41.28ZM1705.72 187.89s.26 2.34-1.09 5.71c0 0 3.55 1.23 4.98 3.63 0 0 37.28-3.79 52.41-23.1 0 0-20.45-7.8-56.29 13.76ZM1710.97 199.1s3.7 6.63-2.06 11.57c0 0 39.27.03 44.22-7.3 0 0-3.64-7.38-42.15-4.28ZM1415.64 419.97s42.86-36.13-7.44-63.7c-2.1-1.15-6.56-2.7-11.5-11.07 0 0-.75 6.84 7.05 13.92 2.94 2.67 18.68 22.49 11.89 60.84M1447.53 371.59s1.68-25.11-9-30.42c-4.01-1.99-20.62-4.13-30.59-12.42 0 0-8.2-7.6-10.48-13.18-.02-.04-.07-.05-.08 0-.29 2.56-3.53 36.66 33.04 36.39 2.48-.02 7.02-.04 17.11 19.63M1449.11 324.95c.09.09.24.02.22-.1-.63-3.23-5.89-25.31-31.35-22.97 0 0-13.1 1.13-17.29-10.69-.04-.1-.19-.17-.25-.08-1.19 1.7 1.45 18.72 21.74 18.03 1.48-.05 10.92-.05 26.93 15.82ZM1459.22 377.72c-.16.11-.12.35.07.38 3.36.45 22.77 2.01 32.17-19.58 0 0 5.48-10.99 6.88-19.47.02-.11-.13-.17-.19-.08-1.18 1.98-4.17 12.86-16.8 20.44-7.86 4.72-13.02 11.96-22.14 18.3ZM1466.87 316.25c-.05.09-.17.13-.24.05-1.48-1.58-35.47-44.5-2.03-68.38.13-.09.31.08.23.21-2 3.13-11.1 18.18-5.95 25.52 0 0 18.34 23.54 8 42.59ZM1433.65 281.41c-1-3.55-4.1-17.9 8.75-24.79.23-.12.28-.44.06-.59-1.86-1.31-9.23-5.82-14.85.61-.1.11-.25.16-.39.1-1.84-.8-14.6-5.82-12.95 9.63.02.2-.12.4-.33.4-2.1.08-12.33 1.05-9.63 11.89.06.24.35.37.55.23 1.94-1.38 10.87-6.41 28.25 2.89.28.15.61-.09.52-.39Z" class="cls-1"/><path d="M1415.64 419.97s31.32-21.82 44.4-62.16c2.09-6.46 9.93-38.26-19.17-68.23-.12-.12-.34.01-.26.16 3.72 6.26 21.44 38.13 13.34 63.42-.12.37-10.01 39.04-38.31 66.81ZM1464.03 360.67c-.04.18.18.3.3.16 3.03-3.68 24.79-14.31 20.03-38.86-.83-4.27-4.3-13.12-1.17-29.35.03-.15-.17-.24-.22-.1-1.5 4.33-10.48 16.19-10.16 32.44.18 9.35-6.31 23.38-8.78 35.7ZM1443.37 253.54s-2.76-3.45-7.98-2.78c0 0 6.77-38.43 15.79-41.55 0 0 8.15 20.81-7.81 44.32ZM1432.71 250.64s-4.1-1.23-6.86 2.28c0 0-11.61-36.03-1.86-61.98 0 0 20.47 19.43 8.72 59.7ZM1424.17 253.02s-7.65-2.23-10.62 2.92c0 0-22.67-25.59-24.98-59.02 0 0 23.47 13.71 35.6 56.1ZM1412.11 258.26s-1.02 2.13-.85 5.75c0 0-3.75 0-5.89 1.79 0 0-33.96-15.83-41.9-39.04 0 0 21.88-.64 48.64 31.5ZM1403.46 267.12s-5.67 5.05-1.86 11.61c0 0-37.1-12.88-39.36-21.43 0 0 5.86-5.77 41.22 9.82ZM1505.94 276.33c.34-2.69 2.46-15.7 12.3-21.74.16-.1.16-.33 0-.42-3.5-1.92-31.25-16.04-35.73 16.24-.02.18.13.33.3.29 2.2-.53 14.26-2.95 22.72 5.75.15.15.39.09.42-.11Z" class="cls-1"/><circle cx="1481.68" cy="246.87" r="2.91" class="cls-1"/><circle cx="1488.11" cy="236.57" r="2.91" class="cls-1"/><circle cx="1499.55" cy="238" r="2.91" class="cls-1"/><path d="M1490.78 236.8h1.54v14.93h-1.54z" class="cls-1" transform="rotate(-24.01 1491.846 244.246)"/><path d="M1499.23 238.34h1.54v14.93h-1.54z" class="cls-1" transform="rotate(-3.3 1501.669 245.988)"/><path d="M1486.83 245.61h1.54v14.93h-1.54z" class="cls-1" transform="rotate(-45.15 1487.595 253.068)"/><path d="M1523.71 317.56c.02.07-.07.12-.1.06-1.98-3.52-16.61-30.74 1.52-36.44 1.83-.58 7.27-2.56 16.27 2.15.06.03.05.13-.02.13-3.24-.42-27.22-2.36-17.67 34.12ZM1508.5 313s0 .05-.03.06c-.8.13-16.56 2.31-15.96-24.35 0-.41.56-6.39-9.53-12.79-.05-.03-.05-.12.01-.11 2.63.57 23.85 6.11 25.5 37.18Z" class="cls-1"/><path d="M1506.34 281.63s-.88 30.91 14.27 45.83c1.96 1.93 11.34 8.84 15.55 20.49l6.33 14.52s1-23.71-12.05-33.41c-8.79-6.54-16.2-16.19-24.09-47.44ZM1766.92 115.6c-2.52-1-14.93-5.43-24.98.27-.17.09-.36-.02-.36-.21 0-3.99 1.04-35.12 31.47-23.45.17.06.23.27.11.4-1.53 1.67-9.46 11.06-5.94 22.67.06.2-.11.39-.3.31Z" class="cls-1"/><circle cx="1752.84" cy="80.12" r="2.91" class="cls-1"/><circle cx="1740.71" cy="80.79" r="2.91" class="cls-1"/><circle cx="1736.45" cy="91.49" r="2.91" class="cls-1"/><path d="M1745.03 80.04h1.54v14.93h-1.54z" class="cls-1" transform="rotate(142.88 1745.817 87.582)"/><path d="M1742.3 88.19h1.54v14.93h-1.54z" class="cls-1" transform="rotate(122.17 1743.093 95.71)"/><path d="M1754.64 80.84h1.54v14.93h-1.54z" class="cls-1" transform="rotate(164.02 1755.412 88.3)"/><path d="M1794.45 151.06c.05.05.14 0 .1-.06-2.13-3.43-18.9-29.39-32.65-16.26-1.39 1.33-5.75 5.13-5.97 15.28 0 .07.1.11.12.04 1.19-3.04 11.08-24.98 38.41 1ZM1797.8 135.54s.05.03.06 0c.5-.64 10.02-13.39-13.61-25.73-.36-.19-5.86-2.6-6.6-14.52 0-.06-.08-.1-.1-.04-.77 2.58-6.17 23.83 20.25 40.29Z" class="cls-1"/><path d="M1771.37 118.51s27.5 14.15 33.25 34.63c.75 2.65 2.27 14.19 10.44 23.51l9.66 12.55s-21.24-10.57-23.44-26.68c-1.48-10.86-6.36-22-29.91-44ZM1565.08 264.24s7.3-7.36-1.24-24.77c0 0-7.71-15.77-19.62-21.23-.09-.04-.19.08-.13.16.9 1.05 2.75 4.46 1.88 14.41 0 0-7.9 32.73 19.11 31.44Z" class="cls-1"/><path d="M1567.81 263.85c1.23-1.96 6.7-12.4-3.83-30-.02-.03-.03-.07-.02-.11.23-.99 3.55-14.78 10.69-19.53.13-.09.31.05.25.2-.66 1.59-2.06 6.86 3.05 16.08 0 0 13.56 27.94-9.95 33.59-.14.03-.27-.11-.2-.24ZM1562.16 232.1c.5-1.96 2.04-7.53 4.31-10.96.06-.08.06-.17.01-.26-.54-.92-3.94-6.54-6.96-7.45-.29-.09-.54 0-.79.26-1.04 1.01-3.77 4.49-5.06 8.09a.26.26 0 0 0 .06.29c.75.69 4.75 4.49 7.9 10.09.13.23.47.21.53-.05ZM1567.27 269c1.77 3.51 9.06 15.55 3.15 45.11-.04.18-10.51 38.33 3.26 54.59.1.11-.04.28-.17.21-1.92-.97-9.46-5.5-11.33-17.45 0 0-3.06-12.56 4.58-44.1.86-3.55 4.25-22.63.26-38.25-.04-.17.17-.26.25-.11ZM1574.62 298.73c2.23-.21 27.17-3.45 19.37-43.73-.03-.17-.29-.18-.31 0-.3 3.32-1.65 13.07-7.44 17.13-.18.12-11.24 8.61-11.78 26.45 0 .09.06.17.15.16ZM1564.71 290.13c-1.84.3-33.05 4.61-33.96-46.56 0-.09.13-.13.16-.04.81 2.5 4.49 12.8 12.09 18.18.26.18 16.52 10.52 21.76 28.31.01.05 0 .1-.06.11ZM1747.52 265.54s-8.52-1.22-11.59-17.02c0 0-2.79-14.3 2.35-23.88.04-.08.17-.04.16.04-.07 1.14.42 4.33 5.97 10.48 0 0 21.63 17.71 3.1 30.39Z" class="cls-1"/><path d="M1745.52 266.65c-1.8-.68-10.65-4.85-12.49-21.78 0-.03-.02-.06-.04-.08-.65-.54-9.75-8.01-16.86-7.57-.13 0-.18.19-.06.26 1.23.72 4.8 3.51 6.04 12.17 0 0 5.02 25.29 23.41 17.25.11-.05.12-.21.01-.26ZM1733.36 242.8c-1.31-1.05-5.12-3.96-8.34-5.1-.08-.03-.13-.08-.14-.16-.1-.88-.67-6.31.88-8.42.15-.2.36-.26.65-.23 1.19.14 4.75 1.08 7.4 2.82.08.05.12.13.1.22-.15.83-.89 5.36-.17 10.63.03.22-.21.37-.38.23ZM1748.46 269.79c.59 3.21 1.79 14.83 20.51 31.44.11.1 26.16 20.11 25.19 37.77 0 .12.17.16.22.05.78-1.61 3.5-8.38-1.24-17.23 0 0-4.27-9.85-25.13-26.9-2.35-1.92-14.15-12.85-19.33-25.19-.06-.13-.25-.09-.22.05ZM1758.48 293.15c-1.58.98-19.72 11.32-34.73-19.24-.06-.13.1-.27.2-.16 1.86 2.05 7.64 7.82 13.5 7.61.18 0 11.75.07 21.04 11.61.05.06.04.14-.02.18ZM1760.74 282.49c1.37-.72 24.18-13.5-.84-47.83-.05-.06-.15-.02-.13.06.72 2.06 3.44 10.72 1.1 18.09-.08.25-5.67 15.24-.22 29.64.01.04.05.06.09.04ZM1349.18 384.42s6.04-21.51-4.02-32.49c-2.95-3.22-19.79-8.44-27.65-17.93 0 0-6.52-8.79-7.96-14.82-.03-.11-.16-.1-.17 0-.33 4.32-1.33 32.86 28.01 43.28 2.25.8 6.92 5.6 11.79 21.95M1333.93 319.19s.1 0 .07-.05c-1.88-2.16-23.18-25.83-50.4-19.47-4.03.94-17.91.92-25.61-9.21-.03-.04-.09-.03-.08.01.58 2.07 6.77 21.4 36.07 15.8 4.13-.79 16.98.55 39.94 12.92ZM1361.87 341.77c.01.15.18.24.31.17 2.47-1.32 42.23-25.35 8.32-56.33 0 0 8.04 17.12-3.42 38.29-3.99 7.37-5.57 13.4-5.21 17.87ZM1329.11 286.55c-2.32-.48-52.14-11.34-43.22-54.44.02-.08.15-.09.14-.01-.29 4.14-.33 18.41 11.75 24.43 4.89 2.44 28.76 10.37 31.39 29.95 0 .04-.03.08-.07.08Z" class="cls-1"/><path d="M1352.22 400.5c-.02.13.15.18.18.05 2.13-9.3 28.5-99.16-59.16-120.29-.12-.03-.2.17-.08.21 59.04 19.71 64.59 80.91 59.06 120.03Z" class="cls-1"/><path d="M1355.96 325.23s.05.05.08.02c1.06-1.05 21.35-21.94-7.74-45-2.52-2-10.91-6.96-18.79-24.55-.02-.05-.09-.06-.1 0-.11 2.35-.86 26.51 14.59 42.96 7.81 8.32 7.67 18.47 11.97 26.57ZM1601.32 341.72c3.27-2.86 10.99-5.27 10.99-5.27 5.92-23.05 3.41-27.69 3.41-27.69-5.51 1.39-18.3 20.44-18.3 20.44 3.47 5.65 3.9 12.52 3.9 12.52ZM1581.88 347.84c-2.36-3.86-4.06-8.68-4.06-8.68-22.51-6.99-31.1-4.55-31.1-4.55 4.17 8.11 21.14 18.54 21.14 18.54 8.21-4.83 14.01-5.3 14.01-5.3ZM1601.62 344.2l-.11.14a28.59 28.59 0 0 1-.94 4.81c2.67-.71 7.4-1.16 7.68-.42.28.73-3.89 3.77-6.34 4.92 1.97 1.12 4.89 3.43 5.66 4.62l.56-.07c8.18-.38 16.34-6.05 16.34-6.05 17.12-10.31 19.8-16.02 19.8-16.02-3.44-2.62-25.43 1.11-25.43 1.11-12.32 2.07-17.21 6.96-17.21 6.96ZM1584.12 347.21l.84.94c1.35-.24 5.23.43 7.4 1.19-.76-2.59-1.28-7.71-.51-8 .67-.25 3.3 3.26 4.61 5.73l2.66-3.62.05-1.44c-.79-8.67-6.79-17.47-6.79-17.47-11.49-17.97-15.34-18.76-15.34-18.76-2.5 6.47 1.18 25.54 1.18 25.54 1.3 9.5 5.89 15.9 5.89 15.9ZM1585.76 366.86c1.91-.97 3.77-2.21 4.82-2.94.03-1.77.62-4.93 1.29-6.74-2.72.66-7.05 1.03-7.32.33-.24-.62 2.76-2.92 5.17-4.3-1.44-.9-3.17-2.25-4.25-3.32h-1.22v.02c-9.69.14-22.84 9.83-22.84 9.83-14.82 10.08-14.17 12.42-14.17 12.42 5.61 2.42 22.87-.83 22.87-.83 7.85-1.19 12.74-2.98 15.66-4.47Z" class="cls-1"/><g><path d="M1708.71 314.54c2.09-3.1 7.98-6.81 7.98-6.81-.16-20.47-3.27-23.78-3.27-23.78-4.27 2.37-10.71 21.03-10.71 21.03 4.13 3.93 6 9.55 6 9.55ZM1719.58 328.23c4.59 4.08 7.68 10.45 7.68 10.45 19.45-.15 23.52-3.26 23.52-3.26-5.56-6.13-24.14-11.53-24.14-11.53-2.34 2.34-7.06 4.34-7.06 4.34ZM1704.84 337.87c-4.41 4.81-9.18 7.15-9.18 7.15-.71 6.81.6 17.81.6 17.81.82 7.18 2.5 9.53 2.5 9.53 2.5-1.54 5.34-8.06 5.34-8.06 4-7.15 6.51-17.31 6.51-17.31-3.1-3.12-5.77-9.13-5.77-9.13ZM1693.89 323.91c-2.81-2.69-5.29-6.32-5.29-6.32-20.26-.85-26.86 3.07-26.86 3.07 5.25 5.82 21.67 10.75 21.67 10.75 5.76-5.83 10.48-7.5 10.48-7.5ZM1709.5 316.53l-.06.14c.2 1.26.32 2.91.28 4.21 2.07-1.18 5.9-2.6 6.3-2.04.39.55-2.41 3.99-4.18 5.49 1.89.49 4.82 1.78 5.73 2.59l.45-.18c6.71-2.12 12.25-8.63 12.25-8.63 11.96-12.35 12.93-17.69 12.93-17.69-3.44-1.42-20.9 6.53-20.9 6.53-9.79 4.44-12.78 9.58-12.78 9.58ZM1695.61 322.89l.9.59c1.07-.49 4.45-.8 6.42-.64-1.2-1.99-2.76-6.13-2.19-6.54.5-.36 3.46 1.98 5.1 3.75l1.42-3.6-.27-1.21c-2.57-7.03-9.5-13.03-9.5-13.03-13.52-12.41-16.89-12.22-16.89-12.22-.65 5.93 6.62 20.98 6.62 20.98 3.18 7.62 8.4 11.92 8.4 11.92ZM1701.31 338.86c1.37-1.23 2.65-2.67 3.36-3.51-.37-1.48-.57-4.23-.42-5.89-2.11 1.14-5.64 2.42-6.01 1.89-.33-.46 1.65-3.04 3.35-4.72-1.4-.43-3.13-1.17-4.26-1.82l-.41.1s-.05.01-.07.02l-.55.14v.02c-8.02 2.25-16.82 13.21-16.82 13.21-10.1 11.65-9.04 13.45-9.04 13.45 5.2.77 18.83-5.73 18.83-5.73 6.27-2.72 9.94-5.29 12.04-7.17ZM1716.29 327.99c-1.25.23-3.02.37-4.43.34 1.07 2.13 2.14 5.21 1.65 5.56-.51.37-3.61-2.1-5.22-3.87-.35 1.56-1.39 4.09-2.23 5.43 1.21 5.41 6.89 11.4 6.89 11.4 14.56 14.43 19.99 15.28 19.99 15.28.96-5.94-7.65-23-7.65-23-3.82-7.62-8.13-10.59-9.01-11.13Z" class="cls-1"/></g><g><path d="M1797.21 214.39c-5.46 3.86-10.75 5.18-10.75 5.18-2.19 6.67-3.25 17.97-3.25 17.97-.73 7.38.44 10.09.44 10.09 2.84-1 7.1-6.92 7.1-6.92 5.56-6.3 10.27-15.93 10.27-15.93-2.43-3.8-3.81-10.4-3.81-10.4ZM1789.26 198.04c-2.24-3.3-3.93-7.48-3.93-7.48-20.12-5.24-27.58-2.74-27.58-2.74 4 6.97 19.38 15.47 19.38 15.47 7.04-4.59 12.13-5.25 12.13-5.25ZM1791.21 197.39l.77.79c1.18-.26 4.63.16 6.57.75-.78-2.25-1.44-6.74-.77-7.03.58-.25 3.04 2.74 4.3 4.86l2.2-3.3v-1.27c-1.06-7.61-6.71-15.11-6.71-15.11-10.86-15.36-14.28-15.9-14.28-15.9-1.94 5.8 2.08 22.45 2.08 22.45 1.54 8.32 5.84 13.76 5.84 13.76ZM1793.46 214.63c1.64-.93 3.23-2.1 4.13-2.78-.05-1.56.35-4.37.86-5.99-2.37.69-6.17 1.2-6.43.59-.23-.54 2.31-2.69 4.38-4-1.31-.74-2.89-1.85-3.88-2.75h-.43s-.05.02-.07.02l-.58.02v.02c-8.53.52-19.72 9.59-19.72 9.59-12.65 9.48-11.97 11.52-11.97 11.52 5.04 1.9 20.11-1.66 20.11-1.66 6.87-1.37 11.1-3.15 13.62-4.58Z" class="cls-1"/></g><path d="M1805.19 332.26s.05.05.08.02c1.06-1.05 21.35-21.94-7.74-45-2.52-2-10.91-6.96-18.79-24.55-.02-.05-.09-.06-.1 0-.11 2.35-.86 26.51 14.59 42.96 7.81 8.32 7.67 18.47 11.97 26.57ZM1788.98 364.44s0 .05-.02.06c-1.09.25-22.43 4.8-25.47-22.84-.26-2.4-.07-9.69-8.09-21.7-.02-.03 0-.08.03-.07 1.54.87 17.16 10.01 21.45 26.37 2.17 8.27 8.66 12.23 12.09 18.18Z" class="cls-1"/><path d="M1786.4 356.13c.36-1.26 7.78-28.36-15.55-35.01-.04-.01-.08.05-.04.07 2.1.92 9.07 4.54 8.93 11.98-.06 3.01-2.28 16.7 6.61 22.98.02.01.05 0 .06-.02ZM1801 83.74c.14.08.13.29-.03.33-2.82.62-19.17 3.33-28.69-14.3 0 0-5.43-8.93-7.23-16.02-.02-.09.1-.16.15-.08 1.15 1.6 4.46 10.61 15.71 16.13 7 3.44 11.9 9.21 20.08 13.94ZM1795.7 69.63c.04.15-.13.27-.24.16-2.84-2.9-22.05-10.36-19.77-31.52.4-3.68 2.71-11.43-1.11-24.97-.04-.13.12-.22.18-.1 1.58 3.57 10.05 12.98 10.94 26.79.51 7.94 7.03 19.38 10 29.65Z" class="cls-1"/><g id="Layer_3"><path d="M828.48 364.64s8.52-1.22 11.59-17.02c0 0 2.79-14.3-2.35-23.88-.04-.08-.17-.04-.16.04.07 1.14-.42 4.33-5.97 10.48 0 0-21.63 17.71-3.1 30.39Z" class="cls-1"/><path d="M830.48 365.75c1.8-.68 10.65-4.85 12.49-21.78 0-.03.02-.06.04-.08.65-.54 9.75-8.01 16.86-7.57.13 0 .18.19.06.26-1.23.72-4.8 3.51-6.04 12.17 0 0-5.02 25.29-23.41 17.25-.11-.05-.12-.21-.01-.26ZM842.64 341.91c1.31-1.05 5.12-3.96 8.34-5.1.08-.03.13-.08.14-.16.1-.88.67-6.31-.88-8.42-.15-.2-.36-.26-.65-.23-1.19.14-4.75 1.08-7.4 2.82-.08.05-.12.13-.1.22.15.83.89 5.36.17 10.63-.03.22.21.37.38.23ZM815.26 381.59c-1.37-.72-24.18-13.5.84-47.83.05-.06.15-.02.13.06-.72 2.06-3.44 10.72-1.1 18.09.08.25 5.67 15.24.22 29.64-.01.04-.05.06-.09.04ZM822.42 273.61c-.34-2.69-2.46-15.7-12.3-21.74-.16-.1-.16-.33 0-.42 3.5-1.92 31.25-16.04 35.73 16.24.02.18-.13.33-.3.29-2.2-.53-14.26-2.95-22.72 5.75-.15.15-.39.09-.42-.11Z" class="cls-1"/><circle cx="846.69" cy="244.14" r="2.91" class="cls-1"/><circle cx="840.25" cy="233.85" r="2.91" class="cls-1"/><circle cx="828.82" cy="235.28" r="2.91" class="cls-1"/><path d="M836.05 234.08h1.54v14.93h-1.54z" class="cls-1" transform="rotate(-155.99 836.801 241.58)"/><path d="M827.6 235.62h1.54v14.93h-1.54z" class="cls-1" transform="rotate(-176.7 828.36 243.115)"/><path d="M840 242.88h1.54v14.93H840z" class="cls-1" transform="rotate(-134.85 840.766 250.352)"/><path d="M804.66 314.84c-.02.07.07.12.1.06 1.98-3.52 16.61-30.74-1.52-36.44-1.83-.58-7.27-2.56-16.27 2.15-.06.03-.05.13.02.13 3.24-.42 27.22-2.36 17.67 34.12ZM819.87 310.28s0 .05.03.06c.8.13 16.56 2.31 15.96-24.35 0-.41-.56-6.39 9.53-12.79.05-.03.05-.12-.01-.11-2.63.57-23.85 6.11-25.5 37.18Z" class="cls-1"/><path d="M822.03 278.91s.88 30.91-14.27 45.83c-1.96 1.93-11.34 8.84-15.55 20.49l-6.33 14.52s-1-23.71 12.05-33.41c8.79-6.54 16.2-16.19 24.09-47.44ZM670.99 345.76s22.34-.2 30.08-12.93c2.27-3.74 2.58-21.36 9.49-31.56 0 0 6.62-8.71 12.01-11.78.09-.05.05-.18-.05-.16-4.24.89-31.92 7.89-33.74 38.98-.14 2.39-3.44 8.21-17.79 17.44M729.37 312.91s.04.1.06.06c1.55-2.41 18.33-29.47 4.63-53.83-2.03-3.61-5.88-16.94 1.69-27.16.03-.04 0-.09-.03-.07-1.82 1.13-18.65 12.47-5.1 39.05 1.91 3.75 4.21 16.46-1.25 41.96ZM715.49 346.04c-.14.05-.18.24-.07.34 1.96 2 36.13 33.47 56.41-7.74 0 0-14.19 12.5-37.72 7.41-8.19-1.77-14.43-1.61-18.62-.02ZM759.36 299.17c-.19-2.36-3.67-53.24 40.21-56.7.08 0 .13.12.05.14-4.06.88-17.77 4.82-20.18 18.1-.98 5.38-1.93 30.52-19.99 38.5-.04.02-.09 0-.09-.05Z" class="cls-1"/><path d="M656.39 353.17c-.13.02-.13.2 0 .19 9.53-.56 103.18-.31 98.99-90.39 0-.12-.22-.14-.22-.02-2.45 62.2-59.66 84.61-98.78 90.22Z" class="cls-1"/><path d="M729.72 335.74s-.03.06 0 .08c1.3.72 27.03 14.38 41.05-20 1.22-2.98 3.64-12.41 18.33-24.9.04-.03.03-.11-.02-.1-2.29.55-25.69 6.57-37.18 26-5.81 9.82-15.6 12.53-22.18 18.91ZM494.37 329.36s49.57 26.19 56.26-30.78c.28-2.37.04-7.1 5.94-14.81 0 0-6.62 1.87-10.26 11.76-1.37 3.73-13.84 25.75-51.94 33.84M551.18 340.79s23.91-7.86 24.82-19.75c.34-4.46-3.91-20.66.04-33.01 0 0 3.97-10.45 8.29-14.66.03-.03.02-.09-.03-.07-2.48.69-35.31 10.48-21.34 44.28.95 2.29 2.67 6.49-11.78 23.23M595.01 324.76c-.05.12.07.23.18.16 2.76-1.8 21.25-14.95 9.54-37.67 0 0-5.96-11.72 3.43-20.04.08-.07.09-.24-.02-.26-2.02-.46-16.81 8.36-8.56 26.91.6 1.35 4.14 10.1-4.57 30.9ZM609.73 337.96c-.11-.01-.18-.11-.14-.21.91-1.97 27.95-49.57 62.62-27.52.14.09.05.32-.11.29-3.65-.68-21.02-3.47-25.89 4.06 0 0-14.94 25.83-36.48 23.39ZM629.57 294.1c2.92-2.26 15.05-10.51 26.26-1.19.2.17.51.09.57-.16.52-2.21 1.94-10.74-6.14-13.53-.14-.05-.25-.17-.24-.32.05-2-.08-15.72-13.78-8.39-.18.1-.41.03-.5-.15-.87-1.92-5.59-11.04-14.64-4.46-.2.15-.22.46 0 .6 2.01 1.28 10.02 7.67 7.91 27.28-.03.31.31.53.56.34Z" class="cls-1"/><path d="M494.37 329.36s31.97 20.86 74.27 17.86c6.77-.48 39.19-5.14 56.06-43.36.07-.16-.14-.31-.24-.18-4.41 5.79-27.31 34.17-53.79 36.14-.39.03-39.95 5.36-76.3-10.46ZM567.49 351.99c-.18.03-.21.28-.04.34 4.55 1.43 22.56 17.61 43.54 4 3.65-2.37 10.55-8.91 26.77-12.09.15-.03.16-.24 0-.24-4.58.23-18.94-3.65-33.89 2.74-8.6 3.68-24.04 2.92-36.39 5.25ZM659.05 292.66s2.16-3.85-.42-8.44c0 0 38.17-8.14 44.43-.95 0 0-16.23 15.35-44.02 9.38ZM657.75 281.69s-.4-4.26-4.69-5.51c0 0 29.05-24.27 56.76-24.96 0 0-10.34 26.26-52.07 30.47ZM652.34 274.67s-.8-7.93-6.69-8.75c0 0 15.22-30.61 45.35-45.29 0 0-3.91 26.9-38.66 54.04ZM642.96 265.45s-2.35-.14-5.65 1.37c0 0-1.4-3.48-3.87-4.79 0 0 1.94-37.42 20.48-53.49 0 0 8.8 20.04-10.96 56.91ZM631.5 260.76s-6.81-3.37-11.46 2.63c0 0-1.97-39.22 5.1-44.52 0 0 7.55 3.27 6.35 41.89ZM142.15 339.11s28.6-48.21-27.97-57.71c-2.36-.4-7.09-.39-14.5-6.67 0 0 1.54 6.71 11.24 10.83 3.66 1.55 25.03 15.1 31.23 53.55M156.37 282.93s-6.66-24.27-18.5-25.77c-4.44-.56-20.83 2.88-32.97-1.67 0 0-10.24-4.48-14.24-9-.03-.04-.09-.02-.08.03.56 2.51 8.72 35.78 43.17 23.5 2.33-.83 6.61-2.35 22.62 12.92M142.53 238.37c.11.05.24-.06.17-.17-1.66-2.84-13.89-21.97-37.16-11.39 0 0-12 5.37-19.84-4.41-.07-.09-.23-.1-.26 0-.56 2 7.52 17.21 26.45 9.88 1.38-.54 10.3-3.63 30.63 6.09ZM169.43 284.87c-.11.15 0 .37.19.34 3.32-.68 22.17-5.59 23.95-29.06 0 0 1.56-12.18.1-20.65-.02-.11-.18-.12-.2-.01-.47 2.26.29 13.52-9.14 24.83-5.87 7.04-8.36 15.57-14.89 24.56ZM156.44 224.31c-.02.1-.12.17-.22.13-1.92-1.01-48.13-30.37-24.4-63.91.09-.13.32-.03.28.13-.86 3.61-4.51 20.82 2.77 26.06 0 0 25.06 16.2 21.55 37.6ZM113.62 202.33c-2.11-3.03-9.76-15.55.11-26.29.18-.19.12-.5-.13-.58-2.18-.63-10.63-2.47-13.82 5.46-.06.14-.18.24-.33.23-2-.15-15.7-.7-9.06 13.35.09.18.01.41-.18.49-1.96.77-11.3 5.04-5.18 14.4.14.21.45.24.6.03 1.38-1.94 8.16-9.62 27.63-6.55.31.05.54-.28.37-.54Z" class="cls-1"/><path d="M142.15 339.11s22.41-30.9 21.5-73.3c-.15-6.79-3.2-39.39-40.53-58.14-.15-.08-.32.12-.19.23 5.57 4.69 32.78 28.96 33.44 55.51 0 .39 3.38 40.16-14.22 75.69ZM168.37 267.19c.02.18.27.22.33.05 1.66-4.47 18.71-21.66 6.15-43.29-2.19-3.76-8.38-10.98-10.75-27.33-.02-.15-.24-.17-.24-.02 0 4.59-4.58 18.73 1.06 33.98 3.25 8.77 1.72 24.16 3.44 36.6ZM113.63 172.81s-3.74-2.35-8.45 0c0 0-6.24-38.52 1.25-44.43 0 0 14.53 16.97 7.2 44.43ZM102.62 173.57s-4.27.19-5.73 4.41c0 0-22.8-30.21-22.13-57.92 0 0 25.72 11.62 27.86 53.51ZM95.33 178.62s-7.96.41-9.07 6.25c0 0-29.82-16.71-43-47.53 0 0 26.67 5.23 52.07 41.28ZM85.66 187.54s-.26 2.34 1.09 5.71c0 0-3.55 1.23-4.98 3.63 0 0-37.28-3.79-52.41-23.1 0 0 20.45-7.8 56.29 13.76ZM80.41 198.75s-3.7 6.63 2.06 11.57c0 0-39.27.03-44.22-7.3 0 0 3.64-7.38 42.15-4.28ZM375.74 419.62s-42.86-36.13 7.44-63.7c2.1-1.15 6.56-2.7 11.5-11.07 0 0 .75 6.84-7.05 13.92-2.94 2.67-18.68 22.49-11.89 60.84M343.85 371.24s-1.68-25.11 9-30.42c4.01-1.99 20.62-4.13 30.59-12.42 0 0 8.2-7.6 10.48-13.18.02-.04.07-.05.08 0 .29 2.56 3.53 36.66-33.04 36.39-2.48-.02-7.02-.04-17.11 19.63M342.27 324.6c-.09.09-.24.02-.22-.1.63-3.23 5.89-25.31 31.35-22.97 0 0 13.1 1.13 17.29-10.69.04-.1.19-.17.25-.08 1.19 1.7-1.45 18.72-21.74 18.03-1.48-.05-10.92-.05-26.93 15.82ZM332.16 377.37c.16.11.12.35-.07.38-3.36.45-22.77 2.01-32.17-19.58 0 0-5.48-10.99-6.88-19.47-.02-.11.13-.17.19-.08 1.18 1.98 4.17 12.86 16.8 20.44 7.86 4.72 13.02 11.96 22.14 18.3ZM324.51 315.9c.05.09.17.13.24.05 1.48-1.58 35.47-44.5 2.03-68.38-.13-.09-.31.08-.23.21 2 3.13 11.1 18.18 5.95 25.52 0 0-18.34 23.54-8 42.59ZM357.73 281.07c1-3.55 4.1-17.9-8.75-24.79-.23-.12-.28-.44-.06-.59 1.86-1.31 9.23-5.82 14.85.61.1.11.25.16.39.1 1.84-.8 14.6-5.82 12.95 9.63-.02.2.12.4.33.4 2.1.08 12.33 1.05 9.63 11.89-.06.24-.35.37-.55.23-1.94-1.38-10.87-6.41-28.25 2.89-.28.15-.61-.09-.52-.39Z" class="cls-1"/><path d="M375.74 419.62s-31.32-21.82-44.4-62.16c-2.09-6.46-9.93-38.26 19.17-68.23.12-.12.34.01.26.16-3.72 6.26-21.44 38.13-13.34 63.42.12.37 10.01 39.04 38.31 66.81ZM327.34 360.32c.04.18-.18.3-.3.16-3.03-3.68-24.79-14.31-20.03-38.86.83-4.27 4.3-13.12 1.17-29.35-.03-.15.17-.24.22-.1 1.5 4.33 10.48 16.19 10.16 32.44-.18 9.35 6.31 23.38 8.78 35.7ZM348.01 253.19s2.76-3.45 7.98-2.78c0 0-6.77-38.43-15.79-41.55 0 0-8.15 20.81 7.81 44.32ZM358.67 250.29s4.1-1.23 6.86 2.28c0 0 11.61-36.03 1.86-61.98 0 0-20.47 19.43-8.72 59.7ZM367.21 252.67s7.65-2.23 10.62 2.92c0 0 22.67-25.59 24.98-59.02 0 0-23.47 13.71-35.6 56.1ZM379.27 257.91s1.02 2.13.85 5.75c0 0 3.75 0 5.89 1.79 0 0 33.96-15.83 41.9-39.04 0 0-21.88-.64-48.64 31.5ZM387.91 266.77s5.67 5.05 1.86 11.61c0 0 37.1-12.88 39.36-21.43 0 0-5.86-5.77-41.22 9.82ZM285.44 275.98c-.34-2.69-2.46-15.7-12.3-21.74-.16-.1-.16-.33 0-.42 3.5-1.92 31.25-16.04 35.73 16.24.02.18-.13.33-.3.29-2.2-.53-14.26-2.95-22.72 5.75-.15.15-.39.09-.42-.11Z" class="cls-1"/><circle cx="309.7" cy="246.52" r="2.91" class="cls-1"/><circle cx="303.27" cy="236.22" r="2.91" class="cls-1"/><circle cx="291.83" cy="237.66" r="2.91" class="cls-1"/><path d="M299.07 236.46h1.54v14.93h-1.54z" class="cls-1" transform="rotate(-155.99 299.824 243.935)"/><path d="M290.61 238h1.54v14.93h-1.54z" class="cls-1" transform="rotate(-176.7 291.372 245.472)"/><path d="M303.01 245.26h1.54v14.93h-1.54z" class="cls-1" transform="rotate(-134.85 303.78 252.727)"/><path d="M267.67 317.21c-.02.07.07.12.1.06 1.98-3.52 16.61-30.74-1.52-36.44-1.83-.58-7.27-2.56-16.27 2.15-.06.03-.05.13.02.13 3.24-.42 27.22-2.36 17.67 34.12ZM282.88 312.65s0 .05.03.06c.8.13 16.56 2.31 15.96-24.35 0-.41-.56-6.39 9.53-12.79.05-.03.05-.12-.01-.11-2.63.57-23.85 6.11-25.5 37.18Z" class="cls-1"/><path d="M285.04 281.28s.88 30.91-14.27 45.83c-1.96 1.93-11.34 8.84-15.55 20.49l-6.33 14.52s-1-23.71 12.05-33.41c8.79-6.54 16.2-16.19 24.09-47.44ZM24.46 115.25c2.52-1 14.93-5.43 24.98.27.17.09.36-.02.36-.21 0-3.99-1.04-35.12-31.47-23.45-.17.06-.23.27-.11.4 1.53 1.67 9.46 11.06 5.94 22.67-.06.2.11.39.3.31Z" class="cls-1"/><circle cx="38.54" cy="79.78" r="2.91" class="cls-1"/><circle cx="50.67" cy="80.44" r="2.91" class="cls-1"/><circle cx="54.93" cy="91.14" r="2.91" class="cls-1"/><path d="M44.81 79.7h1.54v14.93h-1.54z" class="cls-1" transform="rotate(37.12 45.583 87.15)"/><path d="M47.55 87.84h1.54v14.93h-1.54z" class="cls-1" transform="rotate(57.83 48.317 95.3)"/><path d="M35.2 80.49h1.54v14.93H35.2z" class="cls-1" transform="rotate(15.98 35.954 87.942)"/><path d="M-3.07 150.71c-.05.05-.14 0-.1-.06 2.13-3.43 18.9-29.39 32.65-16.26 1.39 1.33 5.75 5.13 5.97 15.28 0 .07-.1.11-.12.04-1.19-3.04-11.08-24.98-38.41 1ZM-6.42 135.19s-.05.03-.06 0c-.5-.64-10.02-13.39 13.61-25.73.36-.19 5.86-2.6 6.6-14.52 0-.06.08-.1.1-.04.77 2.58 6.17 23.83-20.25 40.29Z" class="cls-1"/><path d="M20.01 118.16s-27.5 14.15-33.25 34.63c-.75 2.65-2.27 14.19-10.44 23.51l-9.66 12.55s21.24-10.57 23.44-26.68c1.48-10.86 6.36-22 29.91-44ZM226.3 263.89s-7.3-7.36 1.24-24.77c0 0 7.71-15.77 19.62-21.23.09-.04.19.08.13.16-.9 1.05-2.75 4.46-1.88 14.41 0 0 7.9 32.73-19.11 31.44Z" class="cls-1"/><path d="M223.57 263.5c-1.23-1.96-6.7-12.4 3.83-30 .02-.03.03-.07.02-.11-.23-.99-3.55-14.78-10.69-19.53-.13-.09-.31.05-.25.2.66 1.59 2.06 6.86-3.05 16.08 0 0-13.56 27.94 9.95 33.59.14.03.27-.11.2-.24ZM229.22 231.76c-.5-1.96-2.04-7.53-4.31-10.96-.06-.08-.06-.17-.01-.26.54-.92 3.94-6.54 6.96-7.45.29-.09.54 0 .79.26 1.04 1.01 3.77 4.49 5.06 8.09.04.11.02.21-.06.29-.75.69-4.75 4.49-7.9 10.09-.13.23-.47.21-.53-.05ZM224.11 268.66c-1.77 3.51-9.06 15.55-3.15 45.11.04.18 10.51 38.33-3.26 54.59-.1.11.04.28.17.21 1.92-.97 9.46-5.5 11.33-17.45 0 0 3.06-12.56-4.58-44.1-.86-3.55-4.25-22.63-.26-38.25.04-.17-.17-.26-.25-.11ZM216.76 298.39c-2.23-.21-27.17-3.45-19.37-43.73.03-.17.29-.18.31 0 .3 3.32 1.65 13.07 7.44 17.13.18.12 11.24 8.61 11.78 26.45 0 .09-.06.17-.15.16ZM226.67 289.78c1.84.3 33.05 4.61 33.96-46.56 0-.09-.13-.13-.16-.04-.81 2.5-4.49 12.8-12.09 18.18-.26.18-16.52 10.52-21.76 28.31-.01.05 0 .1.06.11ZM43.86 265.19s8.52-1.22 11.59-17.02c0 0 2.79-14.3-2.35-23.88-.04-.08-.17-.04-.16.04.07 1.14-.42 4.33-5.97 10.48 0 0-21.63 17.71-3.1 30.39Z" class="cls-1"/><path d="M45.86 266.3c1.8-.68 10.65-4.85 12.49-21.78 0-.03.02-.06.04-.08.65-.54 9.75-8.01 16.86-7.57.13 0 .18.19.06.26-1.23.72-4.8 3.51-6.04 12.17 0 0-5.02 25.29-23.41 17.25-.11-.05-.12-.21-.01-.26ZM58.02 242.46c1.31-1.05 5.12-3.96 8.34-5.1.08-.03.13-.08.14-.16.1-.88.67-6.31-.88-8.42-.15-.2-.36-.26-.65-.23-1.19.14-4.75 1.08-7.4 2.82-.08.05-.12.13-.1.22.15.83.89 5.36.17 10.63-.03.22.21.37.38.23ZM42.92 269.44c-.59 3.21-1.79 14.83-20.51 31.44-.11.1-26.16 20.11-25.19 37.77 0 .12-.17.16-.22.05-.78-1.61-3.5-8.38 1.24-17.23 0 0 4.27-9.85 25.13-26.9 2.35-1.92 14.15-12.85 19.33-25.19.06-.13.25-.09.22.05ZM32.9 292.8c1.58.98 19.72 11.32 34.73-19.24.06-.13-.1-.27-.2-.16-1.86 2.05-7.64 7.82-13.5 7.61-.18 0-11.75.07-21.04 11.61-.05.06-.04.14.02.18ZM30.64 282.14c-1.37-.72-24.18-13.5.84-47.83.05-.06.15-.02.13.06-.72 2.06-3.44 10.72-1.1 18.09.08.25 5.67 15.24.22 29.64-.01.04-.05.06-.09.04ZM442.2 384.07s-6.04-21.51 4.02-32.49c2.95-3.22 19.79-8.44 27.65-17.93 0 0 6.52-8.79 7.96-14.82.03-.11.16-.1.17 0 .33 4.32 1.33 32.86-28.01 43.28-2.25.8-6.92 5.6-11.79 21.95M457.45 318.85s-.1 0-.07-.05c1.88-2.16 23.18-25.83 50.4-19.47 4.03.94 17.91.92 25.61-9.21.03-.04.09-.03.08.01-.58 2.07-6.77 21.4-36.07 15.8-4.13-.79-16.98.55-39.94 12.92ZM429.51 341.42c-.01.15-.18.24-.31.17-2.47-1.32-42.23-25.35-8.32-56.33 0 0-8.04 17.12 3.42 38.29 3.99 7.37 5.57 13.4 5.21 17.87ZM462.27 286.2c2.32-.48 52.14-11.34 43.22-54.44-.02-.08-.15-.09-.14-.01.29 4.14.33 18.41-11.75 24.43-4.89 2.44-28.76 10.37-31.39 29.95 0 .04.03.08.07.08Z" class="cls-1"/><path d="M439.16 400.16c.02.13-.15.18-.18.05-2.13-9.3-28.5-99.16 59.16-120.29.12-.03.2.17.08.21-59.04 19.71-64.59 80.91-59.06 120.03Z" class="cls-1"/><path d="M435.42 324.88s-.05.05-.08.02c-1.06-1.05-21.35-21.94 7.74-45 2.52-2 10.91-6.96 18.79-24.55.02-.05.09-.06.1 0 .11 2.35.86 26.51-14.59 42.96-7.81 8.32-7.67 18.47-11.97 26.57ZM190.06 341.38c-3.27-2.86-10.99-5.27-10.99-5.27-5.92-23.05-3.41-27.69-3.41-27.69 5.51 1.39 18.3 20.44 18.3 20.44-3.47 5.65-3.9 12.52-3.9 12.52ZM209.5 347.49c2.36-3.86 4.06-8.68 4.06-8.68 22.51-6.99 31.1-4.55 31.1-4.55-4.17 8.11-21.14 18.54-21.14 18.54-8.21-4.83-14.01-5.3-14.01-5.3ZM189.76 343.85l.11.14c.15 1.48.51 3.36.94 4.81-2.67-.71-7.4-1.16-7.68-.42-.28.73 3.89 3.77 6.34 4.92-1.97 1.12-4.89 3.43-5.66 4.62l-.56-.07c-8.18-.38-16.34-6.05-16.34-6.05-17.12-10.31-19.8-16.02-19.8-16.02 3.44-2.62 25.43 1.11 25.43 1.11 12.32 2.07 17.21 6.96 17.21 6.96ZM207.26 346.86l-.84.94c-1.35-.24-5.23.43-7.4 1.19.76-2.59 1.28-7.71.51-8-.67-.25-3.3 3.26-4.61 5.73l-2.66-3.62-.05-1.44c.79-8.67 6.79-17.47 6.79-17.47 11.49-17.97 15.34-18.76 15.34-18.76 2.5 6.47-1.18 25.54-1.18 25.54-1.3 9.5-5.89 15.9-5.89 15.9ZM205.62 366.51c-1.91-.97-3.77-2.21-4.82-2.94-.03-1.77-.62-4.93-1.29-6.74 2.72.66 7.05 1.03 7.32.33.24-.62-2.76-2.92-5.17-4.3 1.44-.9 3.17-2.25 4.25-3.32h1.22v.02c9.69.14 22.84 9.83 22.84 9.83 14.82 10.08 14.17 12.42 14.17 12.42-5.61 2.42-22.87-.83-22.87-.83-7.85-1.19-12.74-2.98-15.66-4.47ZM82.67 314.19c-2.09-3.1-7.98-6.81-7.98-6.81.16-20.47 3.27-23.78 3.27-23.78 4.27 2.37 10.71 21.03 10.71 21.03-4.13 3.93-6 9.55-6 9.55ZM71.8 327.88c-4.59 4.08-7.68 10.45-7.68 10.45-19.45-.15-23.52-3.26-23.52-3.26 5.56-6.13 24.14-11.53 24.14-11.53 2.34 2.34 7.06 4.34 7.06 4.34ZM86.54 337.52c4.41 4.81 9.18 7.15 9.18 7.15.71 6.81-.6 17.81-.6 17.81-.82 7.18-2.5 9.53-2.5 9.53-2.5-1.54-5.34-8.06-5.34-8.06-4-7.15-6.51-17.31-6.51-17.31 3.1-3.12 5.77-9.13 5.77-9.13ZM97.49 323.56c2.81-2.69 5.29-6.32 5.29-6.32 20.26-.85 26.86 3.07 26.86 3.07-5.25 5.82-21.67 10.75-21.67 10.75-5.76-5.83-10.48-7.5-10.48-7.5ZM81.88 316.18l.06.14c-.2 1.26-.32 2.91-.28 4.21-2.07-1.18-5.9-2.6-6.3-2.04-.39.55 2.41 3.99 4.18 5.49-1.89.49-4.82 1.78-5.73 2.59l-.45-.18c-6.71-2.12-12.25-8.63-12.25-8.63-11.96-12.35-12.93-17.69-12.93-17.69 3.44-1.42 20.9 6.53 20.9 6.53 9.79 4.44 12.78 9.58 12.78 9.58ZM95.77 322.54l-.9.59c-1.07-.49-4.45-.8-6.42-.64 1.2-1.99 2.76-6.13 2.19-6.54-.5-.36-3.46 1.98-5.1 3.75l-1.42-3.6.27-1.21c2.57-7.03 9.5-13.03 9.5-13.03 13.52-12.41 16.89-12.22 16.89-12.22.65 5.93-6.62 20.98-6.62 20.98-3.18 7.62-8.4 11.92-8.4 11.92ZM90.07 338.52c-1.37-1.23-2.65-2.67-3.36-3.51.37-1.48.57-4.23.42-5.89 2.11 1.14 5.64 2.42 6.01 1.89.33-.46-1.65-3.04-3.35-4.72 1.4-.43 3.13-1.17 4.26-1.82l.41.1s.05.01.07.02l.55.14v.02c8.02 2.25 16.82 13.21 16.82 13.21 10.1 11.65 9.04 13.45 9.04 13.45-5.2.77-18.83-5.73-18.83-5.73-6.27-2.72-9.94-5.29-12.04-7.17ZM75.09 327.64c1.25.23 3.02.37 4.43.34-1.07 2.13-2.14 5.21-1.65 5.56.51.37 3.61-2.1 5.22-3.87.35 1.56 1.39 4.09 2.23 5.43-1.21 5.41-6.89 11.4-6.89 11.4-14.56 14.43-19.99 15.28-19.99 15.28-.96-5.94 7.65-23 7.65-23 3.82-7.62 8.13-10.59 9.01-11.13Z" class="cls-1"/><g><path d="M-5.83 214.05c5.46 3.86 10.75 5.18 10.75 5.18 2.19 6.67 3.25 17.97 3.25 17.97.73 7.38-.44 10.09-.44 10.09-2.84-1-7.1-6.92-7.1-6.92-5.56-6.3-10.27-15.93-10.27-15.93 2.43-3.8 3.81-10.4 3.81-10.4ZM2.12 197.69c2.24-3.3 3.93-7.48 3.93-7.48 20.12-5.24 27.58-2.74 27.58-2.74-4 6.97-19.38 15.47-19.38 15.47-7.04-4.59-12.13-5.25-12.13-5.25ZM.17 197.04l-.77.79c-1.18-.26-4.63.16-6.57.75.78-2.25 1.44-6.74.77-7.03-.58-.25-3.04 2.74-4.3 4.86l-2.2-3.3v-1.27c1.06-7.61 6.71-15.11 6.71-15.11 10.86-15.36 14.28-15.9 14.28-15.9 1.94 5.8-2.08 22.45-2.08 22.45C4.47 191.6.17 197.04.17 197.04ZM-2.08 214.28c-1.64-.93-3.23-2.1-4.13-2.78.05-1.56-.35-4.37-.86-5.99 2.37.69 6.17 1.2 6.43.59.23-.54-2.31-2.69-4.38-4 1.31-.74 2.89-1.85 3.88-2.75h.43s.05.02.07.02l.58.02v.02c8.53.52 19.72 9.59 19.72 9.59 12.65 9.48 11.97 11.52 11.97 11.52-5.04 1.9-20.11-1.66-20.11-1.66-6.87-1.37-11.1-3.15-13.62-4.58Z" class="cls-1"/></g><path d="M-13.81 331.91s-.05.05-.08.02c-1.06-1.05-21.35-21.94 7.74-45 2.52-2 10.91-6.96 18.79-24.55.02-.05.09-.06.1 0 .11 2.35.86 26.51-14.59 42.96-7.81 8.32-7.67 18.47-11.97 26.57ZM2.4 364.09s0 .05.02.06c1.09.25 22.43 4.8 25.47-22.84.26-2.4.07-9.69 8.09-21.7.02-.03 0-.08-.03-.07-1.54.87-17.16 10.01-21.45 26.37-2.17 8.27-8.66 12.23-12.09 18.18Z" class="cls-1"/><path d="M4.98 355.78c-.36-1.26-7.78-28.36 15.55-35.01.04-.01.08.05.04.07-2.1.92-9.07 4.54-8.93 11.98.06 3.01 2.28 16.7-6.61 22.98-.02.01-.05 0-.06-.02ZM-9.62 83.4c-.14.08-.13.29.03.33 2.82.62 19.17 3.33 28.69-14.3 0 0 5.43-8.93 7.23-16.02.02-.09-.1-.16-.15-.08-1.15 1.6-4.46 10.61-15.71 16.13-7 3.44-11.9 9.21-20.08 13.94ZM-4.32 69.28c-.04.15.13.27.24.16 2.84-2.9 22.05-10.36 19.77-31.52-.4-3.68-2.71-11.43 1.11-24.97.04-.13-.12-.22-.18-.1-1.58 3.57-10.05 12.98-10.94 26.79-.51 7.94-7.03 19.38-10 29.65Z" class="cls-1"/></g></svg>