<svg xmlns="http://www.w3.org/2000/svg" id="Layer_2" width="600" height="167"><defs><style>.cls-1{fill:#a7bd9f}</style></defs><path d="M303.53 132.67c1.59-1.39 5.33-2.56 5.33-2.56 2.87-11.18 1.66-13.43 1.66-13.43-2.67.67-8.88 9.91-8.88 9.91 1.68 2.74 1.89 6.07 1.89 6.07ZM307.48 141.71c1.91 2.89 2.68 6.81 2.68 6.81 10.62 2.73 13.29 1.62 13.29 1.62-2.14-4.14-11.49-9.78-11.49-9.78-1.61.93-4.47 1.34-4.47 1.34ZM298.05 144.83c-3.1 1.98-6.04 2.57-6.04 2.57-1.37 3.61-2.25 9.79-2.25 9.79-.59 4.03-.02 5.56-.02 5.56 1.58-.48 4.08-3.62 4.08-3.62 3.21-3.32 6.05-8.49 6.05-8.49-1.24-2.15-1.83-5.81-1.83-5.81ZM294.1 135.64c-1.14-1.87-1.97-4.21-1.97-4.21-10.92-3.39-15.09-2.21-15.09-2.21 2.02 3.93 10.26 8.99 10.26 8.99 3.98-2.34 6.8-2.57 6.8-2.57ZM303.67 133.87l-.05.07c-.07.72-.25 1.63-.46 2.33 1.3-.34 3.59-.56 3.73-.2.13.35-1.89 1.83-3.07 2.39.96.54 2.37 1.67 2.75 2.24l.27-.04c3.97-.19 7.92-2.93 7.92-2.93 8.3-5 9.6-7.77 9.6-7.77-1.67-1.27-12.34.54-12.34.54-5.98 1.01-8.35 3.38-8.35 3.38ZM295.18 135.33l.41.45c.65-.12 2.54.21 3.59.58-.37-1.26-.62-3.74-.25-3.88.33-.12 1.6 1.58 2.24 2.78l1.29-1.76.03-.7c-.38-4.21-3.29-8.47-3.29-8.47-5.58-8.72-7.44-9.1-7.44-9.1-1.21 3.14.57 12.39.57 12.39.63 4.61 2.86 7.71 2.86 7.71ZM295.98 144.86c.93-.47 1.83-1.07 2.34-1.42.01-.86.3-2.39.62-3.27-1.32.32-3.42.5-3.55.16-.11-.3 1.34-1.42 2.51-2.09-.7-.44-1.54-1.09-2.06-1.61h-.59c-4.7.07-11.09 4.77-11.09 4.77-7.19 4.89-6.87 6.03-6.87 6.03 2.72 1.17 11.09-.4 11.09-.4 3.81-.58 6.18-1.45 7.6-2.17ZM305.72 141.1c-.72-.05-1.7-.23-2.46-.45.28 1.32.41 3.15.1 3.27-.33.13-1.66-1.67-2.28-2.87-.42.8-1.35 2.03-2 2.64-.12 3.12 2.11 7.21 2.11 7.21 5.85 9.97 8.69 11.22 8.69 11.22 1.38-3.1-.84-13.64-.84-13.64-.98-4.7-2.9-6.95-3.3-7.37ZM333.4 173.11s-4.13-.59-5.62-8.26c0 0-1.36-6.94 1.14-11.58.02-.04.08-.02.08.02-.03.55.2 2.1 2.9 5.08 0 0 10.49 8.59 1.5 14.74Z" class="cls-1"/><path d="M332.43 173.65c-.87-.33-5.17-2.35-6.06-10.56 0-.01 0-.03-.02-.04-.31-.26-4.73-3.88-8.18-3.67-.06 0-.09.09-.03.13.6.35 2.33 1.7 2.93 5.91 0 0 2.43 12.27 11.36 8.37.05-.02.06-.1 0-.12ZM326.53 162.08c-.64-.51-2.48-1.92-4.05-2.47-.04-.01-.06-.04-.07-.08-.05-.43-.33-3.06.43-4.08.07-.1.17-.13.32-.11.58.07 2.3.53 3.59 1.37.04.02.06.06.05.11-.07.4-.43 2.6-.08 5.16.01.11-.1.18-.18.11ZM339.81 181.33c.66-.35 11.73-6.55-.41-23.2-.02-.03-.07 0-.06.03.35 1 1.67 5.2.54 8.78-.04.12-2.75 7.39-.11 14.38 0 .02.03.03.04.02ZM336.34 128.95c.16-1.31 1.19-7.61 5.97-10.55.08-.05.08-.16 0-.2-1.7-.93-15.16-7.78-17.33 7.88-.01.09.06.16.14.14 1.07-.26 6.92-1.43 11.02 2.79.07.07.19.04.2-.06Z" class="cls-1"/><circle cx="324.57" cy="114.66" r="1.41" class="cls-1"/><circle cx="327.69" cy="109.66" r="1.41" class="cls-1"/><circle cx="333.23" cy="110.36" r="1.41" class="cls-1"/><path d="M328.98 109.77h.74v7.24h-.74z" class="cls-1" transform="rotate(-24.01 329.415 113.402)"/><path d="M333.08 110.52h.74v7.24h-.74z" class="cls-1" transform="rotate(-3.3 333.9 114.197)"/><path d="M327.06 114.04h.74v7.24h-.74z" class="cls-1" transform="rotate(-45.15 327.437 117.667)"/><path d="M344.95 148.95s-.03.06-.05.03c-.96-1.71-8.06-14.91.74-17.68.89-.28 3.53-1.24 7.89 1.04.03.02.02.07 0 .06-1.57-.2-13.21-1.14-8.57 16.55ZM337.57 146.74s0 .03-.01.03c-.39.06-8.03 1.12-7.74-11.81 0-.2.27-3.1-4.62-6.2-.03-.02-.02-.06 0-.05 1.28.28 11.57 2.96 12.37 18.04Z" class="cls-1"/><path d="M336.53 131.52s-.43 15 6.92 22.23c.95.94 5.5 4.29 7.54 9.94l3.07 7.04s.49-11.5-5.84-16.21c-4.27-3.17-7.86-7.85-11.69-23.01ZM409.79 163.95s-10.84-.1-14.59-6.27c-1.1-1.81-1.25-10.36-4.61-15.31 0 0-3.21-4.23-5.82-5.71-.05-.03-.03-.09.03-.08 2.06.43 15.49 3.83 16.36 18.91.07 1.16 1.67 3.98 8.63 8.46M381.48 148.01s-.02.05-.03.03c-.75-1.17-8.89-14.3-2.25-26.11.98-1.75 2.85-8.22-.82-13.18-.01-.02 0-.05.02-.03.89.55 9.05 6.05 2.47 18.94-.93 1.82-2.04 7.99.61 20.36ZM388.21 164.08c.07.03.09.11.04.17-.95.97-17.53 16.24-27.36-3.75 0 0 6.89 6.06 18.3 3.59 3.97-.86 7-.78 9.03 0ZM366.92 141.35c.09-1.15 1.78-25.82-19.51-27.5-.04 0-.06.06-.02.07 1.97.43 8.62 2.34 9.79 8.78.47 2.61.94 14.8 9.7 18.68.02 0 .04 0 .04-.02Z" class="cls-1"/><path d="M416.87 167.54c.06 0 .06.1 0 .09-4.62-.27-50.05-.15-48.02-43.85 0-.06.1-.07.11-.01 1.19 30.17 28.94 41.04 47.91 43.76Z" class="cls-1"/><path d="M381.31 159.09s.02.03 0 .04c-.63.35-13.11 6.97-19.91-9.7-.59-1.45-1.76-6.02-8.89-12.08-.02-.02-.02-.05 0-.05 1.11.27 12.46 3.19 18.04 12.61 2.82 4.76 7.57 6.08 10.76 9.17ZM527.01 160.97s-13.99-23.58 13.68-28.23c1.15-.19 3.47-.19 7.09-3.26 0 0-.75 3.28-5.5 5.3-1.79.76-12.24 7.38-15.28 26.2M520.05 133.5s3.26-11.87 9.05-12.6c2.17-.28 10.19 1.41 16.13-.82 0 0 5.01-2.19 6.96-4.4.02-.02.04-.01.04.01-.28 1.23-4.27 17.5-21.12 11.5-1.14-.41-3.23-1.15-11.06 6.32M526.82 111.7c-.06.03-.12-.03-.08-.08.81-1.39 6.79-10.74 18.17-5.57 0 0 5.87 2.63 9.71-2.16.03-.04.11-.05.13 0 .27.98-3.68 8.42-12.94 4.83-.68-.26-5.04-1.78-14.98 2.98ZM513.67 134.45c.05.08 0 .18-.09.16-1.62-.33-10.84-2.73-11.72-14.22 0 0-.76-5.96-.05-10.1 0-.05.09-.06.1 0 .23 1.11-.14 6.61 4.47 12.14 2.87 3.44 4.09 7.62 7.28 12.01ZM520.02 104.82c0 .05.06.09.11.06.94-.49 23.54-14.86 11.93-31.26-.05-.06-.16-.01-.14.06.42 1.77 2.2 10.18-1.36 12.75 0 0-12.26 7.92-10.54 18.39ZM540.96 94.07c1.03-1.48 4.77-7.61-.05-12.86-.09-.09-.06-.25.07-.28 1.07-.31 5.2-1.21 6.76 2.67.03.07.09.12.16.11.98-.07 7.68-.34 4.43 6.53-.04.09 0 .2.09.24.96.38 5.53 2.47 2.54 7.04-.07.1-.22.12-.29.02-.67-.95-3.99-4.71-13.52-3.21-.15.02-.27-.14-.18-.26Z" class="cls-1"/><path d="M527.01 160.97s-10.96-15.11-10.52-35.85c.07-3.32 1.56-19.27 19.83-28.44.07-.04.16.06.09.11-2.72 2.3-16.04 14.17-16.36 27.15 0 .19-1.65 19.65 6.96 37.03ZM514.18 125.8c-.01.09-.13.11-.16.03-.81-2.19-9.15-10.6-3.01-21.17 1.07-1.84 4.1-5.37 5.26-13.37.01-.07.12-.08.12 0 0 2.24 2.24 9.16-.52 16.62-1.59 4.29-.84 11.82-1.68 17.9ZM540.96 79.63s1.83-1.15 4.13 0c0 0 3.05-18.84-.61-21.73 0 0-7.11 8.3-3.52 21.73ZM546.35 80s2.09.09 2.8 2.16c0 0 11.15-14.78 10.82-28.33 0 0-12.58 5.68-13.63 26.18ZM549.91 82.47s3.89.2 4.44 3.06c0 0 14.59-8.18 21.03-23.25 0 0-13.05 2.56-25.47 20.19ZM554.64 86.84s.13 1.15-.53 2.79c0 0 1.74.6 2.43 1.77 0 0 18.24-1.85 25.64-11.3 0 0-10-3.81-27.54 6.73ZM557.21 92.32s1.81 3.24-1.01 5.66c0 0 19.21.02 21.63-3.57 0 0-1.78-3.61-20.62-2.09ZM584.58 51.47c-1.23-.49-7.31-2.65-12.22.13-.08.05-.18 0-.18-.1 0-1.95.51-17.18 15.39-11.47.08.03.11.13.06.2-.75.82-4.63 5.41-2.91 11.09.03.1-.05.19-.15.15Z" class="cls-1"/><circle cx="577.69" cy="34.12" r="1.42" class="cls-1"/><circle cx="571.76" cy="34.45" r="1.42" class="cls-1"/><circle cx="569.67" cy="39.68" r="1.42" class="cls-1"/><path d="M573.87 34.08h.75v7.3h-.75z" class="cls-1" transform="rotate(142.88 574.251 37.757)"/><path d="M572.53 38.07h.75v7.3h-.75z" class="cls-1" transform="rotate(122.17 572.914 41.735)"/><path d="M578.57 34.47h.75v7.3h-.75z" class="cls-1" transform="rotate(164.02 578.949 38.12)"/><path d="M598.04 68.82s.07 0 .05-.03c-1.04-1.68-9.24-14.37-15.97-7.95-.68.65-2.81 2.51-2.92 7.47 0 .03.05.05.06.02.58-1.49 5.42-12.22 18.79.49ZM599.68 61.23s.02.01.03 0c.24-.31 4.9-6.55-6.66-12.59-.18-.09-2.87-1.27-3.23-7.1 0-.03-.04-.05-.05-.02-.38 1.26-3.02 11.66 9.91 19.71Z" class="cls-1"/><path d="M586.76 52.89s13.45 6.92 16.26 16.94c.36 1.3 1.11 6.94 5.11 11.5l4.73 6.14s-10.39-5.17-11.47-13.05c-.72-5.31-3.11-10.76-14.63-21.53ZM575.09 124.82s-4.17-.6-5.67-8.33c0 0-1.37-6.99 1.15-11.68.02-.04.08-.02.08.02-.03.56.2 2.12 2.92 5.12 0 0 10.58 8.66 1.52 14.86Z" class="cls-1"/><path d="M574.11 125.36c-.88-.33-5.21-2.37-6.11-10.65 0-.02 0-.03-.02-.04-.32-.26-4.77-3.92-8.25-3.7-.06 0-.09.09-.03.13.6.35 2.35 1.72 2.95 5.95 0 0 2.45 12.37 11.45 8.44.05-.02.06-.1 0-.13ZM568.16 113.7c-.64-.51-2.51-1.94-4.08-2.49-.04-.01-.06-.04-.07-.08-.05-.43-.33-3.08.43-4.12.07-.1.18-.13.32-.11.58.07 2.32.53 3.62 1.38.04.02.06.06.05.11-.07.41-.44 2.62-.08 5.2.01.11-.1.18-.19.11ZM575.55 126.9c.29 1.57.88 7.25 10.03 15.38.05.05 12.79 9.84 12.32 18.47 0 .06.08.08.11.03.38-.79 1.71-4.1-.61-8.43 0 0-2.09-4.82-12.29-13.16-1.15-.94-6.92-6.29-9.45-12.32-.03-.06-.12-.04-.11.03ZM580.45 138.32c-.77.48-9.64 5.54-16.99-9.41-.03-.06.05-.13.1-.08.91 1 3.74 3.83 6.61 3.72.09 0 5.75.03 10.29 5.68.02.03.02.07 0 .09ZM581.55 133.11c.67-.35 11.83-6.6-.41-23.39-.02-.03-.07 0-.06.03.35 1.01 1.68 5.24.54 8.85-.04.12-2.77 7.45-.11 14.5 0 .02.03.03.04.02ZM556.1 148.79c1.02-1.52 3.9-3.33 3.9-3.33-.08-10.01-1.6-11.63-1.6-11.63-2.09 1.16-5.24 10.29-5.24 10.29 2.02 1.92 2.94 4.67 2.94 4.67ZM561.42 155.48c2.25 1.99 3.76 5.11 3.76 5.11 9.51-.07 11.5-1.59 11.5-1.59-2.72-3-11.81-5.64-11.81-5.64-1.15 1.14-3.45 2.12-3.45 2.12ZM554.21 160.2c-2.16 2.35-4.49 3.5-4.49 3.5-.35 3.33.29 8.71.29 8.71.4 3.51 1.22 4.66 1.22 4.66 1.22-.75 2.61-3.94 2.61-3.94 1.96-3.5 3.19-8.47 3.19-8.47-1.51-1.53-2.82-4.47-2.82-4.47ZM548.85 153.37c-1.38-1.31-2.59-3.09-2.59-3.09-9.91-.41-13.14 1.5-13.14 1.5 2.57 2.85 10.6 5.26 10.6 5.26 2.82-2.85 5.13-3.67 5.13-3.67ZM556.49 149.76l-.03.07c.1.62.15 1.42.14 2.06 1.01-.58 2.89-1.27 3.08-1 .19.27-1.18 1.95-2.05 2.68.92.24 2.36.87 2.8 1.27l.22-.09c3.28-1.04 5.99-4.22 5.99-4.22 5.85-6.04 6.32-8.65 6.32-8.65-1.68-.7-10.22 3.19-10.22 3.19-4.79 2.17-6.25 4.69-6.25 4.69ZM549.7 152.87l.44.29c.52-.24 2.17-.39 3.14-.31-.59-.97-1.35-3-1.07-3.2.25-.18 1.69.97 2.49 1.83l.69-1.76-.13-.59c-1.26-3.44-4.65-6.37-4.65-6.37-6.61-6.07-8.26-5.98-8.26-5.98-.32 2.9 3.24 10.26 3.24 10.26 1.55 3.73 4.11 5.83 4.11 5.83ZM552.48 160.69c.67-.6 1.3-1.3 1.64-1.71-.18-.72-.28-2.07-.2-2.88-1.03.56-2.76 1.18-2.94.92-.16-.23.81-1.49 1.64-2.31-.68-.21-1.53-.57-2.09-.89l-.2.05h-.03l-.27.07c-3.93 1.11-8.23 6.47-8.23 6.47-4.94 5.7-4.42 6.58-4.42 6.58 2.54.38 9.21-2.8 9.21-2.8 3.07-1.33 4.86-2.59 5.89-3.51ZM559.81 155.37c-.61.11-1.48.18-2.17.17.53 1.04 1.05 2.55.81 2.72-.25.18-1.77-1.03-2.55-1.89-.17.76-.68 2-1.09 2.66.59 2.64 3.37 5.57 3.37 5.57 7.12 7.06 9.78 7.47 9.78 7.47.47-2.91-3.74-11.25-3.74-11.25-1.87-3.73-3.98-5.18-4.41-5.45ZM599.39 99.8c-2.67 1.89-5.26 2.53-5.26 2.53-1.07 3.26-1.59 8.79-1.59 8.79-.36 3.61.21 4.94.21 4.94 1.39-.49 3.47-3.38 3.47-3.38 2.72-3.08 5.03-7.79 5.03-7.79-1.19-1.86-1.86-5.09-1.86-5.09ZM595.51 91.8c-1.09-1.61-1.92-3.66-1.92-3.66-9.84-2.56-13.49-1.34-13.49-1.34 1.96 3.41 9.48 7.57 9.48 7.57 3.44-2.24 5.93-2.57 5.93-2.57ZM596.46 91.48l.38.39c.58-.13 2.26.08 3.21.37-.38-1.1-.7-3.3-.38-3.44.28-.12 1.49 1.34 2.1 2.38l1.08-1.61v-.62c-.52-3.72-3.28-7.39-3.28-7.39-5.31-7.52-6.98-7.78-6.98-7.78-.95 2.84 1.02 10.98 1.02 10.98.75 4.07 2.85 6.73 2.85 6.73ZM597.56 99.92c.8-.46 1.58-1.03 2.02-1.36-.02-.76.17-2.14.42-2.93-1.16.34-3.02.59-3.15.29-.11-.26 1.13-1.31 2.14-1.96-.64-.36-1.41-.9-1.9-1.34h-.53v.02c-4.17.25-9.65 4.69-9.65 4.69-6.19 4.64-5.86 5.64-5.86 5.64 2.47.93 9.84-.81 9.84-.81 3.36-.67 5.43-1.54 6.66-2.24ZM603.3 157.45s.02.02.04.01c.52-.51 10.44-10.73-3.79-22.01-1.23-.98-5.33-3.4-9.19-12.01-.01-.02-.05-.03-.05 0-.05 1.15-.42 12.97 7.14 21.02 3.82 4.07 3.75 9.04 5.85 13ZM595.37 173.2v.03c-.53.12-10.97 2.35-12.46-11.17-.13-1.17-.03-4.74-3.96-10.62-.01-.02 0-.04.02-.03.75.42 8.39 4.9 10.49 12.9 1.06 4.04 4.24 5.98 5.91 8.89Z" class="cls-1"/><path d="M594.11 169.13c.17-.61 3.8-13.87-7.61-17.12-.02 0-.04.02-.02.03 1.03.45 4.44 2.22 4.37 5.86-.03 1.47-1.11 8.17 3.23 11.24h.03ZM605.28 35.89c.07.04.06.14-.01.16-1.38.3-9.38 1.63-14.03-6.99 0 0-2.66-4.37-3.54-7.84-.01-.04.05-.08.07-.04.56.78 2.18 5.19 7.68 7.89 3.43 1.68 5.82 4.5 9.82 6.82ZM602.68 28.99c.02.07-.07.13-.12.08-1.39-1.42-10.78-5.07-9.67-15.42.19-1.8 1.33-5.59-.54-12.22-.02-.06.06-.11.09-.05.77 1.75 4.92 6.35 5.35 13.1.25 3.89 3.44 9.48 4.89 14.5ZM267.48 173s4.13-.59 5.62-8.26c0 0 1.36-6.94-1.14-11.58-.02-.04-.08-.02-.08.02.03.55-.2 2.1-2.9 5.08 0 0-10.49 8.59-1.5 14.74Z" class="cls-1"/><path d="M268.45 173.54c.87-.33 5.17-2.35 6.06-10.56 0-.01 0-.03.02-.04.31-.26 4.73-3.88 8.18-3.67.06 0 .09.09.03.13-.6.35-2.33 1.7-2.93 5.91 0 0-2.43 12.27-11.36 8.37-.05-.02-.06-.1 0-.12ZM274.35 161.98c.64-.51 2.48-1.92 4.05-2.47.04-.01.06-.04.07-.08.05-.43.33-3.06-.43-4.08-.07-.1-.17-.13-.32-.11-.58.07-2.3.53-3.59 1.37-.04.02-.06.06-.05.11.07.4.43 2.6.08 5.16-.01.11.1.18.18.11ZM261.06 181.23c-.66-.35-11.73-6.55.41-23.2.02-.03.07 0 .06.03-.35 1-1.67 5.2-.54 8.78.04.12 2.75 7.39.11 14.38 0 .02-.03.03-.04.02ZM264.54 128.85c-.16-1.31-1.19-7.61-5.97-10.55-.08-.05-.08-.16 0-.2 1.7-.93 15.16-7.78 17.33 7.88.01.09-.06.16-.14.14-1.07-.26-6.92-1.43-11.02 2.79-.07.07-.19.04-.2-.06Z" class="cls-1"/><circle cx="276.31" cy="114.55" r="1.41" class="cls-1"/><circle cx="273.19" cy="109.56" r="1.41" class="cls-1"/><circle cx="267.64" cy="110.25" r="1.41" class="cls-1"/><path d="M271.15 109.67h.74v7.24h-.74z" class="cls-1" transform="rotate(-155.99 271.518 113.302)"/><path d="M267.05 110.42h.74v7.24h-.74z" class="cls-1" transform="rotate(-176.7 267.42 114.048)"/><path d="M273.06 113.94h.74v7.24h-.74z" class="cls-1" transform="rotate(-134.85 273.436 117.564)"/><path d="M255.92 148.85s.03.06.05.03c.96-1.71 8.06-14.91-.74-17.68-.89-.28-3.53-1.24-7.89 1.04-.03.02-.02.07 0 .06 1.57-.2 13.21-1.14 8.57 16.55ZM263.3 146.63s0 .03.01.03c.39.06 8.03 1.12 7.74-11.81 0-.2-.27-3.1 4.62-6.2.03-.02.02-.06 0-.05-1.28.28-11.57 2.96-12.37 18.04Z" class="cls-1"/><path d="M264.35 131.42s.43 15-6.92 22.23c-.95.94-5.5 4.29-7.54 9.94l-3.07 7.04s-.49-11.5 5.84-16.21c4.27-3.17 7.86-7.85 11.69-23.01ZM191.08 163.84s10.84-.1 14.59-6.27c1.1-1.81 1.25-10.36 4.61-15.31 0 0 3.21-4.23 5.82-5.71.05-.03.03-.09-.03-.08-2.06.43-15.49 3.83-16.36 18.91-.07 1.16-1.67 3.98-8.63 8.46M219.4 147.91s.02.05.03.03c.75-1.17 8.89-14.3 2.25-26.11-.98-1.75-2.85-8.22.82-13.18.01-.02 0-.05-.02-.03-.89.55-9.05 6.05-2.47 18.94.93 1.82 2.04 7.99-.61 20.36ZM212.67 163.98c-.07.03-.09.11-.04.17.95.97 17.53 16.24 27.36-3.75 0 0-6.89 6.06-18.3 3.59-3.97-.86-7-.78-9.03 0ZM233.95 141.24c-.09-1.15-1.78-25.82 19.51-27.5.04 0 .06.06.02.07-1.97.43-8.62 2.34-9.79 8.78-.47 2.61-.94 14.8-9.7 18.68-.02 0-.04 0-.04-.02Z" class="cls-1"/><path d="M184 167.44c-.06 0-.06.1 0 .09 4.62-.27 50.05-.15 48.02-43.85 0-.06-.1-.07-.11-.01-1.19 30.17-28.94 41.04-47.91 43.76Z" class="cls-1"/><path d="M219.57 158.99s-.02.03 0 .04c.63.35 13.11 6.97 19.91-9.7.59-1.45 1.76-6.02 8.89-12.08.02-.02.02-.05 0-.05-1.11.27-12.46 3.19-18.04 12.61-2.82 4.76-7.57 6.08-10.76 9.17ZM417.04 201.15s20.01-16.86-3.47-29.73c-.98-.54-3.06-1.26-5.37-5.16 0 0-.35 3.19 3.29 6.5 1.37 1.25 8.72 10.5 5.55 28.4M431.92 178.57s.79-11.72-4.2-14.2c-1.87-.93-9.62-1.93-14.28-5.8 0 0-3.83-3.55-4.89-6.15 0-.02-.03-.02-.04 0-.14 1.19-1.65 17.11 15.42 16.98 1.16 0 3.27-.02 7.99 9.16M432.66 156.8s.11 0 .1-.05c-.3-1.51-2.75-11.81-14.63-10.72 0 0-6.12.53-8.07-4.99-.02-.05-.09-.08-.12-.04-.55.8.67 8.74 10.15 8.41.69-.02 5.1-.02 12.57 7.38ZM437.38 181.43c-.07.05-.06.16.03.18 1.57.21 10.63.94 15.02-9.14 0 0 2.56-5.13 3.21-9.09 0-.05-.06-.08-.09-.04-.55.92-1.95 6-7.84 9.54-3.67 2.2-6.08 5.58-10.33 8.54ZM440.95 152.74s-.08.06-.11.02c-.69-.74-16.55-20.77-.95-31.91.06-.04.15.04.11.1-.93 1.46-5.18 8.49-2.78 11.91 0 0 8.56 10.99 3.73 19.88ZM425.44 136.48c-.47-1.66-1.91-8.35 4.08-11.57.11-.06.13-.2.03-.27-.87-.61-4.31-2.72-6.93.29-.05.05-.12.08-.18.05-.86-.37-6.81-2.72-6.04 4.5.01.09-.06.18-.15.19-.98.04-5.76.49-4.49 5.55.03.11.16.17.26.11.9-.64 5.07-2.99 13.19 1.35.13.07.28-.04.24-.18Z" class="cls-1"/><path d="M417.04 201.15s14.62-10.18 20.72-29.01c.98-3.01 4.63-17.86-8.95-31.85-.06-.06-.16 0-.12.07 1.73 2.92 10.01 17.8 6.22 29.6-.06.17-4.67 18.22-17.88 31.18ZM439.62 173.47c-.02.08.09.14.14.08 1.42-1.72 11.57-6.68 9.35-18.14-.39-1.99-2.01-6.12-.55-13.7.01-.07-.08-.11-.1-.04-.7 2.02-4.89 7.56-4.74 15.14.09 4.36-2.95 10.91-4.1 16.66ZM429.98 123.47s-1.29-1.61-3.72-1.3c0 0 3.16-17.94 7.37-19.39 0 0 3.8 9.71-3.64 20.69ZM425.01 122.11s-1.91-.57-3.2 1.06c0 0-5.42-16.82-.87-28.93 0 0 9.56 9.07 4.07 27.86ZM421.02 123.22s-3.57-1.04-4.96 1.36c0 0-10.58-11.94-11.66-27.55 0 0 10.95 6.4 16.62 26.18ZM415.39 125.67s-.47.99-.4 2.68c0 0-1.75 0-2.75.83 0 0-15.85-7.39-19.56-18.22 0 0 10.21-.3 22.7 14.7ZM411.35 129.81s-2.65 2.36-.87 5.42c0 0-17.32-6.01-18.37-10 0 0 2.74-2.69 19.24 4.58ZM459.19 134.11c.16-1.26 1.15-7.33 5.74-10.15.08-.05.08-.15 0-.2-1.63-.9-14.59-7.49-16.68 7.58-.01.08.06.16.14.14 1.03-.25 6.65-1.38 10.61 2.68.07.07.18.04.19-.05Z" class="cls-1"/><circle cx="447.86" cy="120.36" r="1.36" class="cls-1"/><circle cx="450.86" cy="115.55" r="1.36" class="cls-1"/><circle cx="456.2" cy="116.22" r="1.36" class="cls-1"/><path d="M452.11 115.66h.72v6.97h-.72z" class="cls-1" transform="rotate(-24.01 452.551 119.14)"/><path d="M456.05 116.38h.72v6.97h-.72z" class="cls-1" transform="rotate(-3.3 456.9 119.999)"/><path d="M450.26 119.77h.72v6.97h-.72z" class="cls-1" transform="rotate(-45.15 450.623 123.252)"/><path d="M467.48 153.35s-.03.06-.05.03c-.92-1.64-7.75-14.35.71-17.01.86-.27 3.39-1.19 7.59 1 .03.01.02.06 0 .06-1.51-.2-12.71-1.1-8.25 15.92ZM460.38 151.22s0 .02-.01.03c-.37.06-7.73 1.08-7.45-11.36 0-.19.26-2.98-4.45-5.97-.02-.02-.02-.06 0-.05 1.23.27 11.13 2.85 11.9 17.36Z" class="cls-1"/><path d="M459.37 136.58s-.41 14.43 6.66 21.39c.92.9 5.29 4.12 7.26 9.56l2.95 6.78s.47-11.06-5.62-15.59c-4.1-3.05-7.56-7.56-11.25-22.14ZM486.78 128.46s3.41-3.44-.58-11.56c0 0-3.6-7.36-9.16-9.91-.04-.02-.09.04-.06.07.42.49 1.28 2.08.88 6.72 0 0-3.69 15.28 8.92 14.68Z" class="cls-1"/><path d="M488.06 128.28c.58-.91 3.13-5.79-1.79-14 0-.01-.01-.03 0-.05.11-.46 1.66-6.9 4.99-9.11.06-.04.14.03.12.09-.31.74-.96 3.2 1.42 7.51 0 0 6.33 13.04-4.64 15.68-.07.02-.13-.05-.09-.11ZM485.42 113.46c.23-.91.95-3.51 2.01-5.12.03-.04.03-.08 0-.12-.25-.43-1.84-3.05-3.25-3.48-.13-.04-.25 0-.37.12-.49.47-1.76 2.1-2.36 3.78-.02.05 0 .1.03.13.35.32 2.22 2.1 3.69 4.71.06.11.22.1.25-.02ZM487.81 130.69c.83 1.64 4.23 7.26 1.47 21.05-.02.08-4.9 17.89 1.52 25.48.04.05-.02.13-.08.1-.9-.45-4.41-2.57-5.29-8.15 0 0-1.43-5.86 2.14-20.59.4-1.66 1.98-10.56.12-17.85-.02-.08.08-.12.12-.05ZM491.24 144.56c1.04-.1 12.68-1.61 9.04-20.41-.02-.08-.14-.08-.14 0-.14 1.55-.77 6.1-3.47 7.99-.08.06-5.24 4.02-5.5 12.35 0 .04.03.08.07.08ZM486.61 140.55c-.86.14-15.42 2.15-15.85-21.73 0-.04.06-.06.08-.02.38 1.17 2.1 5.97 5.64 8.49.12.09 7.71 4.91 10.16 13.21 0 .02 0 .05-.03.05ZM503.7 164.63c1.53-1.34 5.13-2.46 5.13-2.46 2.76-10.76 1.59-12.92 1.59-12.92-2.57.65-8.54 9.54-8.54 9.54 1.62 2.64 1.82 5.84 1.82 5.84Z" class="cls-1"/><path d="M494.63 167.48c-1.1-1.8-1.89-4.05-1.89-4.05-10.51-3.26-14.51-2.12-14.51-2.12 1.94 3.78 9.87 8.65 9.87 8.65 3.83-2.25 6.54-2.48 6.54-2.48ZM503.84 165.79l-.05.07c-.07.69-.24 1.57-.44 2.25 1.25-.33 3.46-.54 3.59-.2.13.34-1.82 1.76-2.96 2.3.92.52 2.28 1.6 2.64 2.16l.26-.03c3.82-.18 7.62-2.82 7.62-2.82 7.99-4.81 9.24-7.48 9.24-7.48-1.6-1.22-11.87.52-11.87.52-5.75.97-8.03 3.25-8.03 3.25ZM495.67 167.19l.39.44c.63-.11 2.44.2 3.46.56-.35-1.21-.6-3.6-.24-3.73.31-.12 1.54 1.52 2.15 2.67l1.24-1.69.03-.67c-.37-4.05-3.17-8.15-3.17-8.15-5.36-8.39-7.16-8.76-7.16-8.76-1.17 3.02.55 11.92.55 11.92.61 4.44 2.75 7.42 2.75 7.42ZM73.96 160.52s13.99-23.58-13.68-28.23c-1.15-.19-3.47-.19-7.09-3.26 0 0 .75 3.28 5.5 5.3 1.79.76 12.24 7.38 15.28 26.2M80.92 133.05s-3.26-11.87-9.05-12.6c-2.17-.28-10.19 1.41-16.13-.82 0 0-5.01-2.19-6.96-4.4-.02-.02-.04-.01-.04.01.28 1.23 4.27 17.5 21.12 11.5 1.14-.41 3.23-1.15 11.06 6.32M74.15 111.25c.06.03.12-.03.08-.08-.81-1.39-6.79-10.74-18.17-5.57 0 0-5.87 2.63-9.71-2.16-.03-.04-.11-.05-.13 0-.27.98 3.68 8.42 12.94 4.83.68-.26 5.04-1.78 14.98 2.98ZM87.31 134c-.05.08 0 .18.09.16 1.62-.33 10.84-2.73 11.72-14.22 0 0 .76-5.96.05-10.1 0-.05-.09-.06-.1 0-.23 1.11.14 6.61-4.47 12.14-2.87 3.44-4.09 7.62-7.28 12.01ZM80.96 104.37c0 .05-.06.09-.11.06-.94-.49-23.54-14.86-11.93-31.26.05-.06.16-.01.14.06-.42 1.77-2.2 10.18 1.36 12.75 0 0 12.26 7.92 10.54 18.39ZM60.01 93.62c-1.03-1.48-4.77-7.61.05-12.86.09-.09.06-.25-.07-.28-1.07-.31-5.2-1.21-6.76 2.67-.03.07-.09.12-.16.11-.98-.07-7.68-.34-4.43 6.53.04.09 0 .2-.09.24-.96.38-5.53 2.47-2.54 7.04.07.1.22.12.29.02.67-.95 3.99-4.71 13.52-3.21.15.02.27-.14.18-.26Z" class="cls-1"/><path d="M73.96 160.52s10.96-15.11 10.52-35.85c-.07-3.32-1.56-19.27-19.83-28.44-.07-.04-.16.06-.09.11 2.72 2.3 16.04 14.17 16.36 27.15 0 .19 1.65 19.65-6.96 37.03ZM86.79 125.35c.01.09.13.11.16.03.81-2.19 9.15-10.6 3.01-21.17-1.07-1.84-4.1-5.37-5.26-13.37-.01-.07-.12-.08-.12 0 0 2.24-2.24 9.16.52 16.62 1.59 4.29.84 11.82 1.68 17.9ZM60.02 79.18s-1.83-1.15-4.13 0c0 0-3.05-18.84.61-21.73 0 0 7.11 8.3 3.52 21.73ZM54.63 79.55s-2.09.09-2.8 2.16c0 0-11.15-14.78-10.82-28.33 0 0 12.58 5.68 13.63 26.18ZM51.06 82.02s-3.89.2-4.44 3.06c0 0-14.59-8.18-21.03-23.25 0 0 13.05 2.56 25.47 20.19ZM46.33 86.39s-.13 1.15.53 2.79c0 0-1.74.6-2.43 1.77 0 0-18.24-1.85-25.64-11.3 0 0 10-3.81 27.54 6.73ZM43.77 91.87s-1.81 3.24 1.01 5.66c0 0-19.21.02-21.63-3.57 0 0 1.78-3.61 20.62-2.09ZM16.39 51.02c1.23-.49 7.31-2.65 12.22.13.08.05.18 0 .18-.1 0-1.95-.51-17.18-15.39-11.47-.08.03-.11.13-.06.2.75.82 4.63 5.41 2.91 11.09-.03.1.05.19.15.15Z" class="cls-1"/><circle cx="23.29" cy="33.67" r="1.42" class="cls-1"/><circle cx="29.22" cy="34" r="1.42" class="cls-1"/><circle cx="31.3" cy="39.23" r="1.42" class="cls-1"/><path d="M26.35 33.63h.75v7.3h-.75z" class="cls-1" transform="rotate(37.12 26.732 37.272)"/><path d="M27.69 37.62h.75v7.3h-.75z" class="cls-1" transform="rotate(57.83 28.062 41.264)"/><path d="M21.65 34.02h.75v7.3h-.75z" class="cls-1" transform="rotate(15.98 22.032 37.663)"/><path d="M2.93 68.37s-.07 0-.05-.03c1.04-1.68 9.24-14.37 15.97-7.95.68.65 2.81 2.51 2.92 7.47 0 .03-.05.05-.06.02-.58-1.49-5.42-12.22-18.79.49ZM1.29 60.78s-.02.01-.03 0c-.24-.31-4.9-6.55 6.66-12.59.18-.09 2.87-1.27 3.23-7.1 0-.03.04-.05.05-.02.38 1.26 3.02 11.66-9.91 19.71Z" class="cls-1"/><path d="M14.22 52.44S.77 59.37-2.05 69.38c-.36 1.3-1.11 6.94-5.11 11.5l-4.73 6.14s10.4-5.17 11.48-13.05c.72-5.31 3.11-10.76 14.63-21.53ZM25.89 124.37s4.17-.6 5.67-8.33c0 0 1.37-6.99-1.15-11.68-.02-.04-.08-.02-.08.02.03.56-.2 2.12-2.92 5.12 0 0-10.58 8.66-1.52 14.86Z" class="cls-1"/><path d="M26.87 124.91c.88-.33 5.21-2.37 6.11-10.65 0-.02 0-.03.02-.04.32-.26 4.77-3.92 8.25-3.7.06 0 .09.09.03.13-.6.35-2.35 1.72-2.95 5.95 0 0-2.45 12.37-11.45 8.44-.05-.02-.06-.1 0-.13ZM32.81 113.25c.64-.51 2.51-1.94 4.08-2.49.04-.01.06-.04.07-.08.05-.43.33-3.08-.43-4.12-.07-.1-.18-.13-.32-.11-.58.07-2.32.53-3.62 1.38-.04.02-.06.06-.05.11.07.41.44 2.62.08 5.2-.01.11.1.18.19.11ZM25.43 126.45c-.29 1.57-.88 7.25-10.03 15.38-.05.05-12.79 9.84-12.32 18.47 0 .06-.08.08-.11.03-.38-.79-1.71-4.1.61-8.43 0 0 2.09-4.82 12.29-13.16 1.15-.94 6.92-6.29 9.45-12.32.03-.06.12-.04.11.03ZM20.52 137.87c.77.48 9.64 5.54 16.99-9.41.03-.06-.05-.13-.1-.08-.91 1-3.74 3.83-6.61 3.72-.09 0-5.75.03-10.29 5.68-.02.03-.02.07 0 .09ZM19.42 132.66c-.67-.35-11.83-6.6.41-23.39.02-.03.07 0 .06.03-.35 1.01-1.68 5.24-.54 8.85.04.12 2.77 7.45.11 14.5 0 .02-.03.03-.04.02ZM44.87 148.33c-1.02-1.52-3.9-3.33-3.9-3.33.08-10.01 1.6-11.63 1.6-11.63 2.09 1.16 5.24 10.29 5.24 10.29-2.02 1.92-2.94 4.67-2.94 4.67ZM39.55 155.03c-2.25 1.99-3.76 5.11-3.76 5.11-9.51-.07-11.5-1.59-11.5-1.59 2.72-3 11.81-5.64 11.81-5.64 1.15 1.14 3.45 2.12 3.45 2.12ZM46.76 159.75c2.16 2.35 4.49 3.5 4.49 3.5.35 3.33-.29 8.71-.29 8.71-.4 3.51-1.22 4.66-1.22 4.66-1.22-.75-2.61-3.94-2.61-3.94-1.96-3.5-3.19-8.47-3.19-8.47 1.51-1.53 2.82-4.47 2.82-4.47ZM52.12 152.92c1.38-1.31 2.59-3.09 2.59-3.09 9.91-.41 13.14 1.5 13.14 1.5-2.57 2.85-10.6 5.26-10.6 5.26-2.82-2.85-5.13-3.67-5.13-3.67ZM44.48 149.31l.03.07c-.1.62-.15 1.42-.14 2.06-1.01-.58-2.89-1.27-3.08-1-.19.27 1.18 1.95 2.05 2.68-.92.24-2.36.87-2.8 1.27l-.22-.09c-3.28-1.04-5.99-4.22-5.99-4.22-5.85-6.04-6.32-8.65-6.32-8.65 1.68-.7 10.22 3.19 10.22 3.19 4.79 2.17 6.25 4.69 6.25 4.69ZM51.28 152.42l-.44.29c-.52-.24-2.17-.39-3.14-.31.59-.97 1.35-3 1.07-3.2-.25-.18-1.69.97-2.49 1.83l-.69-1.76.13-.59c1.26-3.44 4.65-6.37 4.65-6.37 6.61-6.07 8.26-5.98 8.26-5.98.32 2.9-3.24 10.26-3.24 10.26-1.55 3.73-4.11 5.83-4.11 5.83ZM48.49 160.24c-.67-.6-1.3-1.3-1.64-1.71.18-.72.28-2.07.2-2.88 1.03.56 2.76 1.18 2.94.92.16-.23-.81-1.49-1.64-2.31.68-.21 1.53-.57 2.09-.89l.2.05h.03l.27.07c3.93 1.11 8.23 6.47 8.23 6.47 4.94 5.7 4.42 6.58 4.42 6.58-2.54.38-9.21-2.8-9.21-2.8-3.07-1.33-4.86-2.59-5.89-3.51ZM41.16 154.92c.61.11 1.48.18 2.17.17-.53 1.04-1.05 2.55-.81 2.72.25.18 1.77-1.03 2.55-1.89.17.76.68 2 1.09 2.66-.59 2.64-3.37 5.57-3.37 5.57-7.12 7.06-9.78 7.47-9.78 7.47-.47-2.91 3.74-11.25 3.74-11.25 1.87-3.73 3.98-5.18 4.41-5.45ZM1.58 99.35c2.67 1.89 5.26 2.53 5.26 2.53 1.07 3.26 1.59 8.79 1.59 8.79.36 3.61-.21 4.94-.21 4.94-1.39-.49-3.47-3.38-3.47-3.38-2.72-3.08-5.03-7.79-5.03-7.79 1.19-1.86 1.86-5.09 1.86-5.09ZM5.47 91.35c1.09-1.61 1.92-3.66 1.92-3.66 9.84-2.56 13.49-1.34 13.49-1.34-1.96 3.41-9.48 7.57-9.48 7.57-3.44-2.24-5.93-2.57-5.93-2.57ZM4.51 91.03l-.38.39c-.58-.13-2.26.08-3.21.37.38-1.1.7-3.3.38-3.44-.28-.12-1.49 1.34-2.1 2.38l-1.08-1.61v-.62c.52-3.72 3.28-7.39 3.28-7.39 5.31-7.52 6.98-7.78 6.98-7.78.95 2.84-1.02 10.98-1.02 10.98-.75 4.07-2.85 6.73-2.85 6.73ZM3.41 99.47c-.8-.46-1.58-1.03-2.02-1.36.02-.76-.17-2.14-.42-2.93 1.16.34 3.02.59 3.15.29.11-.26-1.13-1.31-2.14-1.96.64-.36 1.41-.9 1.9-1.34h.53v.02c4.17.25 9.65 4.69 9.65 4.69 6.19 4.64 5.86 5.64 5.86 5.64-2.47.93-9.84-.81-9.84-.81-3.36-.67-5.43-1.54-6.66-2.24ZM-5.08 95.72c.64-.02 1.52-.14 2.21-.3-.3 1.16-.5 2.78-.22 2.9.29.13 1.55-1.41 2.15-2.45.34.73 1.11 1.86 1.67 2.43-.02 2.78-2.17 6.32-2.17 6.32-5.61 8.62-8.18 9.61-8.18 9.61-1.1-2.81 1.31-12.08 1.31-12.08 1.06-4.14 2.86-6.05 3.24-6.41ZM-2.32 157s-.02.02-.04.01c-.52-.51-10.44-10.73 3.79-22.01 1.23-.98 5.33-3.4 9.19-12.01.01-.02.05-.03.05 0 .05 1.15.42 12.97-7.14 21.02-3.82 4.07-3.75 9.04-5.85 13ZM5.6 172.75v.03c.53.12 10.97 2.35 12.46-11.17.13-1.17.03-4.74 3.96-10.62.01-.02 0-.04-.02-.03-.75.42-8.39 4.9-10.49 12.9-1.06 4.04-4.24 5.98-5.91 8.89Z" class="cls-1"/><path d="M6.87 168.68c-.17-.61-3.8-13.87 7.61-17.12.02 0 .04.02.02.03-1.03.45-4.44 2.22-4.37 5.86.03 1.47 1.11 8.17-3.23 11.24h-.03ZM-4.3 35.44c-.07.04-.06.14.01.16 1.38.3 9.38 1.63 14.03-6.99 0 0 2.66-4.37 3.54-7.84.01-.04-.05-.08-.07-.04-.56.78-2.18 5.19-7.68 7.89-3.43 1.68-5.82 4.5-9.82 6.82ZM-1.71 28.54c-.02.07.07.13.12.08C-.2 27.2 9.19 23.55 8.08 13.2c-.19-1.8-1.33-5.59.54-12.22.02-.06-.06-.11-.09-.05-.77 1.75-4.92 6.35-5.35 13.1-.25 3.89-3.44 9.48-4.89 14.5ZM183.94 200.7s-20.01-16.86 3.47-29.73c.98-.54 3.06-1.26 5.37-5.16 0 0 .35 3.19-3.29 6.5-1.37 1.25-8.72 10.5-5.55 28.4M169.05 178.12s-.79-11.72 4.2-14.2c1.87-.93 9.62-1.93 14.28-5.8 0 0 3.83-3.55 4.89-6.15 0-.02.03-.02.04 0 .14 1.19 1.65 17.11-15.42 16.98-1.16 0-3.27-.02-7.99 9.16M168.31 156.35s-.11 0-.1-.05c.3-1.51 2.75-11.81 14.63-10.72 0 0 6.12.53 8.07-4.99.02-.05.09-.08.12-.04.55.8-.67 8.74-10.15 8.41-.69-.02-5.1-.02-12.57 7.38ZM163.59 180.98c.07.05.06.16-.03.18-1.57.21-10.63.94-15.02-9.14 0 0-2.56-5.13-3.21-9.09 0-.05.06-.08.09-.04.55.92 1.95 6 7.84 9.54 3.67 2.2 6.08 5.58 10.33 8.54ZM160.03 152.29s.08.06.11.02c.69-.74 16.55-20.77.95-31.91-.06-.04-.15.04-.11.1.93 1.46 5.18 8.49 2.78 11.91 0 0-8.56 10.99-3.73 19.88ZM175.53 136.03c.47-1.66 1.91-8.35-4.08-11.57-.11-.06-.13-.2-.03-.27.87-.61 4.31-2.72 6.93.29.05.05.12.08.18.05.86-.37 6.81-2.72 6.04 4.5-.01.09.06.18.15.19.98.04 5.76.49 4.49 5.55-.03.11-.16.17-.26.11-.9-.64-5.07-2.99-13.19 1.35-.13.07-.28-.04-.24-.18Z" class="cls-1"/><path d="M183.94 200.7s-14.62-10.18-20.72-29.01c-.98-3.01-4.63-17.86 8.95-31.85.06-.06.16 0 .12.07-1.73 2.92-10.01 17.8-6.22 29.6.06.17 4.67 18.22 17.88 31.18ZM161.35 173.02c.02.08-.09.14-.14.08-1.42-1.72-11.57-6.68-9.35-18.14.39-1.99 2.01-6.12.55-13.7-.01-.07.08-.11.1-.04.7 2.02 4.89 7.56 4.74 15.14-.09 4.36 2.95 10.91 4.1 16.66ZM170.99 123.02s1.29-1.61 3.72-1.3c0 0-3.16-17.94-7.37-19.39 0 0-3.8 9.71 3.64 20.69ZM175.97 121.66s1.91-.57 3.2 1.06c0 0 5.42-16.82.87-28.93 0 0-9.56 9.07-4.07 27.86ZM179.95 122.77s3.57-1.04 4.96 1.36c0 0 10.58-11.94 11.66-27.55 0 0-10.95 6.4-16.62 26.18ZM185.58 125.22s.47.99.4 2.68c0 0 1.75 0 2.75.83 0 0 15.85-7.39 19.56-18.22 0 0-10.21-.3-22.7 14.7ZM189.62 129.36s2.65 2.36.87 5.42c0 0 17.32-6.01 18.37-10 0 0-2.74-2.69-19.24 4.58ZM141.79 133.66c-.16-1.26-1.15-7.33-5.74-10.15-.08-.05-.08-.15 0-.2 1.63-.9 14.59-7.49 16.68 7.58.01.08-.06.16-.14.14-1.03-.25-6.65-1.38-10.61 2.68-.07.07-.18.04-.19-.05Z" class="cls-1"/><circle cx="153.11" cy="119.9" r="1.36" class="cls-1"/><circle cx="150.11" cy="115.1" r="1.36" class="cls-1"/><circle cx="144.77" cy="115.77" r="1.36" class="cls-1"/><path d="M148.15 115.21h.72v6.97h-.72z" class="cls-1" transform="rotate(-155.99 148.503 118.697)"/><path d="M144.2 115.93h.72v6.97h-.72z" class="cls-1" transform="rotate(-176.7 144.557 119.413)"/><path d="M149.99 119.32h.72v6.97h-.72z" class="cls-1" transform="rotate(-134.85 150.353 122.8)"/><path d="M133.5 152.9s.03.06.05.03c.92-1.64 7.75-14.35-.71-17.01-.86-.27-3.39-1.19-7.59 1-.03.01-.02.06 0 .06 1.51-.2 12.71-1.1 8.25 15.92ZM140.6 150.77s0 .02.01.03c.37.06 7.73 1.08 7.45-11.36 0-.19-.26-2.98 4.45-5.97.02-.02.02-.06 0-.05-1.23.27-11.13 2.85-11.9 17.36Z" class="cls-1"/><path d="M141.6 136.13s.41 14.43-6.66 21.39c-.92.9-5.29 4.12-7.26 9.56l-2.95 6.78s-.47-11.06 5.62-15.59c4.1-3.05 7.56-7.56 11.25-22.14ZM114.19 128.01s-3.41-3.44.58-11.56c0 0 3.6-7.36 9.16-9.91.04-.02.09.04.06.07-.42.49-1.28 2.08-.88 6.72 0 0 3.69 15.28-8.92 14.68Z" class="cls-1"/><path d="M112.91 127.83c-.58-.91-3.13-5.79 1.79-14 0-.01.01-.03 0-.05-.11-.46-1.66-6.9-4.99-9.11-.06-.04-.14.03-.12.09.31.74.96 3.2-1.42 7.51 0 0-6.33 13.04 4.64 15.68.07.02.13-.05.09-.11ZM115.55 113.01c-.23-.91-.95-3.51-2.01-5.12-.03-.04-.03-.08 0-.12.25-.43 1.84-3.05 3.25-3.48.13-.04.25 0 .37.12.49.47 1.76 2.1 2.36 3.78.02.05 0 .1-.03.13-.35.32-2.22 2.1-3.69 4.71-.06.11-.22.1-.25-.02ZM113.17 130.24c-.83 1.64-4.23 7.26-1.47 21.05.02.08 4.9 17.89-1.52 25.48-.04.05.02.13.08.1.9-.45 4.41-2.57 5.29-8.15 0 0 1.43-5.86-2.14-20.59-.4-1.66-1.98-10.56-.12-17.85.02-.08-.08-.12-.12-.05ZM109.73 144.11c-1.04-.1-12.68-1.61-9.04-20.41.02-.08.14-.08.14 0 .14 1.55.77 6.1 3.47 7.99.08.06 5.24 4.02 5.5 12.35 0 .04-.03.08-.07.08ZM114.36 140.1c.86.14 15.42 2.15 15.85-21.73 0-.04-.06-.06-.08-.02-.38 1.17-2.1 5.97-5.64 8.49-.12.09-7.71 4.91-10.16 13.21 0 .02 0 .05.03.05Z" class="cls-1"/><g><path d="M97.27 164.18c-1.53-1.34-5.13-2.46-5.13-2.46-2.76-10.76-1.59-12.92-1.59-12.92 2.57.65 8.54 9.54 8.54 9.54-1.62 2.64-1.82 5.84-1.82 5.84ZM106.35 167.03c1.1-1.8 1.89-4.05 1.89-4.05 10.51-3.26 14.51-2.12 14.51-2.12-1.94 3.78-9.87 8.65-9.87 8.65-3.83-2.25-6.54-2.48-6.54-2.48ZM97.13 165.33l.05.07c.07.69.24 1.57.44 2.25-1.25-.33-3.46-.54-3.59-.2-.13.34 1.82 1.76 2.96 2.3-.92.52-2.28 1.6-2.64 2.16l-.26-.03c-3.82-.18-7.62-2.82-7.62-2.82-7.99-4.81-9.24-7.48-9.24-7.48 1.6-1.22 11.87.52 11.87.52 5.75.97 8.03 3.25 8.03 3.25ZM105.3 166.74l-.39.44c-.63-.11-2.44.2-3.46.56.35-1.21.6-3.6.24-3.73-.31-.12-1.54 1.52-2.15 2.67l-1.24-1.69-.03-.67c.37-4.05 3.17-8.15 3.17-8.15 5.36-8.39 7.16-8.76 7.16-8.76 1.17 3.02-.55 11.92-.55 11.92-.61 4.44-2.75 7.42-2.75 7.42Z" class="cls-1"/></g></svg>